SplineFontDB: 3.0
FontName: Manjari-Thin
FullName: Manjari Thin
FamilyName: Manjari
Weight: Thin
Copyright: Digitized data copyright (c) 2014, Santhosh Thottingal, Kavya Manohar,\nSwathanthra Malayalam Computing(http://smc.org.in) with reserved font name "Manjari".
Version: 1.0.0-alpha.20141027
ItalicAngle: 0
UnderlinePosition: -600
UnderlineWidth: 100
Ascent: 1434
Descent: 614
InvalidEm: 0
sfntRevision: 0x00060000
LayerCount: 2
Layer: 0 0 "Back" 1
Layer: 1 0 "Fore" 0
XUID: [1021 348 -393509193 14261458]
FSType: 0
OS2Version: 1
OS2_WeightWidthSlopeOnly: 0
OS2_UseTypoMetrics: 1
CreationTime: 1201144287
ModificationTime: 1454838217
PfmFamily: 17
TTFWeight: 100
TTFWidth: 5
LineGap: 0
VLineGap: 0
Panose: 2 0 4 3 0 0 0 0 0 0
OS2TypoAscent: 1400
OS2TypoAOffset: 0
OS2TypoDescent: -800
OS2TypoDOffset: 0
OS2TypoLinegap: 0
OS2WinAscent: 1400
OS2WinAOffset: 0
OS2WinDescent: 800
OS2WinDOffset: 0
HheadAscent: 1400
HheadAOffset: 0
HheadDescent: -800
HheadDOffset: 0
OS2SubXSize: 1331
OS2SubYSize: 1433
OS2SubXOff: 274
OS2SubYOff: 286
OS2SupXSize: 1331
OS2SupYSize: 1433
OS2SupXOff: -944
OS2SupYOff: 983
OS2StrikeYSize: 102
OS2StrikeYPos: 530
OS2Vendor: 'SMC '
OS2CodePages: 00000001.00000000
OS2UnicodeRanges: 80800003.00002000.00000000.00000000
MarkAttachClasses: 1
DEI: 91125
ShortTable: maxp 16
  0
  0
  0
  0
  0
  0
  0
  2
  1
  2
  22
  0
  256
  0
  0
  0
EndShort
TtTable: prep
PUSHW_1
 511
SCANCTRL
PUSHB_1
 1
SCANTYPE
SVTCA[y-axis]
MPPEM
PUSHB_1
 8
LT
IF
PUSHB_2
 1
 1
INSTCTRL
EIF
PUSHB_2
 70
 6
CALL
IF
POP
PUSHB_1
 16
EIF
MPPEM
PUSHB_1
 20
GT
IF
POP
PUSHB_1
 128
EIF
SCVTCI
PUSHB_1
 6
CALL
NOT
IF
EIF
PUSHB_1
 20
CALL
EndTTInstrs
TtTable: fpgm
PUSHB_1
 0
FDEF
PUSHB_1
 0
SZP0
MPPEM
PUSHB_1
 42
LT
IF
PUSHB_1
 74
SROUND
EIF
PUSHB_1
 0
SWAP
MIAP[rnd]
RTG
PUSHB_1
 6
CALL
IF
RTDG
EIF
MPPEM
PUSHB_1
 42
LT
IF
RDTG
EIF
DUP
MDRP[rp0,rnd,grey]
PUSHB_1
 1
SZP0
MDAP[no-rnd]
RTG
ENDF
PUSHB_1
 1
FDEF
DUP
MDRP[rp0,min,white]
PUSHB_1
 12
CALL
ENDF
PUSHB_1
 2
FDEF
MPPEM
GT
IF
RCVT
SWAP
EIF
POP

StartChar: .notdef
Encoding: 65536 -1 0
Width: 692
GlyphClass: 2
Flags: HW
LayerCount: 2
Fore
SplineSet
45 1 m 1
 45 1119 l 1
 606 1119 l 1
 606 1 l 1
 45 1 l 1
102 55 m 1
 552 55 l 1
 552 1063 l 1
 102 1063 l 1
 102 55 l 1
EndSplineSet
EndChar

StartChar: exclam
Encoding: 33 33 4
Width: 281
GlyphClass: 2
Flags: HW
LayerCount: 2
Fore
SplineSet
201 -59 m 0
 201 -92 174 -120 141 -120 c 0
 108 -120 80 -92 80 -59 c 0
 80 -26 108 1 141 1 c 0
 174 1 201 -26 201 -59 c 0
95 988 m 0
 95 1009 112 1026 133 1026 c 0
 154 1026 170 1009 170 988 c 2
 170 159 l 2
 170 138 154 122 133 122 c 0
 112 122 95 138 95 159 c 0
 95 160 l 2
 95 988 l 2
 95 988 l 0
EndSplineSet
EndChar

StartChar: numbersign
Encoding: 35 35 6
Width: 1486
GlyphClass: 2
Flags: HW
LayerCount: 2
Fore
SplineSet
1289 1359 m 4
 1310 1359 1326 1341 1326 1321 c 4
 1326 1317 1325 1312 1324 1308 c 6
 1212 1005 l 5
 1398 1005 l 6
 1399 1005 l 4
 1420 1005 1436 988 1436 967 c 4
 1436 946 1420 930 1399 930 c 4
 1398 930 l 6
 1185 930 l 5
 1008 452 l 5
 1369 452 l 6
 1370 452 l 4
 1391 452 1407 436 1407 415 c 4
 1407 394 1391 377 1370 377 c 4
 1369 377 l 6
 981 377 l 5
 854 33 l 6
 849 19 833 8 818 8 c 4
 797 8 781 24 781 45 c 4
 781 49 782 55 783 59 c 6
 901 377 l 5
 433 377 l 5
 308 30 l 6
 303 16 287 4 272 4 c 4
 251 4 235 21 235 42 c 4
 235 46 236 51 237 55 c 6
 353 377 l 5
 88 377 l 6
 88 377 l 4
 67 377 50 394 50 415 c 4
 50 436 67 452 88 452 c 4
 88 452 l 6
 380 452 l 5
 552 930 l 5
 240 930 l 6
 240 930 l 4
 219 930 202 946 202 967 c 4
 202 988 219 1005 240 1005 c 4
 240 1005 l 6
 579 1005 l 5
 696 1331 l 6
 701 1345 717 1356 732 1356 c 4
 753 1356 769 1339 769 1319 c 4
 769 1315 768 1309 767 1305 c 6
 659 1005 l 5
 1132 1005 l 5
 1254 1334 l 6
 1259 1348 1274 1359 1289 1359 c 4
632 930 m 5
 460 452 l 5
 928 452 l 5
 1105 930 l 5
 632 930 l 5
EndSplineSet
EndChar

StartChar: dollar
Encoding: 36 36 7
Width: 955
GlyphClass: 2
Flags: HW
LayerCount: 2
Fore
SplineSet
541 -31 m 2
 541 -187 l 1
 508 -187 l 1
 508 -31 l 2
 508 -17 496 -7 485 -6 c 0
 255 10 137 107 129 335 c 1
 202 335 l 1
 222 152 289 69 480 45 c 0
 490 44 508 48 508 70 c 2
 508 576 l 2
 508 587 500 597 490 600 c 0
 370 636 284 676 230 719 c 0
 180 759 152 823 152 921 c 0
 152 1109 257 1214 486 1242 c 0
 499 1244 508 1256 508 1267 c 2
 508 1337 l 1
 541 1337 l 1
 541 1267 l 2
 541 1254 551 1243 564 1242 c 0
 750 1227 875 1137 889 962 c 1
 818 962 l 1
 803 1094 708 1186 566 1189 c 0
 553 1189 541 1178 541 1164 c 2
 541 699 l 2
 541 687 551 677 560 675 c 0
 715 633 815 590 861 550 c 0
 905 512 930 446 930 348 c 0
 930 127 814 12 564 -6 c 0
 550 -7 541 -20 541 -31 c 2
497 686 m 1
 497 686 508 686 508 707 c 2
 508 1164 l 2
 508 1174 502 1192 480 1189 c 0
 316 1167 224 1081 224 937 c 0
 224 809 316 725 477 683 c 0
 482 682 491 683 497 686 c 1
571 591 m 0
 555 594 541 582 541 567 c 2
 541 70 l 2
 541 60 548 43 569 45 c 0
 753 66 854 162 855 326 c 0
 855 465 752 552 571 591 c 0
EndSplineSet
EndChar

StartChar: percent
Encoding: 37 37 8
Width: 1485
GlyphClass: 2
Flags: HW
LayerCount: 2
Fore
SplineSet
924 264 m 0
 924 412 1045 533 1193 533 c 0
 1342.33851799 533 1458.00610416 413.425822411 1458.00610416 263.193489202 c 0
 1458.00610416 116.008541169 1336.40146818 -5 1190 -5 c 0
 1042 -5 925 116 924 264 c 0
490 -5 m 1
 455 -5 l 1
 1120 1226 l 1
 1154 1226 l 1
 490 -5 l 1
684 913 m 0
 684 765 564 645 416 645 c 0
 267 645 150 763 150 913 c 0
 150 1063 267 1181 417 1181 c 0
 565 1181 684 1061 684 913 c 0
1409 265 m 0
 1409 385 1311 483 1191 483 c 0
 1070 483 975 387 975 266 c 0
 975 146 1070 49 1190 49 c 0
 1309 49 1409 145 1409 265 c 0
633 913 m 0
 633 1033 538 1132 417 1132 c 0
 296 1132 201 1033 201 913 c 0
 201 793 297 698 417 698 c 0
 537 698 633 793 633 913 c 0
EndSplineSet
EndChar

StartChar: ampersand
Encoding: 38 38 9
Width: 1216
GlyphClass: 2
Flags: HW
LayerCount: 2
Fore
SplineSet
551.483829468 1355.51310221 m 0
 711.97323499 1355.51310221 833.159754991 1236.32077547 833.159754991 1075.00717478 c 0
 833.159754991 949.234652158 759.424751486 843.464297976 603 749 c 0
 593 743 589 727 594 715 c 0
 686 597 764 496 826 416 c 0
 829 412 834 408 839 407 c 1
 870 424 l 1
 895 494 908 566 911 642 c 0
 912 666 932 687 956 687 c 0
 976 687 1001 662 1001 655 c 0
 1001 535 975 422 923 315 c 0
 919 306 919 296 925 289 c 0
 1028 156 1083 84 1088 77 c 0
 1089 76 1091 69 1091 55 c 0
 1091 32 1071 12 1043 12 c 0
 1030 12 1019 17 1008 32 c 0
 957 100 916 155 884 195 c 0
 880 200 863 217 845 195 c 0
 765.040416462 97.833923802 647.939978826 18.9543700245 494.893977856 18.9543700245 c 0
 363.80946219 18.9543700245 261.039912409 82.2191588461 199 161 c 0
 154.123295026 218.415784305 125.361423535 289.768721893 125.361423535 369.885024487 c 0
 125.361423535 411.16597197 132.997577187 454.773555317 150 500 c 0
 182 585 270 670 418 750 c 0
 424 753 429 762 431 770 c 0
 431 774 429 781 428 784 c 0
 407 814 373 853 349 886 c 0
 303.24143553 949.358012343 280.997869089 1018.02586295 280.997869089 1083.1035307 c 0
 280.997869089 1235.02536898 411.849646635 1355.51310221 551.483829468 1355.51310221 c 0
560.560148576 1264.17073171 m 0
 459.564848172 1264.17073171 370.281526452 1190.90572129 370.281526452 1077.76722019 c 0
 370.281526452 1064.51148013 371.843871414 1051.25574006 375 1038 c 0
 386 994 431 927 510 825 c 0
 516 817 529 814 540 817 c 0
 667.015438019 892.604427392 743.089298318 975.647860415 743.089298318 1077.54861672 c 0
 743.089298318 1179.46793591 663.976283304 1264.17073171 560.560148576 1264.17073171 c 0
213.735755008 377.68975499 m 0
 213.735755008 224.554550892 336.789590576 109.113385689 495.333925246 109.113385689 c 0
 627.104986568 109.113385689 739.221780043 199.738129248 796 278 c 0
 803 287 802 300 796 308 c 0
 705 426 611 548 513 674 c 0
 508 680 496 684 486 684 c 1
 427 652 382 625 353 604 c 0
 263.24511394 537.773093781 213.735755008 461.674643173 213.735755008 377.68975499 c 0
EndSplineSet
EndChar

StartChar: quotesingle
Encoding: 39 39 10
Width: 304
GlyphClass: 2
Flags: HW
LayerCount: 2
Fore
SplineSet
148 1434 m 0
 190 1434 205 1400 204 1358 c 2
 182 1040 l 2
 179 998 175 964 147 964 c 0
 119 964 111 999 110 1041 c 2
 100 1358 l 2
 100 1399 107 1434 148 1434 c 0
EndSplineSet
EndChar

StartChar: parenleft
Encoding: 40 40 11
Width: 653
GlyphClass: 2
Flags: HW
LayerCount: 2
Fore
SplineSet
509.59375 1211 m 4
 530.295898438 1211 547.09765625 1194.19824219 547.09765625 1173.49609375 c 4
 547.09765625 1163.15429688 540.38671875 1149.72070312 532.118164062 1143.50976562 c 4
 311.049804688 972.530273438 174.631835938 694.099609375 175.000976562 414.626953125 c 4
 175.372070312 133.541992188 314.211914062 -146.077148438 537.915039062 -316.271484375 c 4
 546.331054688 -322.477539062 553.161132812 -336 553.161132812 -346.456054688 c 4
 553.161132812 -367.158203125 536.359375 -383.959960938 515.657226562 -383.959960938 c 4
 508.502929688 -383.959960938 498.129882812 -380.375976562 492.502929688 -375.958984375 c 4
 249.33203125 -190.953125 100.404296875 108.98046875 100.000976562 414.52734375 c 4
 99.599609375 718.305664062 245.938476562 1016.98730469 486.233398438 1202.8359375 c 4
 491.870117188 1207.32421875 502.29296875 1210.98144531 509.59375 1211 c 4
EndSplineSet
EndChar

StartChar: asterisk
Encoding: 42 42 13
Width: 955
GlyphClass: 2
Flags: HW
LayerCount: 2
Fore
SplineSet
26 1236 m 0
 26 1266 47 1287 67 1287 c 0
 80 1287 88 1284 95 1280 c 2
 402 1093 l 1
 402 1093 441 1067 440 1115 c 2
 436 1363 l 1
 436 1378 l 2
 436 1384 461 1409 481 1409 c 0
 506 1409 526 1389 526 1364 c 2
 530 1115 l 1
 530 1115 528 1068 568 1094 c 2
 861 1281 l 2
 868 1286 877 1289 890 1289 c 0
 907 1289 931 1264 931 1253 c 0
 931 1227 923 1214 909 1205 c 2
 605 1011 l 1
 605 1011 568 992 606 969 c 2
 909 784 l 2
 927 774 931 763 931 750 c 0
 931 720 910 700 890 700 c 0
 877 700 869 703 862 707 c 2
 571 884 l 1
 571 884 532 910 533 862 c 2
 538 548 l 1
 538 533 l 2
 538 527 513 502 493 502 c 0
 469 502 448 522 448 547 c 2
 443 862 l 1
 443 862 445 909 405 883 c 2
 95 685 l 2
 88 680 79 678 66 678 c 0
 45 678 25 698 25 728 c 0
 25 741 30 751 47 761 c 2
 368 966 l 1
 368 966 405 986 367 1009 c 2
 49 1203 l 2
 31 1213 26 1223 26 1236 c 0
EndSplineSet
EndChar

StartChar: plus
Encoding: 43 43 14
Width: 1315
GlyphClass: 2
Flags: HW
LayerCount: 2
Fore
SplineSet
658 1295 m 4
 658 1316 675 1333 696 1333 c 4
 717 1333 733 1316 733 1295 c 4
 733 1295 l 6
 733 733 l 5
 1228 733 l 6
 1228 733 l 4
 1249 733 1266 716 1266 695 c 4
 1266 674 1249 658 1228 658 c 4
 1228 658 l 6
 733 658 l 5
 733 14 l 6
 733 14 l 4
 733 -7 717 -24 696 -24 c 4
 675 -24 658 -7 658 14 c 4
 658 14 l 6
 658 658 l 5
 88 658 l 6
 88 658 l 4
 67 658 50 674 50 695 c 4
 50 716 67 733 88 733 c 4
 88 733 l 6
 658 733 l 5
 658 1295 l 6
 658 1295 l 4
EndSplineSet
EndChar

StartChar: comma
Encoding: 44 44 15
Width: 474
GlyphClass: 2
Flags: HW
LayerCount: 2
Fore
SplineSet
261 240 m 4
 322 240 371 188 374 118 c 4
 374 108 375 98 375 88 c 4
 375 -113 289 -249 158 -334 c 4
 151 -339 145 -341 138 -341 c 4
 117 -341 100 -321 100 -301 c 4
 100 -290 105 -279 117 -271 c 4
 211 -210 279 -114 295 14 c 5
 284 10 273 8 261 8 c 4
 200 8 150 60 150 124 c 4
 150 188 200 240 261 240 c 4
EndSplineSet
EndChar

StartChar: hyphen
Encoding: 45 45 16
Width: 601
GlyphClass: 2
Flags: HW
LayerCount: 2
Fore
SplineSet
138 471 m 2
 464 471 l 2
 485 471 501 455 501 434 c 0
 501 413 485 396 464 396 c 2
 138 396 l 2
 117 396 100 413 100 434 c 0
 100 455 117 471 138 471 c 2
138 471 m 2
 464 471 l 2
 485 471 501 455 501 434 c 0
 501 413 485 396 464 396 c 2
 138 396 l 2
 117 396 100 413 100 434 c 0
 100 455 117 471 138 471 c 2
138 471 m 2
 464 471 l 2
 485 471 501 455 501 434 c 0
 501 413 485 396 464 396 c 2
 138 396 l 2
 117 396 100 413 100 434 c 0
 100 455 117 471 138 471 c 2
EndSplineSet
EndChar

StartChar: period
Encoding: 46 46 17
Width: 395
GlyphClass: 2
Flags: HW
LayerCount: 2
Fore
SplineSet
100 98 m 4
 100 152 144 196 198 196 c 4
 252 196 296 152 296 98 c 4
 296 44 252 0 198 0 c 4
 144 0 100 44 100 98 c 4
EndSplineSet
EndChar

StartChar: slash
Encoding: 47 47 18
Width: 572
GlyphClass: 2
Flags: HW
LayerCount: 2
Fore
SplineSet
193 -5 m 1
 108 -5 l 1
 519 1261 l 1
 604 1261 l 1
 193 -5 l 1
EndSplineSet
EndChar

StartChar: zero
Encoding: 48 48 19
Width: 1237
GlyphClass: 2
Flags: HW
LayerCount: 2
Fore
SplineSet
627 1379 m 4
 957 1379 1112 998 1112 682 c 4
 1112 372 947 -17 620 -17 c 4
 296 -17 125 364 125 671 c 4
 125 983 296 1379 627 1379 c 4
1037 681 m 4
 1037 951 911 1304 630 1304 c 4
 347 1304 200 941 200 671 c 4
 200 408 344 58 620 58 c 4
 899 58 1037 415 1037 681 c 4
EndSplineSet
EndChar

StartChar: one
Encoding: 49 49 20
Width: 779
GlyphClass: 2
Flags: HW
LayerCount: 2
Fore
SplineSet
403 1387 m 6
 404 1387 l 6
 425 1387 442 1371 442 1350 c 6
 439 75 l 1
 617 75 l 2
 638 75 655 58 655 37 c 0
 655 16 638 0 617 0 c 2
 163 0 l 2
 142 0 125 16 125 37 c 0
 125 58 142 75 163 75 c 2
 364 75 l 1
 367 1226 l 5
 324 1173 262 1115 181 1099 c 4
 179 1099 175 1098 173 1098 c 4
 152 1098 136 1114 136 1135 c 4
 136 1152 150 1169 167 1172 c 4
 247.655273438 1187.21777344 341.8984375 1313.64648438 371 1367 c 4
 377 1378 391 1387 403 1387 c 6
EndSplineSet
EndChar

StartChar: two
Encoding: 50 50 21
Width: 1151
GlyphClass: 2
Flags: HW
LayerCount: 2
Fore
SplineSet
162 3 m 2
 141 3 125 20 125 41 c 0
 125 51 132 64 140 70 c 0
 387.134773079 256.857999157 889.487304688 532.130859375 889.487304688 930.56640625 c 4
 889.487304688 1139.45703125 746.849609375 1308.23242188 542.155273438 1308.23242188 c 4
 377.384765625 1308.23242188 258.319335938 1195.47753906 224 1066 c 4
 220 1050 204 1038 188 1038 c 4
 167 1038 150 1054 150 1075 c 4
 150 1078 151 1083 152 1086 c 4
 194.895507812 1243.79199219 339.153320312 1383.1015625 541.059570312 1383.1015625 c 4
 792.897460938 1383.1015625 964.517578125 1182.0234375 964.517578125 928.594726562 c 4
 964.517578125 513.28515625 516.077045752 269.645680368 272 78 c 1
 989 78 l 2
 1010 78 1027 62 1027 41 c 0
 1027 20 1010 3 989 3 c 2
 162 3 l 2
EndSplineSet
EndChar

StartChar: three
Encoding: 51 51 22
Width: 1063
GlyphClass: 2
Flags: HW
LayerCount: 2
Fore
SplineSet
183 1135 m 4
 232 1267 361 1380 536 1380 c 4
 740 1380 903 1215 903 1017 c 4
 903 878 822 760 716 703 c 5
 840 660 938 552 938 390 c 4
 938 163 739 -18 514 -18 c 4
 365 -18 218 55 132 176 c 4
 128 181 125 191 125 198 c 4
 125 219 142 235 163 235 c 4
 174 235 187 228 193 219 c 4
 265 118 389 57 514 57 c 4
 695 57 865 202 865 387 c 4
 865 577 724 644 541 655 c 5
 517 656 l 6
 498 657 482 674 482 694 c 4
 482 712 496 728 514 731 c 6
 539 734 l 6
 540 734 543 735 544 735 c 6
 546 735 l 6
 699 735 828 862 828 1016 c 4
 828 1174 702 1304 543 1304 c 4
 408 1304 292 1215 253 1109 c 4
 248 1095 233 1084 218 1084 c 4
 197 1084 181 1101 181 1122 c 4
 181 1126 182 1131 183 1135 c 4
EndSplineSet
EndChar

StartChar: four
Encoding: 52 52 23
Width: 1336
GlyphClass: 2
Flags: HW
LayerCount: 2
Fore
SplineSet
857 -22 m 4
 836 -22 820 -6 820 15 c 4
 820 16 l 6
 819 367 l 1
 162 369 l 2
 141 369 125 386 125 407 c 0
 125 414 128 424 132 429 c 2
 823 1373 l 2
 829 1381 843 1388 853 1388 c 0
 874 1388 891 1372 891 1351 c 2
 894 442 l 1
 1173 441 l 2
 1174 441 l 0
 1195 441 1211 424 1211 403 c 0
 1211 382 1195 366 1174 366 c 0
 1173 366 l 2
 894 367 l 1
 895 16 l 6
 895 15 l 4
 895 -6 878 -22 857 -22 c 4
819 442 m 1
 816 1238 l 1
 237 444 l 1
 819 442 l 1
EndSplineSet
EndChar

StartChar: five
Encoding: 53 53 24
Width: 1155
GlyphClass: 2
Flags: HW
LayerCount: 2
Fore
SplineSet
568 935 m 4
 810 935 1031 737 1031 471 c 4
 1031 207 824 -2 557 -2 c 4
 355 -2 199 120 129 265 c 4
 127 269 125 277 125 282 c 4
 125 303 142 319 163 319 c 4
 176 319 190 310 196 298 c 4
 255 176 384 72 557 72 c 4
 783 72 955 249 955 471 c 4
 955 693 771 860 568 860 c 4
 443 860 318 794 248 691 c 4
 242 682 228 675 217 675 c 4
 196 675 179 691 179 712 c 4
 179 714 180 717 180 719 c 6
 288 1365 l 6
 291 1382 307 1397 325 1397 c 6
 973 1397 l 6
 973 1397 l 4
 994 1397 1011 1380 1011 1359 c 4
 1011 1338 994 1322 973 1322 c 4
 973 1322 l 6
 356 1322 l 5
 274 829 l 5
 356 896 461 935 568 935 c 4
EndSplineSet
EndChar

StartChar: six
Encoding: 54 54 25
Width: 1218
GlyphClass: 2
Flags: HW
LayerCount: 2
Fore
SplineSet
1094 438 m 0
 1094 198 898 -2 661 -2 c 0
 297 -2 125 364 125 711 c 0
 125 1050 303 1396 657 1396 c 0
 831 1396 964 1297 1032 1181 c 0
 1035 1176 1037 1168 1037 1162 c 0
 1037 1141 1021 1124 1000 1124 c 0
 988 1124 973 1133 967 1143 c 0
 911 1239 801 1321 657 1321 c 0
 348 1321 200 1009 200 710 c 0
 200 649 204 596 214 540 c 1
 260 738 442 884 647 884 c 0
 892 884 1094 685 1094 438 c 0
660 73 m 0
 857 73 1019 239 1019 439 c 0
 1019 644 850 809 647 809 c 0
 453 809 278 651 278 436 c 0
 278 224 457 73 660 73 c 0
EndSplineSet
EndChar

StartChar: seven
Encoding: 55 55 26
Width: 1276
GlyphClass: 2
Flags: HW
LayerCount: 2
Fore
SplineSet
562 -13 m 4
 542 -12 526 4 526 24 c 4
 526 27 527 33 528 36 c 4
 596 247 670 455 752 660 c 4
 844 889 945 1114 1054 1335 c 5
 163 1335 l 6
 163 1335 l 4
 142 1335 125 1351 125 1372 c 4
 125 1393 142 1410 163 1410 c 4
 163 1410 l 6
 1114 1410 l 6
 1135 1410 1152 1393 1152 1372 c 4
 1152 1367 1150 1360 1148 1356 c 4
 1029 1120 920 878 822 632 c 4
 740 428 666 222 599 13 c 4
 595 -2 578 -13 563 -13 c 4
 562 -13 l 4
EndSplineSet
EndChar

StartChar: eight
Encoding: 56 56 27
Width: 1099
GlyphClass: 2
Flags: HW
LayerCount: 2
Fore
SplineSet
375 711 m 5
 264 766 173 888 173 1029 c 4
 173 1229 347 1387 550 1387 c 4
 751 1387 928 1229 928 1028 c 4
 928 886 836 765 724 710 c 5
 858 657 974 523 974 362 c 4
 974 142 770 -17 550 -17 c 4
 329 -17 125 143 125 363 c 4
 125 523 240 658 375 711 c 5
551 745 m 6
 711 745 853 869 853 1028 c 4
 853 1187 711 1312 550 1312 c 4
 389 1312 248 1186 248 1028 c 4
 248 869 391 745 551 745 c 6
 551 745 l 6
550 59 m 4
 730 59 899 179 899 357 c 4
 899 535 730 668 548 668 c 4
 367 668 200 539 200 363 c 4
 200 185 370 59 550 59 c 4
EndSplineSet
EndChar

StartChar: nine
Encoding: 57 57 28
Width: 1206
GlyphClass: 2
Flags: HW
LayerCount: 2
Fore
SplineSet
518 -22 m 4
 338 -22 206 82 132 199 c 4
 129 204 126 213 126 219 c 4
 126 240 142 257 163 257 c 4
 175 257 189 248 195 238 c 4
 256 141 373 56 521 56 c 4
 849 56 1007 382 1007 699 c 4
 1007 742 1004 783 999 825 c 5
 948 636 771 498 573 497 c 4
 572 497 570 497 569 497 c 4
 320 497 125 705 125 946 c 4
 125 1183 324 1381 558 1381 c 4
 905 1381 1082 1040 1082 707 c 4
 1082 346 894 -22 518 -22 c 4
567 574 m 4
 761 574 940 727 940 946 c 4
 940 1154 762 1300 570 1307 c 4
 566 1307 561 1307 557 1307 c 4
 363 1307 200 1142 200 947 c 4
 200 746 363 574 567 574 c 4
EndSplineSet
EndChar

StartChar: semicolon
Encoding: 59 59 30
Width: 425
GlyphClass: 2
Flags: HW
LayerCount: 2
Fore
SplineSet
113.129882812 646.87109375 m 0
 113.129882812 700.922851562 156.948242188 744.741210938 211 744.741210938 c 0
 265.052734375 744.741210938 308.87109375 700.922851562 308.87109375 646.87109375 c 0
 308.87109375 592.818359375 265.052734375 549 211 549 c 0
 156.948242188 549 113.129882812 592.818359375 113.129882812 646.87109375 c 0
211 241 m 0
 272 241 321 189 324 119 c 0
 324 109 325 99 325 89 c 0
 325 -112 239 -248 108 -333 c 0
 101 -338 95 -340 88 -340 c 0
 67 -340 50 -320 50 -300 c 0
 50 -289 55 -278 67 -270 c 0
 161 -209 229 -113 245 15 c 1
 234 11 223 9 211 9 c 0
 150 9 100 61 100 125 c 0
 100 189 150 241 211 241 c 0
EndSplineSet
EndChar

StartChar: less
Encoding: 60 60 31
Width: 1244
GlyphClass: 2
Flags: HW
LayerCount: 2
Fore
SplineSet
1093 916 m 2
 1097 918 1103 919 1107 919 c 0
 1128 919 1145 902 1145 881 c 0
 1145 867 1134 851 1121 846 c 2
 237 495 l 1
 1121 129 l 2
 1134 124 1144 109 1144 95 c 0
 1144 74 1128 57 1107 57 c 0
 1103 57 1096 58 1092 60 c 2
 123 461 l 2
 110 466 100 482 100 496 c 0
 100 510 111 526 124 531 c 2
 1093 916 l 2
EndSplineSet
EndChar

StartChar: equal
Encoding: 61 61 32
Width: 1109
GlyphClass: 2
Flags: HW
LayerCount: 2
Fore
SplineSet
138 407 m 5
 971 407 l 6
 971 407 971.79296875 407.00390625 971.939453125 407.00390625 c 4
 992.641601562 407.00390625 1009.44335938 390.202148438 1009.44335938 369.5 c 4
 1009.44335938 348.797851562 992.641601562 331.99609375 971.939453125 331.99609375 c 4
 971.79296875 331.99609375 971.555664062 331.998046875 971.409179688 332 c 6
 138.221679688 332 l 6
 138.075195312 331.998046875 137.837890625 331.99609375 137.69140625 331.99609375 c 4
 116.989257812 331.99609375 100.1875 348.797851562 100.1875 369.5 c 4
 100.1875 390.202148438 116.989257812 407.00390625 137.69140625 407.00390625 c 4
 137.837890625 407.00390625 138 407 138 407 c 5
138.221679688 407 m 5
 971.409179688 407 l 6
 971.555664062 407.001953125 971.79296875 407.00390625 971.939453125 407.00390625 c 4
 992.641601562 407.00390625 1009.44335938 390.202148438 1009.44335938 369.5 c 4
 1009.44335938 348.797851562 992.641601562 331.99609375 971.939453125 331.99609375 c 4
 971.79296875 331.99609375 971.555664062 331.998046875 971.409179688 332 c 6
 138.221679688 332 l 6
 138.075195312 331.998046875 137.837890625 331.99609375 137.69140625 331.99609375 c 4
 116.989257812 331.99609375 100.1875 348.797851562 100.1875 369.5 c 4
 100.1875 390.202148438 116.989257812 407.00390625 137.69140625 407.00390625 c 4
 137.837890625 407.00390625 138.075195312 407.001953125 138.221679688 407 c 5
138.221679688 407 m 5
 971.409179688 407 l 6
 971.555664062 407.001953125 971.79296875 407.00390625 971.939453125 407.00390625 c 4
 992.641601562 407.00390625 1009.44335938 390.202148438 1009.44335938 369.5 c 4
 1009.44335938 348.797851562 992.641601562 331.99609375 971.939453125 331.99609375 c 4
 971.79296875 331.99609375 971.555664062 331.998046875 971.409179688 332 c 6
 138.221679688 332 l 6
 138.075195312 331.998046875 137.837890625 331.99609375 137.69140625 331.99609375 c 4
 116.989257812 331.99609375 100.1875 348.797851562 100.1875 369.5 c 4
 100.1875 390.202148438 116.989257812 407.00390625 137.69140625 407.00390625 c 4
 137.837890625 407.00390625 138.075195312 407.001953125 138.221679688 407 c 5
138.034179688 658 m 1
 971.221679688 658 l 2
 971.368164062 658.001953125 971.60546875 658.00390625 971.751953125 658.00390625 c 0
 992.454101562 658.00390625 1009.25585938 641.202148438 1009.25585938 620.5 c 0
 1009.25585938 599.797851562 992.454101562 582.99609375 971.751953125 582.99609375 c 0
 971.60546875 582.99609375 971.368164062 582.998046875 971.221679688 583 c 2
 138.034179688 583 l 2
 137.887695312 582.998046875 137.650390625 582.99609375 137.50390625 582.99609375 c 0
 116.801757812 582.99609375 100 599.797851562 100 620.5 c 0
 100 641.202148438 116.801757812 658.00390625 137.50390625 658.00390625 c 0
 137.650390625 658.00390625 137.887695312 658.001953125 138.034179688 658 c 1
EndSplineSet
EndChar

StartChar: question
Encoding: 63 63 34
Width: 994
GlyphClass: 2
Flags: HW
LayerCount: 2
Fore
SplineSet
100 899 m 0
 100 1113 273 1251 479 1251 c 0
 673 1251 826 1149 877 999 c 0
 889 964 895 927 895 890 c 0
 895 689 750 580 644 486 c 0
 577 427 510 367 510 255 c 0
 510 234 517 213 517 192 c 0
 517 170 499 152 477 152 c 0
 433 152 428 213 428 256 c 0
 428 394 516 482 590 547 c 0
 658 607 726 664 768 733 c 0
 796 780 814 826 814 890 c 0
 814 1067 656 1170 480 1170 c 0
 317 1170 181 1067 181 899 c 0
 181 890 183 881 183 872 c 0
 183 850 164 831 142 831 c 0
 107 831 100 862 100 899 c 0
544 36 m 4
 544 3 517 -25 484 -25 c 4
 451 -25 423 3 423 36 c 4
 423 69 451 96 484 96 c 4
 517 96 544 69 544 36 c 4
EndSplineSet
EndChar

StartChar: at
Encoding: 64 64 35
Width: 1784
GlyphClass: 2
Flags: HW
LayerCount: 2
Fore
SplineSet
865.967962531 108.015872823 m 0
 650.806158886 108.015872823 490.817634143 277.122771681 490.817634143 492.086886116 c 0
 490.817634143 586.95438141 524.917321553 669.119913328 594 743 c 0
 667.31499852 821.406317861 748.229887968 859.02777143 846.317112175 859.02777143 c 0
 940.031198436 859.02777143 1020.25882771 833.000342701 1087 780 c 1
 1087 780 1127 750 1127 800 c 2
 1127 811 l 2
 1127 838 1150 861 1177 861 c 0
 1204 861 1227 838 1227 811 c 2
 1227 810 l 1
 1230 494 l 1
 1230 480 l 1
 1227 321 l 2
 1227 299 1241 277 1252 262 c 0
 1278.73754857 225.539706502 1322.8305391 202.372943023 1370.59107977 202.372943023 c 0
 1501.95916091 202.372943023 1558.14843985 344.008087165 1558.14843985 460.745164901 c 0
 1558.14843985 573.14884332 1519.56002015 694.959962574 1477 774 c 0
 1435 852 1380 918 1314 973 c 0
 1183.34310646 1080.90859511 1044.52076785 1135.0613435 899.914394182 1135.0613435 c 0
 796.605584625 1135.0613435 690.344677141 1107.42246946 582 1052 c 0
 344.421743086 930.935217741 224.501283304 738.612896373 224.501283304 481.821023841 c 0
 224.501283304 221.104898043 326.865639892 44.1184280681 526 -82 c 0
 635.750438571 -152.118335754 751.077339533 -187.290840518 870.620660236 -187.290840518 c 0
 947.138494338 -187.290840518 1025.38383038 -172.880375254 1105 -144 c 0
 1125 -137 1142 -133 1153 -133 c 0
 1175 -133 1184 -139 1184 -176 c 0
 1184 -208 1172 -226 1140 -238 c 0
 1047.74669289 -272.693551391 957.669392385 -289.979049978 869.400435832 -289.979049978 c 0
 733.775675389 -289.979049978 602.42008074 -249.171183109 474 -168 c 0
 262 -34 148 152 128 393 c 0
 125.52956544 422.560027326 124.29280267 451.416136042 124.29280267 479.573889911 c 0
 124.29280267 781.955092743 266.919217968 1003.80035858 556 1152 c 0
 673.349593488 1212.30465221 787.876731337 1242.5584532 900.190262852 1242.5584532 c 0
 1063.5172011 1242.5584532 1222.16299683 1178.58034102 1378 1050 c 0
 1519 934 1630 755 1655 532 c 0
 1657.68144316 508.403300148 1658.97878487 485.597515416 1658.97878487 463.618795699 c 0
 1658.97878487 321.665495496 1604.86092849 214.212732448 1520 151 c 0
 1470.9095527 114.766574608 1430.32294086 101.358593196 1370.04405679 101.358593196 c 0
 1276.57577388 101.358593196 1209.29826269 137.837354987 1161 214 c 0
 1158 219 1143 240 1122 219 c 0
 1062.71477074 158.788439038 973.396376383 108.015872823 865.967962531 108.015872823 c 0
860.558487575 759.02312494 m 0
 710.48279164 759.02312494 590.90282773 632.695104704 590.90282773 483.335400954 c 0
 590.90282773 375.260759644 639.204491891 294.020175062 729 243 c 0
 770.93962416 218.781343795 814.274949232 206.775070572 857.975426419 206.775070572 c 0
 888.255914546 206.775070572 918.711720955 212.539570091 949 224 c 0
 1048 261 1127 350 1130 480 c 0
 1129.00771635 631.819397908 1012.81409301 759.02312494 860.558487575 759.02312494 c 0
EndSplineSet
EndChar

StartChar: braceleft
Encoding: 123 123 36
Width: 947
GlyphClass: 2
Flags: HW
LayerCount: 2
Fore
SplineSet
401.336749258 -91.6185947633 m 0
 401.336749258 -231.266451985 483.741543652 -349.725637415 637.306142298 -349.725637415 c 0
 673.827056105 -349.725637415 709.783737871 -341.281112454 738 -322 c 0
 757 -309 771 -305 781 -305 c 0
 802 -305 822 -325 822 -354 c 0
 822 -367 817 -378 801 -388 c 0
 750.419625181 -421.176374881 689.48624989 -438.97114906 628.174324495 -438.97114906 c 0
 576.754600863 -438.97114906 525.068625197 -426.455250113 479 -400 c 0
 381.49774454 -343.782483338 308.686185795 -239.726741789 308.686185795 -91.8993270747 c 0
 308.686185795 31.4259732148 368.381825836 144.628219762 368.381825836 264.942651831 c 0
 368.381825836 360.02054459 323.167881191 449.918889608 226 459 c 0
 224 459 222 459 220 459 c 0
 204.224627018 456.424428901 191.247789898 455.403599947 180.702423319 455.403599947 c 0
 142.162117147 455.403599947 125 476.165356667 125 498 c 0
 125 508 129 520 140 534 c 0
 145 541 166 550 212 551 c 0
 214 551 217 551 219 552 c 0
 300.527689045 576.31527568 336.536602836 644.614985877 336.536602836 743.365866197 c 0
 336.536602836 856.885770437 284.96540133 982.396713258 284.96540133 1096.5584816 c 0
 284.96540133 1222.34231465 333.696519717 1310.27148399 427 1367 c 0
 473.136363636 1394.84090909 523.069214876 1408.76136364 578.8118426 1408.76136364 c 0
 680.563998012 1408.76136364 745.681824051 1374.94919084 805 1304 c 0
 813 1295 816 1285 816 1272 c 0
 816 1249 796 1229 769 1229 c 0
 756 1229 746 1233 736 1246 c 0
 697.793359641 1290.57441375 639.312450287 1318.92941231 578.115137231 1318.92941231 c 0
 543.207722187 1318.92941231 507.416484782 1309.70369166 474 1289 c 0
 399.110682135 1243.51167359 375.920287084 1176.78986103 375.920287084 1100.10140562 c 0
 375.920287084 990.594457861 428.851134391 842.816206221 428.851134391 731.860523081 c 0
 428.851134391 654.602182171 408.765910406 590.600759016 358 535 c 0
 349 525 347 509 360 499 c 0
 423.405461803 446.91694209 456.613448113 372.613100327 456.613448113 271.357671999 c 0
 456.613448113 174.710308114 443.721991869 146.032365851 418 38 c 0
 406.968086998 -8.60983243296 401.336749258 -51.948893933 401.336749258 -91.6185947633 c 0
EndSplineSet
EndChar

StartChar: bar
Encoding: 124 124 37
Width: 350
GlyphClass: 2
Flags: HW
LayerCount: 2
Fore
SplineSet
225 -295 m 2
 225 -319 199 -345 186 -345 c 0
 138 -345 125 -330 125 -294 c 2
 125 1211 l 2
 125 1239 147 1261 174 1261 c 2
 175 1261 l 2
 202 1261 225 1238 225 1210 c 2
 225 -295 l 2
EndSplineSet
EndChar

StartChar: asciitilde
Encoding: 126 126 39
Width: 910
GlyphClass: 2
Flags: HW
LayerCount: 2
Fore
SplineSet
882 933 m 2
 882 780.333333333 823.666666667 704 707 704 c 0
 651 704 595.333333333 723.666666667 540 763 c 2
 395 866 l 2
 363.666666667 888 333.333333333 899 304 899 c 0
 240.666666667 899 204.666666667 849.666666667 196 751 c 1
 123 751 l 1
 133.666666667 918.333333333 194.666666667 1002 306 1002 c 0
 338.666666667 1002 369 993 397 975 c 2
 609 839 l 2
 642.333333333 817.666666667 674.333333333 807 705 807 c 0
 771.666666667 807 806 854.666666667 808 950 c 1
 882 950 l 1
 882 933 l 2
EndSplineSet
EndChar

StartChar: anuswara
Encoding: 3330 3330 41
Width: 793
GlyphClass: 2
Flags: HW
LayerCount: 2
Fore
SplineSet
613.5 507.5 m 128
 721.672651409 415.878355364 776.064679478 260.449964219 675 123.5 c 128
 629 61.1666666667 556.333333333 23 457 9 c 0
 273.876005448 -16.5834992388 136.181099742 102.875055607 106 250.5 c 128
 90.6666666667 325.5 105.833333333 394.333333333 151.5 457 c 128
 197.166666667 519.666666667 270.333333333 556.666666667 371 568 c 128
 471.666666667 579.333333333 552.5 559.166666667 613.5 507.5 c 128
452.5 73.5 m 128
 577.938261737 91.114734627 685.060226425 178.339436423 660 314.5 c 128
 650 368.833333333 621.833333333 416.333333333 575.5 457 c 128
 529.166666667 497.666666667 464.166666667 513.333333333 380.5 504 c 128
 244.468333568 488.825152749 140.279436088 405.300534682 170 260 c 0
 194.824292759 141.395045706 302.538013527 52.4415082824 452.5 73.5 c 128
EndSplineSet
EndChar

StartChar: ml_a
Encoding: 3333 3333 43
Width: 2791
GlyphClass: 2
Flags: HW
LayerCount: 2
Fore
SplineSet
472 21 m 128
 472 0.179831136269 459.455235718 -18 441 -18 c 128
 433.666666667 -18 427.666666667 -17 423 -15 c 0
 262.554286824 52.1368587046 110.212893422 222.316344716 101 425 c 0
 92.3333333333 594.333333333 142.5 735.666666667 251.5 849 c 128
 360.5 962.333333333 498.333333333 1025 665 1037 c 0
 751.666666667 1043 835.333333333 1028.66666667 916 994 c 1
 1022 1034.66666667 1129.66666667 1044.33333333 1239 1023 c 0
 1417.96900791 988.711545214 1544.87405306 882.489333997 1607 719 c 1
 1671.46176255 901.641660549 1849.22761079 1041.9298635 2108 1020 c 0
 2355.56266756 999.707978074 2555.50157202 853.878136903 2644.5 651 c 128
 2675.5 580.333333333 2691 512 2691 446 c 0
 2692.03749964 243.687571472 2598.57463152 89.5020726329 2454.5 17 c 128
 2349.3420735 -35.9181823626 2225.93208415 -32.6420463897 2125 23 c 128
 1984.33020272 100.5487344 1890.6267477 282.462123939 1962.5 489.5 c 128
 2002.00016878 603.284068304 2139.19892156 725.628538415 2282 730 c 0
 2408 734 2509.33333333 693.333333333 2586 608 c 1
 2516.82996526 781.441281133 2341.90463203 932.777527145 2122 949 c 0
 1958.66666667 962.333333333 1833.33333333 919.666666667 1746 821 c 0
 1662.0700964 725.267453719 1638.68373292 604.804278604 1644 440 c 1
 1644 29 l 2
 1644 10.5156996612 1627.48365851 -6 1609 -6 c 128
 1590.51569966 -6 1574 9.49019746371 1574 28 c 2
 1572 439 l 2
 1570.68431315 604.776541923 1565.36014666 675.884216306 1501 776 c 0
 1413.7147806 912.203309381 1228.53044882 1002.88467164 1001 947 c 1
 1077.63551927 894.031332269 1178.79454679 785.05517071 1170 659 c 0
 1166 594.333333333 1140 541.666666667 1092 501 c 1
 1164 470.333333333 1210.66666667 417.333333333 1232 342 c 0
 1285.07357188 157.04664346 1124.25478526 -4.40423374793 941 3 c 0
 811.666666667 7.66666666667 708.666666667 63 632 169 c 0
 516.154215471 328.00401798 519.173242665 558.19765071 615 731 c 0
 666.333333333 824.333333333 737 897.666666667 827 951 c 1
 706.333333333 983 586 971.666666667 466 917 c 0
 338.666666667 859 250.333333333 766.333333333 201 639 c 0
 142.172685718 485.395346042 166.557649413 329.418077149 252 208 c 128
 302.666666667 136 368.666666667 83 450 49 c 0
 464.666666667 43 472 33.6666666667 472 21 c 128
914 917 m 1
 811.333333333 871 732.333333333 798 677 698 c 0
 603 564 591.666666667 430 643 296 c 0
 688.489404871 176.953259591 787.373631204 78.8519631387 940.5 73 c 128
 1053.38290459 68.6860036462 1149.47961915 144.278190976 1169 237 c 0
 1195.6417688 361.328254388 1092.81614151 456.29234417 983 451 c 0
 952.981576057 447.247697008 923 449.172570824 923 482 c 0
 923 520.353429769 953.23413992 518.685120988 992 524.5 c 128
 1012 527.5 1034.5 541.333333333 1059.5 566 c 128
 1123.09397753 628.74605783 1107.48864087 720.991555194 1053.5 798.5 c 128
 1019.83333333 846.833333333 973.333333333 886.333333333 914 917 c 1
2494.5 597.5 m 128
 2381.05730366 679.947424116 2240.54503905 682.622891378 2132 600.5 c 128
 2081.33333333 562.166666667 2046.66666667 516.666666667 2028 464 c 0
 1991.33333333 358.666666667 2000.66666667 264 2056 180 c 0
 2101.80790386 111.288144213 2184.78524776 50.2605377859 2290.5 49.5 c 128
 2336.83333333 49.1666666667 2381.33333333 59.6666666667 2424 81 c 0
 2501.33333333 119 2557 180.333333333 2591 265 c 0
 2591 266 2591 266 2591 267 c 0
 2639.65980106 402.841944639 2579.69658792 535.581168344 2494.5 597.5 c 128
EndSplineSet
EndChar

StartChar: ml_aa
Encoding: 3334 3334 44
Width: 3023
GlyphClass: 2
Flags: HW
LayerCount: 2
Fore
SplineSet
471 14 m 128
 471 -6.71398407092 458.399012836 -26 440 -26 c 128
 432.666666667 -26 426.666666667 -25 422 -23 c 0
 262.587258846 43.0424213357 110.203467337 214.057629816 101 415 c 0
 92.3333333333 583.666666667 142.333333333 724.5 251 837.5 c 128
 359.666666667 950.5 497 1013 663 1025 c 0
 749 1031 832.333333333 1016.66666667 913 982 c 1
 1018.33333333 1022 1125.66666667 1031.33333333 1235 1010 c 0
 1410.8774031 976.145664193 1543.21270895 871.730657987 1601 708 c 1
 1666.0267325 890.074851006 1841.99218062 1029.94981521 2101 1008 c 0
 2346.3090874 987.809951655 2548.82231211 844.996331475 2635 642 c 1
 2699 607.333333333 2757.83333333 557.166666667 2811.5 491.5 c 128
 2911.26554142 369.426635664 2959.12619272 158.459109706 2888 -34 c 0
 2822.04270244 -212.592067253 2679.95569219 -338.925266511 2471 -386.5 c 128
 2279.31397487 -430.142800363 2087.17578 -338.116990997 1986 -242 c 0
 1978.66666667 -235.333333333 1975 -227 1975 -217 c 128
 1975 -197.65748666 1990.97826681 -182 2010 -182 c 128
 2019.33333333 -182 2027.66666667 -185.333333333 2035 -192 c 0
 2113.66666667 -267.333333333 2208.66666667 -310.666666667 2320 -322 c 0
 2459.33333333 -336.666666667 2582 -297.333333333 2688 -204 c 0
 2793.97453198 -110.42674304 2878.38165329 41.1680967743 2846 237 c 0
 2826 359.666666667 2767 459.333333333 2669 536 c 1
 2723.01528162 286.832733219 2603.0455454 90.5392614094 2445 11 c 0
 2335.66666667 -44.3333333333 2227.33333333 -44.3333333333 2120 11 c 0
 1980.1286094 82.7289182571 1880.03790291 257.743029101 1956 458.5 c 128
 2025.30785856 641.670769067 2278.15598837 761.592036318 2534 684 c 1
 2447.32246439 821.071451668 2297.98559296 920.686949175 2096 938 c 0
 1827.94984918 959.255078039 1640.8213043 788.271301176 1638.5 519 c 128
 1638.16666667 480.333333333 1638 451 1638 431 c 2
 1638 21 l 2
 1638 3.58241894835 1622.84746705 -13 1606 -13 c 128
 1582.38915981 -13 1568.99109728 1.1780545833 1568 21 c 2
 1567 429 l 2
 1565.68367122 594.857425098 1560.39316023 664.832861861 1496 765 c 0
 1409.12888291 899.602500104 1223.94651784 990.986747786 998 935 c 1
 1074.19728937 881.548170147 1174.72594496 774.52620189 1166 648 c 0
 1162 584 1136.33333333 531.666666667 1089 491 c 1
 1160.33333333 460.333333333 1206.66666667 407.666666667 1228 333 c 0
 1262.63151431 213.363859669 1199.54640989 103.497495266 1120 48 c 0
 1064.66666667 10 1004 -7.66666666667 938 -5 c 0
 809.333333333 -0.333333333333 706.666666667 55 630 161 c 0
 515.264700484 320.039029032 518.690696877 548.099610941 613 721 c 0
 664.333333333 813.666666667 734.666666667 886.333333333 824 939 c 1
 704 971 584.333333333 959.666666667 465 905 c 0
 338.333333333 847 250.333333333 755 201 629 c 0
 142.25335902 475.605992997 166.444186796 320.516446307 252 199.5 c 128
 302.666666667 127.833333333 368.333333333 75.3333333333 449 42 c 0
 463.666666667 36 471 26.6666666667 471 14 c 128
911 905 m 1
 808.333333333 859.666666667 729.666666667 787 675 687 c 0
 611.666666667 572.333333333 595.333333333 454.666666667 626 334 c 0
 652.666666667 230 708.666666667 153.666666667 794 105 c 0
 880.655667002 55.6729280138 996.045800028 48.2814875238 1080 106 c 0
 1141.11215509 147.627120136 1187.96145459 217.93413798 1160.5 313.5 c 128
 1138.27456824 390.844502568 1065.82151041 445.186415142 980 441 c 0
 951.920458443 435.735085958 920 441.194650589 920 469.5 c 128
 920 503.683493888 939.148342008 508.15594768 978.5 513.5 c 128
 1040.99952636 521.98759 1092.3884186 581.253641092 1096.5 653.5 c 128
 1098.83333333 694.5 1083.16666667 739 1049.5 787 c 128
 1015.83333333 835 969.666666667 874.333333333 911 905 c 1
2580 591 m 1
 2359.94421321 696.101271305 2085.53958393 605.211757498 2020 432 c 0
 1918.49503371 166.662456544 2210.04791265 -71.4866528025 2455 99 c 0
 2580.80286001 186.399881696 2658.27262988 384.882074647 2580 591 c 1
EndSplineSet
EndChar

StartChar: ml_i
Encoding: 3335 3335 45
Width: 2030
GlyphClass: 2
Flags: HW
LayerCount: 2
Fore
SplineSet
1060 179 m 4
 1041.51569966 179 1025 194.490197464 1025 213 c 6
 1023 509 l 6
 1021.71777848 657.737695508 1018.34616707 709.431711921 959 794 c 4
 905 868.666666667 823.666666667 914.333333333 715 931 c 4
 479.520510933 966.32192336 285.725110454 836.01507663 214 666 c 5
 269.648815517 719.548860215 358.663952626 762.048006768 460.5 747.5 c 132
 584.167312436 729.83324108 673.527162876 649.410280196 706.5 540.5 c 132
 767.44969706 339.181303651 612.333166904 150.370381751 413 164 c 4
 205.839250926 177.279535196 69.8122034331 393.833742025 125 616 c 4
 166.486835421 797.03346365 304.860074503 928.892087145 469 981 c 4
 551 1007 629.333333333 1014.33333333 704 1003 c 4
 880.666666667 976.333333333 998 896 1056 762 c 5
 1096.66666667 867.333333333 1167.66666667 940.333333333 1269 981 c 4
 1461.97683627 1057.41364657 1673.86522454 971.751702808 1772 871 c 4
 1913.67794955 725.359030876 1981.4620199 512.044479757 1884.5 297 c 132
 1823.96375705 162.741401792 1689.84123958 53.0640964557 1536 22 c 132
 1466.66666667 8 1382 1 1282 1 c 6
 566 -3 l 6
 504.604574294 -3 440.856170876 -1.42868577916 385 -8 c 4
 309.666666667 -16 255.333333333 -34.3333333333 222 -63 c 132
 137.886762179 -135.337384526 159.131309239 -234.025927712 263 -279 c 4
 301.666666667 -295.666666667 364.666666667 -304.333333333 452 -305 c 6
 1895 -306 l 6
 1913.75378988 -306 1930 -321.574603429 1930 -340.5 c 132
 1930 -359.932461144 1914.60611066 -376 1895 -376 c 6
 452 -375 l 6
 283.643707627 -375 201.187903037 -350.90997701 136 -266.5 c 132
 76.4469102184 -189.386383744 93.2095206209 -81.4629567519 162 -22 c 4
 255.305211892 59.0012279055 392.026220661 67 566 67 c 6
 1282 71 l 6
 1476.10434824 72.3573730647 1580.98535998 85.8934088525 1694.5 169.5 c 132
 1785.95275495 236.85741831 1868.57523751 366.583818611 1859 515 c 4
 1848.33333333 677 1779.33333333 797.333333333 1652 876 c 4
 1493.05566182 974.47638344 1279.78724543 959.178410207 1170 823 c 4
 1100.3047901 736.236575434 1095 669.223926594 1095 512 c 6
 1095 213 l 6
 1095 189.666666667 1083.33333333 178.333333333 1060 179 c 4
447.5 678.5 m 132
 312.973122334 697.319822264 194.502898791 582.899287771 192 454 c 4
 192 384.626201291 258.743678271 304.170881153 307 272 c 132
 412.837888382 201.441407744 546.038741325 233.48612997 611 330 c 4
 664.897126518 410.029066649 664.193322786 514.758346516 600 595 c 4
 562.666666667 641.666666667 511.833333333 669.5 447.5 678.5 c 132
EndSplineSet
EndChar

StartChar: ml_u
Encoding: 3337 3337 47
Width: 1304
GlyphClass: 2
Flags: HW
LayerCount: 2
Fore
SplineSet
1204 -325.5 m 132
 1204 -340.631481234 1189.86277517 -360 1176.5 -360 c 6
 1169 -360 l 5
 478 -359 l 6
 473 -359 473 -359 403 -359 c 4
 250.957034801 -359 124.489451058 -301.112453984 102.5 -173 c 132
 86.2718161732 -78.4531898782 168.835046234 8.89671591087 233.5 35 c 132
 292.781261553 58.9300505354 347.224813713 71.4256517699 418.5 70.5 c 132
 444.166666667 70.1666666667 471.333333333 70 500 70 c 6
 605 68 l 6
 777.274414269 63.9305256472 869.107164125 77.5357302738 967.5 151.5 c 132
 1045.2628122 209.956182969 1115.23760008 326.464718681 1107 452.5 c 132
 1097.88983 591.8856011 1049.86303851 691.136961486 977 764 c 4
 887 853.333333333 782.333333333 905.333333333 663 920 c 4
 472.974304777 943.993143337 306.11648986 861.573577601 227 729 c 5
 285.666666667 768.333333333 350 781.333333333 420 768 c 4
 502 752 562.666666667 706.666666667 602 632 c 4
 640.666666667 560.666666667 646.333333333 487 619 411 c 4
 591.666666667 335.666666667 541 284.333333333 467 257 c 4
 395.666666667 231 326.666666667 236.666666667 260 274 c 4
 182.666666667 317.333333333 134.333333333 386.666666667 115 482 c 4
 113 486.666666667 112 490.5 112 493.5 c 132
 112 496.5 111.666666667 500 111 504 c 4
 85.3540347151 674.470239834 181.027476049 816.676016313 279 891 c 4
 389.666666667 975.666666667 520.666666667 1008.66666667 672 990 c 4
 935.46020829 957.55416154 1158.84118627 749.006697833 1175 477 c 4
 1185.53323155 306.963547914 1111.44032061 172.934578027 1010.5 96.5 c 132
 898.344771711 11.573208637 795.123999438 -6.27889550983 604 -2 c 6
 499 0 l 6
 392.333333333 1.33333333333 319.833333333 -5.66666666667 281.5 -21 c 132
 225.572551894 -43.3709792425 159.803757895 -92.5648676756 172 -164 c 4
 186 -244 264.666666667 -285.333333333 408 -288 c 4
 422.666666667 -288 446 -288.333333333 478 -289 c 6
 1169 -290 l 6
 1187.74996454 -290 1204 -306.606008228 1204 -325.5 c 132
182 507 m 5
 197.837379002 411.975725989 263.113155181 323.619667875 364 313 c 4
 477.927759086 300.937060803 571.487105404 401.826944873 565 516 c 4
 561 578 534.166666667 627.5 484.5 664.5 c 132
 351.657055118 763.46353612 174.811750789 660.349316495 182 507 c 5
EndSplineSet
EndChar

StartChar: ml_r
Encoding: 3339 3339 49
Width: 1672
GlyphClass: 2
Flags: HW
LayerCount: 2
Fore
SplineSet
100.324196181 704.465490167 m 0
 100.324196181 870.538982937 210.900049337 1032 389 1032 c 2
 393 1032 l 2
 528.448551622 1032 637.776935359 915.60154054 637.776935359 783.192341691 c 0
 637.776935359 745.321708426 628.833554068 706.14134989 609 668 c 0
 570.666256599 592.341770617 489.619734606 527.129329587 382.199571358 527.129329587 c 0
 293.083849197 527.129329587 223.196926677 569.172817578 179 625 c 1
 208.970703125 489.25 301.861328125 391.833007812 414 330 c 0
 506.666992188 278.666992188 619 249.666992188 751 243 c 0
 763.213867188 243 812.171875 242 825 242 c 0
 1145.17773438 242 1393.5 355.000976562 1479 583 c 1
 1435.00612752 544.181953168 1372.67207287 517.708891568 1305.45291856 517.708891568 c 0
 1270.98177926 517.708891568 1235.22594916 524.670816824 1200 540.5 c 128
 1118.13982236 577.285217275 1046.18106944 662.591319037 1046.18106944 775.093251762 c 0
 1046.18106944 898.681220371 1127.03689467 988.862486505 1224 1019 c 0
 1250.45386341 1027.11249881 1275.75728287 1030.7272066 1299.72204602 1030.7272066 c 0
 1388.93737848 1030.7272066 1459.60023821 980.63087681 1502 926 c 0
 1547.02869456 867.266798572 1571.49255672 789.765657656 1571.49255672 707.653094103 c 0
 1571.49255672 646.375721765 1557.8685118 582.530225525 1529 522 c 0
 1464.48730469 384.762695312 1335.63964844 282.931640625 1180 228 c 1
 1367.14989307 195.452449912 1547.18795388 79.48660286 1547.18795388 -123.955480553 c 0
 1547.18795388 -313.011489639 1378.0396051 -434.440466883 1208 -471.5 c 128
 1150.77441406 -483.97265625 1134.29589844 -488.268554688 1066 -491 c 128
 1021.50086077 -492.780073616 978.532435418 -493.054649505 928.977485438 -493.054649505 c 0
 906.869510788 -493.054649505 883.450604178 -493 858 -493 c 0
 823.340161675 -493 785.405660157 -493.504650352 747.321568891 -493.504650352 c 0
 680.781825843 -493.504650352 613.785439721 -491.964136439 563 -483.5 c 128
 374.286132812 -452.047851562 227.491210938 -370.923828125 172 -210 c 128
 159.872023269 -174.828947212 154.357149042 -141.265374293 154.357149042 -109.493485725 c 0
 154.357149042 63.124730199 319.292636585 192.194837508 481 223 c 1
 356.706054688 267.55859375 252.237304688 344.2890625 185 441 c 0
 131.442654866 517.699820107 100.324196181 612.131409124 100.324196181 704.465490167 c 0
566.378077384 781.353892128 m 0
 566.378077384 880.721981132 490.025938199 962 392 962 c 2
 386 962 l 2
 293.709960938 962 231.77734375 899.553710938 199 834 c 1
 199 817.87000189 192.517196496 800.290128436 192.517196496 783.980424015 c 0
 192.517196496 682.528969637 275.647949591 595.959107712 376.902521847 595.959107712 c 0
 480.265379802 595.959107712 566.378077384 677.004625133 566.378077384 781.353892128 c 0
1304.81416034 587.088896708 m 0
 1411.42294696 587.088896708 1489.21408644 666.90034793 1497 765 c 1
 1497 766.5 l 130
 1497 767.259765625 1496 770.065429688 1496 771 c 0
 1476.45214844 868.740234375 1410.54882812 960 1298.5 960 c 128
 1192.98645473 960 1115.88944138 875.163519236 1115.88944138 777.805261995 c 0
 1115.88944138 672.846137277 1198.52858888 587.088896708 1304.81416034 587.088896708 c 0
699 173 m 2
 513.068359375 173 392.017578125 143.58203125 303 56 c 0
 256.154468042 9.83359541082 226.220850066 -50.4118087891 226.220850066 -115.930190754 c 0
 226.220850066 -149.147292176 233.914923901 -183.719748648 251 -218.5 c 128
 303.686523438 -325.754882812 417.237304688 -391.869140625 558 -410.5 c 128
 644.657226562 -421.969726562 755.413085938 -423 858 -423 c 0
 892.925856166 -423 933.006743047 -423.776541954 972.361882251 -423.776541954 c 0
 1084.14545181 -423.776541954 1176.44630217 -413.22939552 1258 -385 c 0
 1367.9811072 -345.007305242 1477.1336095 -254.508185923 1477.1336095 -122.993021968 c 0
 1477.1336095 64.7615159641 1279.90938086 157.451691368 1091 167.5 c 128
 1029.23060726 170.785435019 952.127230567 171.005245569 881.946749556 171.005245569 c 0
 871.105274631 171.005245569 860.429008001 171 850 171 c 0
 842.666992188 171 834 171.333007812 824 172 c 0
 800 172 776.666992188 172.333007812 754 173 c 2
 699 173 l 2
EndSplineSet
EndChar

StartChar: ml_l
Encoding: 3340 3340 50
Width: 2176
GlyphClass: 2
Flags: HW
LayerCount: 2
Fore
SplineSet
1076 1 m 0
 1057.51569966 1 1041 17.5163414854 1041 36 c 2
 1042 525 l 1
 1038.68970914 645.825616707 1019.45739697 727.102969293 959 805 c 0
 887.666666667 897 787 942.666666667 657 942 c 0
 528.333333333 940.666666667 417 894.666666667 323 804 c 0
 227 710.666666667 176.333333333 599.666666667 171 471 c 0
 171 468 171 468 171 467 c 1
 224.083693775 580.574414586 358.936377168 685.275791803 532.5 656 c 128
 668.774820221 633.013885746 781.806878973 525.897760478 807.5 385 c 128
 831.803885145 251.720629847 773.951845953 143.149709881 702 79.5 c 128
 623.111241559 9.71379060969 496.266854742 -29.9384773479 365 20 c 0
 283 51.3333333333 218.333333333 105.666666667 171 183 c 0
 170.333333333 184.333333333 169.333333333 185.333333333 168 186 c 0
 116 272 93.6666666667 370 101 480 c 0
 111 628 168.666666667 752.666666667 274 854 c 0
 381.333333333 957.333333333 508.666666667 1010 656 1012 c 0
 880.612281168 1014.07974335 1026.81850511 888.497509574 1084 716 c 1
 1121.33333333 802 1178.66666667 871.666666667 1256 925 c 0
 1391.33333333 1018.33333333 1537.33333333 1040 1694 990 c 0
 1910.67331688 921.38678299 2064.64777904 716.428660406 2076 477 c 0
 2086.39717024 261.778576041 1978.36359394 85.8141690257 1812 20 c 128
 1610.7406401 -59.6190874272 1432.28934183 65.7954989602 1381 216 c 128
 1305.61478622 436.770983173 1466.19955746 621.866592909 1644 651.5 c 128
 1818.97485561 680.662475936 1955.15726045 572.153220359 2007 454 c 1
 2005.5576112 606.893212252 1935.83183 735.574988525 1854 815 c 128
 1778.54113382 888.23948777 1653.7611217 953.422098092 1514 944 c 0
 1390.66666667 935.333333333 1289.66666667 884.333333333 1211 791 c 0
 1145 712.333333333 1112 624.666666667 1112 528 c 2
 1111 36 l 2
 1110.33333333 13.3333333333 1098.66666667 1.66666666667 1076 1 c 0
738 373 m 128
 708.574118664 537.294504128 510.092628279 657.89196083 337 552 c 128
 245.086313369 495.770450532 169.831427373 364.08789761 230 220 c 1
 269.333333333 156 318 113 376 91 c 128
 545.564255429 26.6825238027 684.481182169 113.910738635 728 241.5 c 128
 742.666666667 284.5 746 328.333333333 738 373 c 128
1942 216 m 1
 2003.14244802 358.665712044 1929.72025472 491.294755995 1837.5 547.5 c 128
 1664.80041449 652.754776972 1467.8681448 533.773256221 1437.5 371 c 128
 1417.95402723 266.233585918 1464.60640822 178.759051571 1521 129 c 128
 1584.26302444 73.1796843145 1684.67167454 45.3490213961 1787 86 c 0
 1851 111.333333333 1902.66666667 154.333333333 1942 215 c 1
 1942 216 l 1
EndSplineSet
EndChar

StartChar: ml_e
Encoding: 3342 3342 51
Width: 2469
GlyphClass: 2
Flags: HW
LayerCount: 2
Fore
SplineSet
376 35 m 132
 376 13.9447641689 363.084715404 -5 345 -5 c 132
 338.333333333 -5 333 -4.33333333333 329 -3 c 4
 195.644841026 44.5440131991 77.3813779873 188.408384941 103.5 369 c 132
 126.127090075 525.450165659 257.442072711 653.354781744 424.5 663.5 c 132
 602.420826725 674.304908506 743.023762339 547.03837503 778 400.5 c 132
 809.481813515 268.602057169 754.209294319 141.836144578 680 71 c 5
 1036 68 l 5
 1015.33333333 306.666666667 1066 514.666666667 1188 692 c 4
 1251.33333333 784 1333.66666667 857.333333333 1435 912 c 4
 1721.63965461 1065.31888503 2020.76151263 953.127807094 2183 769 c 4
 2289 649.666666667 2349.5 510.833333333 2364.5 352.5 c 132
 2397.90776648 -0.137535050223 2243.18728498 -265.443448132 2040 -424 c 4
 2014.93794361 -444.0496451 1983 -422.186708673 1983 -395 c 132
 1983 -384.333333333 1987.66666667 -375.333333333 1997 -368 c 4
 2103 -285.333333333 2182.66666667 -182.333333333 2236 -59 c 4
 2311.33333333 115 2322.33333333 291.333333333 2269 470 c 4
 2240.33333333 567.333333333 2198 647.333333333 2142 710 c 4
 1973.59716239 899.579242348 1721.02020598 985.780913432 1467 849.5 c 132
 1375.66666667 800.5 1301.33333333 734 1244 650 c 4
 1131.33333333 486 1085.33333333 292 1106 68 c 5
 1746 62 l 5
 1746.66666667 68.6666666667 1749 74.6666666667 1753 80 c 5
 1758 631 l 5
 1758 632 l 6
 1758 656.970395484 1792.59031239 681.409687607 1814.5 659.5 c 132
 1823.5 650.5 1828 643.5 1828 638.5 c 6
 1828 631 l 5
 1823 26 l 6
 1823 19.3333333333 1821.33333333 13.3333333333 1818 8 c 5
 1816.07455611 -155.662729994 1741.56949244 -286.12081005 1646 -361 c 4
 1526.69661524 -453.433253057 1370.80865691 -459.154507592 1251 -377 c 4
 1139.66666667 -300.333333333 1070.66666667 -175.333333333 1044 -2 c 5
 567 3 l 6
 549.629717066 3 532 18.1683428733 532 35 c 4
 532 51.6666666667 539 63.3333333333 553 70 c 4
 654.642654771 114.678090009 745.407141603 234.674228889 710 384 c 132
 682.241043707 501.070380893 570.440392347 602.64611527 428.5 594 c 132
 237.204384712 582.347475211 96.429544611 366.458079702 209.5 179.5 c 132
 243.166666667 123.833333333 290.666666667 85 352 63 c 4
 368 57.6666666667 376 48.3333333333 376 35 c 132
1115 -3 m 5
 1139.66666667 -151 1197 -255.666666667 1287 -317 c 4
 1393.61668821 -390.424700369 1517.43221864 -370.194500081 1603 -305 c 4
 1682.64023234 -243.057597067 1738.97834492 -140.357308593 1747 -8 c 5
 1115 -3 l 5
EndSplineSet
EndChar

StartChar: ml_ee
Encoding: 3343 3343 52
Width: 2494
GlyphClass: 2
Flags: HW
LayerCount: 2
Fore
SplineSet
367 41.5 m 132
 367 20.5271028048 353.81082282 2 335.5 2 c 132
 328.5 2 323 3 319 5 c 4
 190.969397287 55.750869544 78.4915537017 196.691124332 104 374.5 c 132
 126.493621458 531.293773107 253.794279035 654.27124362 418 669.5 c 132
 672.023859841 693.058664422 885.268524654 420.110196843 751 165 c 4
 732.333333333 129.666666667 708 98.3333333333 678 71 c 5
 1032 70 l 5
 1014 309.333333333 1070.66666667 518.666666667 1202 698 c 4
 1319.92943814 858.384035861 1523.97278131 998.348818195 1790 991 c 132
 1981.25840955 985.716618521 2143.79643864 881.105238811 2222.5 740.5 c 132
 2274.80255808 647.060598504 2291.17112501 546.764712465 2257 434 c 4
 2235.66666667 366 2196.66666667 311.333333333 2140 270 c 5
 2289.03538532 224.97889402 2408.01259523 74.8415126283 2393 -103 c 4
 2383.66666667 -209 2336.33333333 -293 2251 -355 c 4
 2177.66666667 -408.333333333 2096 -429.666666667 2006 -419 c 4
 1962 -413.666666667 1929.16666667 -405.166666667 1907.5 -393.5 c 132
 1877.67663206 -377.441263421 1864 -373.815377742 1864 -346 c 132
 1864 -330.208418661 1880.20915217 -314 1896 -314 c 132
 1904 -314 1916.83333333 -318.833333333 1934.5 -328.5 c 132
 1974.07462961 -350.154042612 2058.8312341 -358.123879136 2117 -343 c 4
 2224.25178462 -315.420969669 2312.1233191 -225.707390674 2323 -97 c 132
 2334.30280833 36.7498985246 2259.96661958 134.162475042 2181 176.5 c 132
 2125.66666667 206.166666667 2069 218.666666667 2011 214 c 4
 1977.17608107 208.362680178 1941 205.530984053 1941 243 c 4
 1941 275.905706738 1968.50935577 280.969334735 2001 283 c 5
 2054.33333333 293.666666667 2096.33333333 315.666666667 2127 349 c 4
 2217.02026509 448.551822569 2226.99919688 587.801445608 2160.5 707.5 c 132
 2092.75712277 829.437179013 1951.89996631 916.826960092 1785.5 921 c 132
 1547.85640152 926.959714069 1363.83181132 798.990702223 1257 655 c 4
 1135.66666667 489.666666667 1084 294.666666667 1102 70 c 5
 1739 69 l 5
 1739 71 1739.66666667 73 1741 75 c 5
 1745 637 l 6
 1745 656.869738337 1760.13072011 672 1780 672 c 132
 1795.51771806 672 1815 658.090400285 1815 644.5 c 6
 1815 637 l 5
 1810 52 l 5
 1820.0578085 -120.659045834 1745.64709023 -270.382328898 1639 -352 c 4
 1519.39921746 -443.586184826 1365.73150484 -451.062581815 1245 -370 c 4
 1133 -294 1064.66666667 -170.666666667 1040 0 c 5
 557 1 l 6
 539.613382105 1 522 17.1725195465 522 34 c 4
 522 51.3333333333 529.666666667 63 545 69 c 4
 653.26708978 110.727940853 749.410132885 234.926878515 713.5 388.5 c 132
 685.654595419 507.583538739 568.342130125 613.234306306 423.5 600 c 132
 237.182545085 582.976070109 98.7810925722 376.327576057 207.5 187.5 c 132
 239.166666667 132.5 284.666666667 93.3333333333 344 70 c 4
 359.333333333 64 367 54.5 367 41.5 c 132
1111 0 m 5
 1134.33333333 -145.333333333 1191 -248.333333333 1281 -309 c 4
 1386.93429146 -380.955367782 1511.09346394 -361.197624835 1596 -297 c 4
 1675.27556107 -235.341230279 1732.87845418 -132.975119452 1741 -1 c 5
 1111 0 l 5
EndSplineSet
EndChar

StartChar: ml_n
Encoding: 3346 3346 54
Width: 1346
GlyphClass: 2
Flags: HW
LayerCount: 2
Fore
SplineSet
944 424 m 132
 930.129924616 424 915 443.213730974 915 458 c 4
 915 477.333333333 925.333333333 489.333333333 946 494 c 4
 1025.24815872 513.245981403 1104.35247984 605.59073421 1086 705 c 4
 1070.66666667 783.666666667 1021.33333333 846.333333333 938 893 c 4
 703.185422669 1023.2842171 448.021684556 916.991741548 311 762 c 4
 208.333333333 646 162 516.333333333 172 373 c 5
 217.299235543 462.465990198 330.991992335 543.688477581 470.5 509 c 132
 578.439000544 482.161113379 665.687098759 386.012839702 669.5 264 c 132
 673.206532786 145.390950872 599.04468919 53.4279914748 511.5 17 c 132
 394.857638304 -31.5357478196 282.035882522 15.4958162482 218 84.5 c 132
 128.811202158 180.608618364 74.0007856741 357.61447205 115 533 c 132
 170.002067646 768.286622707 364.893401999 955.820383864 596 1007.5 c 132
 728.666666667 1037.16666667 854 1019.33333333 972 954 c 4
 1074 897.333333333 1134 822 1152 728 c 4
 1170.97221967 630.293068667 1130.33107185 538.627619424 1070 485 c 5
 1134.66666667 463.666666667 1183 422.333333333 1215 361 c 4
 1286.4238939 224.006629736 1215.91430502 83.3869370504 1126 27 c 132
 1049.68282662 -20.8599222922 949.584495051 -27.0307021595 867 19 c 4
 835.630847759 35.5100801266 848.686282123 84 881 84 c 132
 889 84 901.666666667 79.3333333333 919 70 c 132
 966.715780325 44.3068875169 1046.56083533 59.3562953819 1088.5 86 c 132
 1149.89169748 125.001784283 1196.71174885 213.134030964 1164 304 c 4
 1136 382.666666667 1079.66666667 424 995 428 c 4
 972.300409382 429.134979532 961.592258769 424 944 424 c 132
570.5 153.5 m 132
 676.03471623 319.340268362 491.710675842 509.661517668 322 427.5 c 132
 252.744139995 393.971369363 191.343593783 307.138716985 221 201 c 4
 225.666666667 185 242.166666667 161.833333333 270.5 131.5 c 132
 317.057927508 81.6556305506 399.899012912 46.0412553802 485 81.5 c 132
 521 96.5 549.5 120.5 570.5 153.5 c 132
EndSplineSet
EndChar

StartChar: k1
Encoding: 3349 3349 57
Width: 1859
GlyphClass: 2
Flags: HW
LayerCount: 2
Fore
SplineSet
1401 34 m 4
 1401 53.0198236909 1416.66046463 69 1436 69 c 4
 1468.18919482 69 1497.33062643 68.065041679 1530.5 79 c 132
 1614.67515003 106.750049463 1684.436467 182.038740745 1689 287 c 4
 1695.85906025 428.753911815 1590.64690897 515.535582112 1466 536 c 4
 1440.66666667 540 1409 542.666666667 1371 544 c 5
 1371.66666667 537.333333333 1372 531.666666667 1372 527 c 4
 1384.67587901 309.397410371 1294.949466 130.106480273 1150 46 c 4
 1035.62679122 -21.0463637696 899.524093611 -18.711056835 788 49 c 4
 735.333333333 81 691 124.333333333 655 179 c 4
 655 179.666666667 653 183 649 189 c 5
 609.762385789 82.4979042838 505.173988248 -8.49796783176 358 3 c 4
 218.54366721 14.3072702263 96.9708971691 125.45754997 100 286 c 4
 104.359170759 413.86900892 192.372142386 510.282539449 289 558 c 4
 372.631856424 599.15218332 460.182484318 609.631263868 582 611 c 5
 609.561176513 762.586470824 687.017556329 884.420819309 802 949 c 4
 907.769580411 1008.49538898 1027.88627691 1010.72844217 1136 952 c 4
 1254.12790983 888.998448089 1333.41817503 766.055308786 1362 614 c 5
 1544.13314008 614 1662.33979399 554.546335681 1725 436 c 4
 1769.59051267 351.512712821 1769.89246108 252.095531673 1729.5 167.5 c 132
 1683.58363927 71.3355464195 1578.17871408 -15.2798735145 1433 -1 c 4
 1415.84009363 0.319992796921 1401 15.4741597446 1401 34 c 4
1103 891 m 4
 1015.59044936 937.353549582 921.050772746 936.029012998 837 888 c 4
 742.20578309 834.283277084 678.372543023 735.556120294 653 611 c 5
 1290 614 l 5
 1263.50472849 738.412579283 1199.49002359 838.800479045 1103 891 c 4
1301 544 m 5
 643 541 l 5
 642.333333333 535 642 529 642 523 c 4
 638 456.333333333 644.333333333 393.666666667 661 335 c 4
 663 331 664.333333333 326.666666667 665 322 c 4
 693.778508534 229.26925028 750.395808248 154.294887233 824 109 c 4
 870 81 918 67 968 67 c 4
 1085.52314995 65.4737253252 1176.05595559 137.213151748 1228 214 c 4
 1284.66666667 298 1309.33333333 401 1302 523 c 4
 1302 529.666666667 1301.66666667 536.666666667 1301 544 c 5
573 541 m 5
 393.143451283 537.749580445 285.936550251 504.315929081 214 409 c 4
 153.662728776 325.677101643 154.918313994 216.249693687 224 141 c 4
 277.954234631 82.2284229898 365.759131789 51.487405854 457.5 87 c 132
 537.385355376 117.923363371 605.816861214 195.106096052 596 308 c 5
 575.333333333 376 567.333333333 449 572 527 c 4
 572 529.666666667 572.333333333 534.333333333 573 541 c 5
EndSplineSet
EndChar

StartChar: k2
Encoding: 3350 3350 58
Width: 1740
GlyphClass: 2
Flags: HW
LayerCount: 2
Fore
SplineSet
1570 993 m 6
 1570 1012.57661129 1586.07063451 1029 1605.5 1029 c 132
 1620.69445392 1029 1640 1013.9306855 1640 1000.5 c 6
 1640 993 l 5
 1637 29 l 6
 1637 5.66666666667 1625.33333333 -6 1602 -6 c 6
 913 -5 l 6
 892.949154511 -5 878 11.0173905554 878 32 c 132
 878 43.3333333333 883.666666667 52.6666666667 895 60 c 4
 1042.20694441 148.324166643 1171.92814182 343.58645934 1109 583.5 c 132
 1082.33333333 685.166666667 1028 768.5 946 833.5 c 132
 864 898.5 776.833333333 932.333333333 684.5 935 c 132
 493.077405844 940.528450373 346.569673291 853.670961845 267 740 c 4
 183 621.333333333 153.666666667 491.666666667 179 351 c 5
 217.047789687 468.948148027 327.971718971 568.078097293 487 556 c 4
 634.105429435 543.208223527 758.731261286 416.413154613 756 258 c 132
 753.339738567 103.704836839 626.735210761 -22.5349973321 471.5 -24.5 c 132
 293.88601274 -26.7482783197 178.833227395 119.246428297 130 259.5 c 132
 64.9898219692 446.21527876 112.875720121 642.811147513 204 772 c 132
 295.382469453 901.554893401 459.839375716 1010.52523096 668 1006 c 4
 923.685374056 998.936868127 1120.36538459 816.78550309 1176.5 601.5 c 132
 1234.60104133 378.672929375 1138.8396607 175.098357526 1018 65 c 5
 1567 64 l 5
 1570 993 l 6
685.5 259.5 m 132
 688.182590468 417.772837598 524.283330783 538.885907908 366 465.5 c 132
 271.636747006 421.749764521 196.603624489 297.141844899 254 168 c 5
 313.333333333 85.3333333333 386 44.6666666667 472 46 c 4
 588.9271497 47.3287176103 683.524825682 142.964715209 685.5 259.5 c 132
EndSplineSet
EndChar

StartChar: k3
Encoding: 3351 3351 59
Width: 1949
GlyphClass: 2
Flags: HW
LayerCount: 2
Fore
SplineSet
512 1011 m 132
 525.932618532 1011 542 992.895985088 542 978 c 4
 542 958 532.666666667 946 514 942 c 4
 404.666666667 917.333333333 317.5 859.666666667 252.5 769 c 132
 115.471871188 577.863328015 161.288554696 325.95594836 315 186.5 c 132
 397.666666667 111.5 495 73.6666666667 607 73 c 4
 763.837042534 72.0494724694 890.801345117 160.806327033 920.5 300.5 c 132
 929.5 342.833333333 934 397.333333333 934 464 c 6
 934 564 l 6
 934 700.75265948 946.379624277 773.628798971 1005 857 c 4
 1063.66666667 941 1150.66666667 991.666666667 1266 1009 c 4
 1406.66666667 1030.33333333 1533.66666667 998.333333333 1647 913 c 4
 1784.66000317 809.330121072 1894.57009839 608.720363212 1831 374 c 4
 1780.40275823 185.410280703 1623.25979736 27.6685777087 1399 3 c 4
 1380.48046706 3 1359 13.2206641438 1359 33.5 c 132
 1359 55.5041089996 1372.12295535 70.5479196429 1391 72 c 4
 1580.28236112 94.0095768763 1717.88883973 224.612112232 1763.5 392.5 c 132
 1817.75572356 592.207237738 1724.79706505 767.809500392 1617 848 c 4
 1511 928 1397.33333333 958.666666667 1276 940 c 4
 1143.13700654 919.559539466 1040.17438591 838.80480042 1015 709.5 c 132
 1007.66666667 671.833333333 1004 623.333333333 1004 564 c 6
 1004 464 l 6
 1004 310.654401039 986.914481707 226.965440686 916 138 c 4
 842.666666667 46.6666666667 739.666666667 1.66666666667 607 3 c 4
 477.666666667 3.66666666667 364.833333333 47.5 268.5 134.5 c 132
 172.166666667 221.5 117 329.5 103 458.5 c 132
 89 587.5 119.833333333 704.666666667 195.5 810 c 132
 271.166666667 915.333333333 372.333333333 982 499 1010 c 4
 501.666666667 1010.66666667 506 1011 512 1011 c 132
EndSplineSet
EndChar

StartChar: k4
Encoding: 3352 3352 60
Width: 2423
GlyphClass: 2
Flags: HW
LayerCount: 2
Fore
SplineSet
360 368 m 132
 360 346.874823175 347.39727959 329 328.5 329 c 132
 320.833333333 329 315 330 311 332 c 4
 188.954157804 386.114665879 82.1945513099 521.027659306 102.5 694 c 132
 130.10093813 929.119102586 404.959771024 1100.61353599 640.5 951 c 132
 718.166666667 901.666666667 768.666666667 832.5 792 743.5 c 132
 829.509011733 600.429912387 767.667776306 464.952382942 684 390 c 5
 1074 393 l 5
 1074 505 l 6
 1074 677.761841911 1096.03027517 775.066255673 1179 871 c 4
 1265 969.666666667 1384 1016 1536 1010 c 4
 1679.33333333 1004 1788.66666667 953 1864 857 c 4
 1937.9152514 763.633366652 1955.25249046 671.012134455 1951 508 c 6
 1948 363 l 6
 1948 344.489647329 1931.48365851 329 1913 329 c 6
 1144 324 l 5
 1143 72 l 5
 2253 72 l 5
 2253 969 l 6
 2253 988.607790375 2269.06685951 1004 2288.5 1004 c 132
 2307.95333872 1004 2323 988.602326598 2323 969 c 6
 2322 37 l 6
 2322 17.9801763091 2306.33953538 2 2287 2 c 6
 1108 2 l 6
 1089.51569966 2 1073 18.5163414854 1073 37 c 6
 1074 323 l 5
 555 319 l 6
 536.753282831 319 520 334.639215546 520 352 c 4
 520 370 528 381.666666667 544 387 c 4
 661.786648953 427.383993927 767.033254813 561.819941518 724 725.5 c 132
 705.333333333 796.5 664.833333333 851.833333333 602.5 891.5 c 132
 477.347108997 971.142748821 328.110351559 934.627046127 246 846 c 132
 168.878879268 762.758155402 141.330748537 628.051069737 207.5 513.5 c 132
 238.5 459.833333333 282.333333333 420.666666667 339 396 c 4
 353 390 360 380.666666667 360 368 c 132
1869.5 685 m 132
 1839.18107081 839.963415857 1703.16408998 932.511823136 1530 940 c 4
 1346.23623636 947.656823484 1197.98354854 849.22395705 1161 691.5 c 132
 1149.66666667 643.166666667 1144 581 1144 505 c 6
 1144 394 l 5
 1879 399 l 5
 1881 509 l 6
 1882.33333333 580.333333333 1878.5 639 1869.5 685 c 132
EndSplineSet
EndChar

StartChar: ng
Encoding: 3353 3353 61
Width: 2108
GlyphClass: 2
Flags: HW
LayerCount: 2
Fore
SplineSet
1145.25878906 26.625 m 2
 1145.15855141 7.65695313202 1129.37586546 -8.1923828125 1110.35644531 -8.1923828125 c 128
 1091.29824214 -8.1923828125 1075.62015275 7.44894556846 1075.25976562 26.20703125 c 2
 1071.9765625 435.294921875 l 2
 1070.56254496 611.395607425 1055.52871281 705.976166779 977.065429688 806.220703125 c 128
 910.215443345 891.6292467 793.87670622 956.224500951 649.412109375 949.80859375 c 0
 519.927734375 944.057291667 409.949869792 896.179036458 319.478515625 806.173828125 c 0
 223.672526042 710.863932292 173.986328125 595.492838542 170.419921875 460.060546875 c 1
 221.345900761 577.762195605 355.787236622 685.458282565 529.2265625 658.607421875 c 128
 666.495704215 637.354788172 779.275457634 531.347354888 806.46484375 392.50390625 c 128
 832.900044157 257.513265166 774.01388057 146.394168149 701.309570312 82.44921875 c 128
 621.153148889 11.949982958 492.38991557 -26.2082377854 362.029296875 25.201171875 c 128
 193.784056495 91.5501674325 86.1563634538 273.757124193 101.654296875 486.98828125 c 0
 112.164713542 631.595052083 168.31640625 754.531901042 270.109375 855.798828125 c 0
 373.382161459 958.539062502 497.106770834 1013.11197917 641.283203125 1019.51757812 c 0
 718.668619792 1022.95507812 791.700520833 1010.10416666 860.37890625 980.96484375 c 0
 978.91927083 930.669270833 1060.77604166 841.513020833 1105.94921875 713.49609375 c 1
 1174.58462417 911.765376155 1354.00887495 1035.30744642 1591.50097656 1027.32421875 c 0
 1745.54720052 1022.140625 1860.53417969 968.468749997 1936.46191406 866.30859375 c 0
 2046.4797888 718.278671873 1994.65063536 536.15005643 1858.046875 467.802734375 c 1
 1917.1015625 441.506510417 1959.44270833 400.682291667 1985.0703125 345.330078125 c 0
 2021.47200521 266.702473958 2015.77539062 190.487304687 1967.98046875 116.684570312 c 0
 1915.27918498 35.3055530758 1807.63008122 -21.6424019233 1685.15136719 -1.744140625 c 0
 1637.58496094 5.98372395833 1594.03190104 23.6197916667 1554.4921875 51.1640625 c 0
 1544.22330729 58.103515625 1539.08886719 67.0872395833 1539.08886719 78.115234375 c 128
 1539.08886719 98.0551927066 1553.54910954 115.168945312 1572.4765625 115.168945312 c 128
 1581.06119791 115.168945312 1594.5859375 108.705078125 1613.05078125 95.77734375 c 128
 1631.515625 82.8502604167 1664.55436198 72.51953125 1712.16699219 64.78515625 c 128
 1759.7796224 57.0501302083 1806.62988281 68.1341145833 1852.71777344 98.037109375 c 0
 1954.71215052 164.215053043 1969.82846874 310.721714685 1862.5546875 385.44140625 c 0
 1810.13692274 421.951402259 1760.0092943 427.365603637 1670.05175781 427.958984375 c 2
 1605.77636719 428.3828125 l 2
 1585.55124619 428.590382696 1571.12988281 442.614533451 1571.12988281 466.759765625 c 128
 1571.12988281 482.54865722 1588.42324915 497.558110173 1604.41308594 498.345703125 c 2
 1679.28808594 501.76171875 l 2
 1804.78919412 507.48540578 1888.26308431 537.676779234 1918.13085938 636.853515625 c 128
 1927.33268229 667.406901042 1928.58658854 699.203125 1921.89257812 732.2421875 c 0
 1907.99088541 800.848307292 1869.74446614 854.823567709 1807.15332031 894.16796875 c 128
 1744.56282552 933.513020833 1674.91731771 954.476236979 1598.21679688 957.057617188 c 0
 1376.03265291 964.535573315 1202.66514365 846.871602262 1160.71289062 654.068359375 c 128
 1148.25325521 596.805989584 1142.28938802 523.598307292 1142.82128906 434.4453125 c 2
 1145.25878906 26.625 l 2
518.517578125 589.431640625 m 0
 371.049399689 612.25813918 259.907358035 518.080023471 219.82421875 389.888671875 c 128
 203.753255209 338.490885417 208.711588542 282.700520834 234.69921875 222.517578125 c 0
 236.1171875 219.329427083 237.037760417 216.00390625 237.4609375 212.541015625 c 0
 275.583984375 155.52734375 322.231770833 116.141601562 377.404296875 94.3837890625 c 128
 544.300878752 28.5657516047 686.377414049 119.68999024 729.005859375 246.08984375 c 128
 765.653990412 354.76462232 728.255010741 442.501662322 670.083984375 510.658203125 c 128
 633.821614584 553.143880208 583.299479167 579.401692708 518.517578125 589.431640625 c 0
EndSplineSet
EndChar

StartChar: ch1
Encoding: 3354 3354 62
Width: 1503
GlyphClass: 2
Flags: HW
LayerCount: 2
Fore
SplineSet
427 291 m 132
 427 276.045220722 410.248006895 259 395 259 c 4
 378.333333333 259 366.666666667 266 360 280 c 4
 321.186955048 365.13829215 324.133122092 477.989789933 366.5 553 c 132
 421.073419152 649.621791288 521.588188962 723 648 723 c 4
 739.333333333 722.333333333 817.333333333 688.333333333 882 621 c 4
 953.333333333 546.333333333 986 459.666666667 980 361 c 4
 972 236.333333333 920.666666667 139.666666667 826 71 c 5
 1333 73 l 5
 1333 967 l 6
 1333 1011.48804508 1403 1014.49841016 1403 968 c 6
 1403 38 l 6
 1403 19.5156996612 1386.48365851 3 1368 3 c 6
 36 -1 l 5
 28.5 -1 l 6
 15.0924247386 -1 0 18.3272667234 0 33.5 c 132
 0 52.3959231388 16.2493808801 69 35 69 c 6
 638 71 l 5
 781.50138265 86.6546962892 899.616689365 205.207502804 909 354 c 4
 917.186379354 486.005367093 840.758834702 594.408870816 733 636 c 132
 646.017721178 669.572107616 568.264724059 647.165452537 512 612 c 4
 421.173488172 552.036865978 367.726282079 428.581650581 424 309 c 4
 426 304.333333333 427 298.333333333 427 291 c 132
EndSplineSet
EndChar

StartChar: ch2
Encoding: 3355 3355 63
Width: 2525
GlyphClass: 2
Flags: HW
LayerCount: 2
Fore
SplineSet
0 36.5 m 132
 0 51.2739092251 15.058516047 72 28 72 c 132
 35 72 35 72 36 72 c 6
 636 69 l 6
 637 69 637 69 638 69 c 4
 782.368349379 84.607389122 900.587857542 204.750312465 910 354 c 4
 918.115149753 484.856789776 842.250518783 597.282419227 733.5 637 c 132
 602.257754303 684.931950603 482.681223458 615.561448612 434 529.5 c 132
 398.668855093 467.039583113 392.286568842 379.321086483 424 309 c 4
 434.006571899 285.651332234 418.570689374 259 395 259 c 4
 378.333333333 259 366.666666667 266 360 280 c 4
 317.56173524 373.090387213 325.766970414 482.161340318 373 564.5 c 132
 397.666666667 607.5 431 643 473 671 c 4
 553.666666667 724.333333333 641 737.333333333 735 710 c 4
 792.333333333 693.333333333 839.666666667 665.666666667 877 627 c 4
 952.333333333 549 987 460.333333333 981 361 c 4
 973 235 920.666666667 137.333333333 824 68 c 5
 1386 66 l 5
 1303.81025638 160.574499504 1237.51536439 305.017998669 1250 472 c 4
 1261.33333333 618 1320.33333333 741 1427 841 c 4
 1531 939.666666667 1653.16666667 992.833333333 1793.5 1000.5 c 132
 1933.83333333 1008.16666667 2059.83333333 973.833333333 2171.5 897.5 c 132
 2283.16666667 821.166666667 2359.33333333 718.333333333 2400 589 c 4
 2447.72458399 438.595250464 2426.89234628 292.739861414 2356.5 179.5 c 132
 2318.16666667 117.833333333 2266.33333333 70 2201 36 c 4
 1928.78100127 -104.913364052 1681.24509086 136.788768299 1665 357 c 4
 1653.66666667 514.333333333 1698.33333333 645 1799 749 c 4
 1868.33333333 820.333333333 1952.66666667 865.666666667 2052 885 c 5
 1910.66666667 948.333333333 1769 950 1627 890 c 4
 1509 840 1422.66666667 758 1368 644 c 4
 1304 512 1300.66666667 378.333333333 1358 243 c 4
 1389.33333333 169 1434.66666667 107 1494 57 c 4
 1521.96412727 35.489132878 1498.81465436 -5 1471 -5 c 6
 35 2 l 6
 15.3959756938 2 0 17.0459634394 0 36.5 c 132
2154 824 m 5
 2022.89525429 826.979653311 1915.84947374 768.102024347 1847.5 698 c 132
 1774.86645899 623.504060498 1723.91235093 511.60955712 1734.5 365.5 c 132
 1748.85784978 167.361673001 1958.05570384 -10.505444598 2169.5 98.5 c 132
 2223.16666667 126.166666667 2266 165.666666667 2298 217 c 4
 2362.66666667 321 2374.66666667 438 2334 568 c 4
 2301.33333333 672 2241.33333333 757.333333333 2154 824 c 5
EndSplineSet
EndChar

StartChar: ch3
Encoding: 3356 3356 64
Width: 1536
GlyphClass: 2
Flags: HW
LayerCount: 2
Fore
SplineSet
789.23046875 480.525390625 m 132
 770.243897791 480.525390625 754.447603025 496.463236961 754.42578125 515.489257812 c 6
 754.42578125 515.819335938 l 5
 755.5625 638.965820312 l 6
 755.720052083 656.027669271 755.974609375 670.300455729 756.326171875 681.784179688 c 4
 751.567057292 744.420247396 734.259114583 795.291015625 704.40234375 834.396484375 c 4
 650.121744791 905.490885417 586.050130208 949.005208334 512.1875 964.939453125 c 4
 419.595052083 984.9140625 338.755859375 967.418945313 269.669921875 912.454101562 c 5
 389.577861868 934.936443014 486.050318024 861.925197672 520.619140625 773.602539062 c 132
 541.867838542 719.311523437 543.488606771 668.892578125 525.481445312 622.345703125 c 4
 489.180013021 528.509114583 426.561848958 478.915690104 337.626953125 473.565429688 c 4
 172.513917772 463.632454812 62.1291853197 636.231812426 113.443359375 801.500976562 c 4
 138.567057292 888.627929687 191.063151042 953.951171875 270.931640625 997.470703125 c 132
 350.800130208 1040.98958333 435.46484375 1053.0999349 524.92578125 1033.80175781 c 4
 640.942708333 1008.77376302 726.690104167 943.935872396 782.16796875 839.288085938 c 5
 834.599946668 984.738101224 985.890965563 1094.49934187 1193.61035156 1028.81054688 c 132
 1309.25111576 992.239756572 1435.95222559 856.765580151 1430.39453125 710.109375 c 4
 1425.30013021 575.676432292 1365.77604167 469.780273438 1251.82226562 392.420898438 c 5
 1320.96354167 379.745768229 1370.70540365 349.445638021 1401.04785156 301.520507812 c 132
 1493.60427776 155.324847324 1386.56426942 -17.7241956907 1228.29101562 -9.7236328125 c 132
 1079.66622465 -2.21426727727 986.335736985 170.317082575 1072.24023438 299.749023438 c 5
 1024.84570313 281.111002605 961.421875 247.618164063 881.96875 199.270507812 c 132
 725.468907538 104.039005279 585.919861671 15.5038356422 432.935546875 -4.1953125 c 4
 290.62109375 -22.51953125 193.126953125 12.7581380207 140.453125 101.637695312 c 4
 74.0306972218 213.716499962 140.205097661 321.110170214 240.30859375 364.879882812 c 4
 328.343430341 403.373386191 454.07533421 393.815520576 567.635742188 383.706054688 c 132
 699.137967018 371.999224351 888.382922851 350.944160862 992.845703125 369.999023438 c 4
 1177.34601736 396.9828384 1352.80063486 511.006028948 1359.74414062 694.313476562 c 4
 1364.64301632 823.60684812 1270.01693463 931.230168224 1170.58984375 962.672851562 c 4
 1061.70442708 997.106445314 972.965494792 978.931966147 904.373046875 908.149414062 c 4
 855.154806095 857.360596629 829.105474797 786.881819377 828.2265625 702.65625 c 132
 827.929036459 674.145182292 827.438802084 653.187174479 826.755859375 639.782226562 c 6
 824.41796875 514.512695312 l 6
 823.880135197 496.01840938 808.217230219 480.525390625 789.23046875 480.525390625 c 132
455.43359375 748.090820312 m 132
 431.233210081 809.923920578 357.339270521 866.573411654 267.5859375 840.120117188 c 132
 226.435519832 827.991104291 201.130770788 804.215569186 177.51171875 769.518554688 c 5
 150.180485953 648.646423171 227.36579915 537.060380167 333.423828125 543.440429688 c 4
 397.548070958 547.298498562 437.985900927 590.190980085 458.853515625 644.1328125 c 132
 471.203776042 676.056640625 470.063802083 710.709309896 455.43359375 748.090820312 c 132
1207.34375 327.051757812 m 5
 1203.44140625 318.748372396 1194.53450521 311.729817709 1180.62304688 305.99609375 c 132
 1114.59163137 278.780693308 1079.90808131 163.215052641 1140.57324219 104.079101562 c 132
 1190.29198627 55.6136655929 1261.0343697 42.0492643044 1318.69921875 88.1923828125 c 132
 1362.05186288 122.882716206 1385.69728276 194.897122777 1349.02734375 252.8203125 c 4
 1319.22916666 299.887369792 1272.00130208 324.631184896 1207.34375 327.051757812 c 5
646.65625 305.151367188 m 132
 474.85061274 322.117316275 482.154423931 323.05031357 362.59765625 322.263671875 c 132
 255.355634026 321.555781059 140.83176161 238.296691316 200.224609375 138.078125 c 132
 212.899739584 116.690755208 235.557942709 96.9098307288 268.19921875 78.7353515625 c 132
 300.83984375 60.5608723958 354.291666667 56.2548828125 428.5546875 65.8173828125 c 4
 512.910807292 76.6793619792 625.147135417 124.776367188 765.263671875 210.108398438 c 4
 807.146643495 235.615425855 860.261393612 268.503274296 900.986328125 292.006835938 c 5
 840.412109375 290.008138021 755.635416667 294.389648437 646.65625 305.151367188 c 132
EndSplineSet
EndChar

StartChar: ch4
Encoding: 3357 3357 65
Width: 3182
GlyphClass: 2
Flags: HW
LayerCount: 2
Fore
SplineSet
2068 476 m 0
 2066.21799517 518.768115603 2067 586.846521304 2067 632 c 2
 2063 947 l 2
 2063 991.21196458 2129.92584831 994.112275062 2133 948 c 1
 2139 521 l 1
 2139 437.735067277 2139.60413875 406.783113381 2171 331 c 0
 2213.66666667 227 2289.16666667 149.5 2397.5 98.5 c 128
 2505.83333333 47.5 2619.16666667 45.6666666667 2737.5 93 c 128
 2855.83333333 140.333333333 2937.33333333 224.333333333 2982 345 c 0
 3018.66666667 444.333333333 3021.33333333 538.333333333 2990 627 c 128
 2958.66666667 715.666666667 2915.33333333 782.333333333 2860 827 c 0
 2751.33333333 914.333333333 2633.33333333 948 2506 928 c 0
 2461.92957051 921.704224358 2448.2995392 990.3285056 2495 997 c 0
 2565 1007.66666667 2634.66666667 1004 2704 986 c 0
 2848 947.333333333 2954.66666667 861.666666667 3024 729 c 0
 3080 620.333333333 3096.16666667 512.666666667 3072.5 406 c 128
 3048.83333333 299.333333333 3008 216.333333333 2950 157 c 0
 2793.57866283 -3.10183922216 2576.45214397 -61.7146772138 2359 39 c 0
 2250.33333333 89.6666666667 2170 169 2118 277 c 1
 2089.77966007 150.62195592 2012.29255978 23.1361774865 1887 -1.5 c 128
 1827.66666667 -13.1666666667 1773.33333333 -6.66666666667 1724 18 c 0
 1589.17726508 84.9263935904 1544.62097072 214.167963576 1532 414 c 2
 1527 495 l 2
 1519.09243185 624.156946416 1508.56491644 694.243022271 1455 776 c 0
 1402.33333333 855.333333333 1329.5 906 1236.5 928 c 128
 1143.5 950 1053 947.333333333 965 920 c 1
 1106.61170048 821.377565744 1209.08578703 657.040275485 1223 436.5 c 128
 1233.97947568 262.475310501 1145.6744556 107.62604237 1023 38 c 128
 923.033958679 -18.7374829121 802.47244097 -13.7185039529 709 46 c 128
 585.1427739 125.131005564 509.265506905 282.21551124 532 476 c 0
 553.902826605 669.996464223 663.576122006 832.356109107 807 923 c 1
 673 971 544.333333333 963 421 899 c 0
 285.264341744 828.791900902 170 679.879485541 170 486 c 128
 170 292.32624892 286.461209154 143.106271128 422 73 c 0
 460.814873259 52.0996836304 429.632738644 -10.8791669612 389 11 c 0
 233.127269773 91.8663036513 100 262.855287387 100 486 c 128
 100 708.571461088 232.135101563 880.047893999 387 961 c 128
 547.820631345 1045.06533002 731.375455492 1040.10692596 887 966 c 1
 1200.28678217 1100.26576378 1513.28461163 939.766682952 1574.5 674.5 c 128
 1585.5 626.833333333 1593 568.333333333 1597 499 c 2
 1602 418 l 1
 1611.03502657 255.369521662 1639.20004051 138.399979742 1753 81.5 c 128
 1845.60820412 35.1958979444 1934.5679022 76.7917007623 1984 142 c 0
 2038 213.333333333 2066 324.666666667 2068 476 c 0
885 887 m 1
 729.574896147 808.161179204 623.069500345 658.113919711 599 445.5 c 128
 582.847450124 302.819142765 649.555816594 167.356975048 745 106 c 0
 825.666666667 54.6666666667 907.666666667 53 991 101 c 0
 1100.7277831 162.601562439 1161.22578837 294.462648936 1150.5 462.5 c 128
 1143.5 572.166666667 1103 673 1029 765 c 0
 987.666666667 815 939.666666667 855.666666667 885 887 c 1
EndSplineSet
EndChar

StartChar: nj
Encoding: 3358 3358 66
Width: 2556
GlyphClass: 2
Flags: HW
LayerCount: 2
Fore
SplineSet
1054 -20 m 132
 1035.51569966 -20 1019 -4.50980253636 1019 14 c 6
 1017 477 l 6
 1016.33333333 589 1002.33333333 674 975 732 c 4
 938.333333333 810 881.333333333 866.833333333 804 902.5 c 132
 637.762303667 979.169972017 465.438983878 936.800630726 349.5 841.5 c 132
 236.804049865 748.865109052 151.685958106 590.597505523 171 393 c 5
 198.333333333 475 251 534.666666667 329 572 c 4
 404.333333333 608.666666667 481.666666667 614 561 588 c 4
 641.666666667 561.333333333 701 510.333333333 739 435 c 4
 777.666666667 359 783.666666667 280.666666667 757 200 c 4
 715.288116217 73.821551559 579.506168086 -38.8823034853 402 -0 c 4
 398.666666667 -1.33333333333 395.333333333 -2 392 -2 c 132
 388.666666667 -2 385.333333333 -1.66666666667 382 -1 c 4
 313.333333333 17 259 53.3333333333 219 108 c 5
 91.6005916593 235.399408341 65.278022337 481.307483881 143.5 675 c 132
 209.796062281 839.161678031 360.725095537 976.753283068 556.5 1006.5 c 132
 796.405318847 1042.9520449 985.065462652 901.572999622 1050 734 c 5
 1092 854 1169 936.666666667 1281 982 c 4
 1420.31710216 1038.59757275 1573.27886275 1018.75512621 1698 957 c 5
 1835.33333333 1027 1973 1035.66666667 2111 983 c 4
 2197 950.333333333 2265 903.666666667 2315 843 c 4
 2465.50373967 662.186479425 2504.03990693 419.888387498 2391 196.5 c 132
 2349 113.5 2291.66666667 44.6666666667 2219 -10 c 4
 2193.35470987 -29.946336771 2163 -7.89825934842 2163 19 c 132
 2163 29.6666666667 2167.66666667 38.3333333333 2177 45 c 4
 2281.41519648 124.135727863 2383.82762056 278.036268629 2387 443 c 4
 2389 577.666666667 2351.33333333 691.333333333 2274 784 c 4
 2158.5812883 922.502454046 1975.90099617 992.344498534 1771 914 c 5
 1909.20675845 818.714595102 2005.23416346 673.484272044 2034 475 c 4
 2063.3255575 270.807229239 1990.18082488 104.238015547 1861 23.5 c 132
 1762.60282717 -37.9982330169 1639.57876228 -35.207734548 1546 26.5 c 132
 1427.73613832 104.485589946 1358.88730712 253.021442049 1373 443 c 4
 1388.25412929 642.106529666 1482.22705559 808.084608146 1626 913 c 5
 1514 956.333333333 1408.66666667 958.333333333 1310 919 c 4
 1198 873.666666667 1128.33333333 788 1101 662 c 4
 1092.33333333 620.666666667 1088 560.333333333 1088 481 c 6
 1088 14 l 6
 1088 -4.51035267131 1072.50980253 -20 1054 -20 c 132
1698 878 m 5
 1549.52361296 788.69898461 1457.20555609 635.951673434 1440 414 c 132
 1429.15955977 274.158321151 1490.73010878 146.61864375 1582.5 86 c 132
 1656.05918806 37.4104445766 1747.89311515 34.7402564816 1825.5 83 c 132
 1933.78134449 150.334617577 1990.13485172 292.197894451 1965 465 c 4
 1939.32006209 644.759565323 1839.52656264 795.442838463 1698 878 c 5
620 476 m 4
 550.666666667 535.333333333 473.333333333 550.333333333 388 521 c 4
 316 496.333333333 266.333333333 448.666666667 239 378 c 4
 208.333333333 296.666666667 219.333333333 221.666666667 272 153 c 5
 376.80006835 41.2900370336 544.086440926 26.7332822502 646 141 c 4
 735.674189701 243.090615967 714.892464855 395.025096656 620 476 c 4
EndSplineSet
EndChar

StartChar: t1
Encoding: 3359 3359 67
Width: 1174
GlyphClass: 2
Flags: HW
LayerCount: 2
Fore
SplineSet
375 997 m 0
 671.958842837 1068.82260386 907.872261497 981.387580363 1062 850 c 0
 1088.19429807 827.835593952 1068.13224315 788 1040 788 c 128
 1030.66666667 788 1022.66666667 791 1016 797 c 0
 875.199815514 916.040155975 662.92496351 994.678779033 392 929 c 0
 297.333333333 906.333333333 232.666666667 869.333333333 198 818 c 0
 170.666666667 778 164 735.666666667 178 691 c 0
 213.861286035 573.978961359 354.621677133 523.346696305 542 539.5 c 128
 659.082030679 549.593278507 650.754888737 557.337573583 768 551 c 0
 879.333333333 545 962.666666667 508.666666667 1018 442 c 0
 1088.62216516 357.796649242 1088.80228207 236.555563678 1014.5 154.5 c 128
 976.166666667 112.166666667 928.666666667 78.6666666667 872 54 c 0
 685.333333333 -24 494.666666667 -20.3333333333 300 65 c 0
 235.333333333 93 175 128.666666667 119 172 c 0
 92.1109312939 193.127125412 109.913152718 235 139.5 235 c 128
 148.5 235 156.333333333 232.333333333 163 227 c 0
 291 127 432.333333333 74.6666666667 587 70 c 0
 676.333333333 67.3333333333 753.333333333 80 818 108 c 0
 941.333333333 160.666666667 1002.33333333 226 1001 304 c 0
 999.319022793 388.048859953 933.858973632 435.864819293 863 464 c 0
 815.666666667 482.666666667 727 485.666666667 597 473 c 0
 469.666666667 461.666666667 373.666666667 466.333333333 309 487 c 0
 204.333333333 520.333333333 138 581.666666667 110 671 c 0
 90 736.333333333 100 798.666666667 140 858 c 0
 184.666666667 923.333333333 263 969.666666667 375 997 c 0
EndSplineSet
EndChar

StartChar: t2
Encoding: 3360 3360 68
Width: 1236
GlyphClass: 2
Flags: HW
LayerCount: 2
Fore
SplineSet
266.5 894.5 m 132
 350.131891785 971.113830936 471.811687824 1032 621.5 1032 c 132
 773.890874593 1032 902.742279922 962.257720078 985 880 c 132
 1062.11763116 802.882368844 1136 670.455656179 1136 532 c 4
 1136 378 1089.66666667 254.666666667 997 162 c 4
 887.666666667 52.6666666667 761.666666667 -2.33333333333 619 -3 c 4
 456.723828859 -3 322.142120904 71.9357725385 238.5 162.5 c 132
 157.486073645 250.218527156 89.7407811529 390.358571602 101.5 549.5 c 132
 112.38645875 696.830075084 179.901720593 815.168709075 266.5 894.5 c 132
935 831 m 4
 864.280857479 900.578511191 751.100338278 962 621 962 c 4
 328.25994386 962 88.1046268037 679.004383902 196 367.5 c 132
 237.840180199 246.703350717 325.136220004 154.666555884 439.5 105 c 132
 497.833333333 79.6666666667 557 67 617 67 c 4
 742.333333333 67 848.5 110.666666667 935.5 198 c 132
 1022.5 285.333333333 1066 390.833333333 1066 514.5 c 132
 1066 638.166666667 1022.33333333 743.666666667 935 831 c 4
EndSplineSet
EndChar

StartChar: t4
Encoding: 3362 3362 70
Width: 2674
GlyphClass: 2
Flags: HW
LayerCount: 2
Fore
SplineSet
1613 965 m 4
 1611 825 1608 685 1606 546 c 4
 1605 403 1625 299 1689 213 c 4
 1754 125 1866 61 2010 64 c 4
 2245 68 2422 240 2482 430 c 4
 2492 461 2498 494 2502 526 c 5
 2449 416 2323 330 2183 339 c 4
 2008 350 1859 507 1874 695 c 4
 1887 857 2021 997 2198 1000 c 4
 2364 1002 2479 892 2532 778 c 4
 2586 662 2585 528 2548 409 c 4
 2480 193 2279 -1 2011 -6 c 4
 1792 -10 1640 114 1576 276 c 5
 1537 142 1436 -1 1268 -2 c 4
 1100 -3 989 149 967 297 c 4
 946 439 991 581 948 706 c 4
 909 819 800 901 672 923 c 4
 554 943 428 911 334 837 c 4
 240 763 179 647 171 528 c 4
 163 409 207 286 290 200 c 4
 375 112 492 68 614 68 c 4
 633 68 649 52 649 33 c 4
 649 14 634 -2 615 -2 c 4
 475 -6 336 51 239 152 c 4
 142 253 91 394 101 533 c 4
 111 672 181 806 291 892 c 4
 464 1029 719 1033 884 907 c 4
 943 862 990 800 1014 729 c 4
 1060 594 1014 452 1036 308 c 4
 1054 191 1139 67 1268 68 c 4
 1380 69 1457 162 1492 248 c 4
 1533 347 1535 458 1537 577 c 4
 1539 707 1541 836 1543 966 c 4
 1544 985 1559 1000 1578 1000 c 4
 1597 1000 1613 984 1613 965 c 4
2298 912 m 4
 2047 1008 1829 702 2007 498 c 4
 2100 391 2274 376 2383 479 c 4
 2491 581 2490 759 2382 860 c 4
 2358 882 2329 900 2298 912 c 4
EndSplineSet
EndChar

StartChar: nh
Encoding: 3363 3363 71
Width: 2864
GlyphClass: 2
Flags: HW
LayerCount: 2
Fore
SplineSet
1145.63671875 28.3134765625 m 6
 1145.49252963 9.35518310332 1129.70800916 -6.4228515625 1110.63378906 -6.4228515625 c 132
 1091.70072271 -6.4228515625 1076.03637464 9.24879229195 1075.63867188 27.873046875 c 6
 1072.640625 431.491210938 l 6
 1071.28744495 611.363582378 1059.42993235 701.066353771 982.50390625 805.05859375 c 132
 917.892050707 892.404355571 803.628019558 961.009802474 660.52734375 958.474609375 c 4
 531.013671875 956.180338542 419.750651042 908.994140625 326.73828125 816.916015625 c 4
 237.007161458 728.087890625 185.710286458 618.603515625 172.84765625 488.462890625 c 4
 169.631510417 455.936197916 169.430338542 423.783854166 172.244140625 392.005859375 c 5
 216.764384187 518.093900691 340.117120953 622.884799419 519.1953125 596.99609375 c 132
 700.10570743 570.844697687 847.862082682 358.437332988 744.213867188 156.650390625 c 132
 691.690097335 54.3936734628 561.481023978 -36.0483958179 400.932617188 3.916015625 c 4
 317.894856771 24.5865885417 249.338541666 69.8658854167 195.263671875 139.75390625 c 4
 190.409505208 143.4453125 186.524088542 148.656901042 183.607421875 155.388671875 c 5
 116.986979167 250.442708333 90.1803385417 363.762369791 103.1875 495.34765625 c 4
 117.705729167 642.229817709 176.963216146 767.146484375 280.959960938 870.09765625 c 132
 425.589849776 1013.27345059 657.832881379 1082.91303459 871.517578125 983.22265625 c 4
 981.397135415 931.960286458 1058.63411458 846.633789062 1103.22851562 727.243164062 c 5
 1136.21809895 833.239257813 1194.04101562 913.388997396 1276.69726562 967.692382812 c 4
 1395.48660773 1045.73726126 1547.36022921 1047.44859435 1665.52929688 969.625 c 4
 1749.12044271 914.573567708 1807.70182291 834.943684895 1841.2734375 730.735351562 c 5
 1888.64250758 864.845640283 1990.12793359 968.001831058 2123.82617188 1007.93554688 c 132
 2285.07150103 1056.09758322 2435.76940899 1007.85268144 2536.25097656 940.587890625 c 132
 2638.02710843 872.455259834 2717.65671238 767.328179782 2749.76660156 634.421875 c 132
 2804.16208193 409.285025679 2702.68146058 221.116480868 2578.49609375 118.178710938 c 4
 2475.61653646 32.9000651043 2357.44986979 -6.2861328125 2223.99609375 0.6201171875 c 4
 2205.68248082 1.3021024934 2190.29785156 16.9222435051 2190.29785156 35.8642578125 c 132
 2190.29785156 50.9656864499 2205.11414023 70.6025390625 2218.6328125 70.6025390625 c 132
 2223.84830729 70.6025390625 2226.84179688 70.5771484375 2227.61328125 70.5263671875 c 4
 2342.88671875 64.5615234375 2444.95703125 98.409830729 2533.82421875 172.071289062 c 132
 2622.69075521 245.734700521 2674.88346354 339.756184896 2690.40234375 454.135742188 c 132
 2705.91992188 568.515299479 2680.66536459 673.043945313 2614.63867188 767.721679688 c 132
 2548.61132813 862.398763021 2459.25 922.219726563 2346.5546875 947.184570312 c 4
 2185.67755388 982.822835396 2055.82920674 921.727010167 1981.57226562 836.466796875 c 132
 1892.71065647 734.437819685 1875.58043268 632.218653336 1876.546875 442.928710938 c 6
 1878.66210938 28.4326171875 l 5
 1878.66210938 28.154296875 l 6
 1878.52136597 10.5971539269 1863.1483558 -6.5693359375 1846.1953125 -6.5693359375 c 132
 1823.46809272 -6.5693359375 1809.07327532 8.30609989223 1808.6640625 27.6953125 c 6
 1805.39453125 438.458984375 l 6
 1804.1181493 598.710173419 1797.36251289 684.517444781 1740.46875 788.624023438 c 132
 1693.18759019 875.143129463 1598.43774417 956.943972019 1473.23730469 957.505859375 c 132
 1417.24186198 957.756510417 1365.18229166 942.073567709 1317.05859375 910.45703125 c 4
 1177.14442197 818.534204307 1141.57553328 674.28278441 1143.09765625 433.36328125 c 6
 1145.63671875 28.5625 l 5
 1145.63671875 28.3134765625 l 6
244.671875 190.400390625 m 5
 289.391276041 128.967447917 343.219075521 90.4176432292 406.155273438 74.7509765625 c 132
 540.373585328 41.3387113751 639.148804037 105.310428565 682.046875 188.826171875 c 132
 762.22584139 344.926225646 646.398355104 507.879056339 507.615234375 527.944335938 c 132
 399.848019352 543.524078811 317.836617852 494.88425426 271.62109375 432.145507812 c 132
 223.854656163 367.299771296 207.349509142 276.074081428 244.671875 190.400390625 c 5
EndSplineSet
EndChar

StartChar: th1
Encoding: 3364 3364 72
Width: 1816
GlyphClass: 2
Flags: HW
LayerCount: 2
Fore
SplineSet
492 10.5 m 132
 492 -10.6031484227 479.615827041 -30 461 -30 c 132
 453.666666667 -30 448 -29 444 -27 c 4
 275.927145902 37.448989165 140.064607955 189.805216274 107.5 384.5 c 132
 69.8710692209 609.472969127 171.454033466 783.090476549 298 890 c 132
 448.986852161 1017.55785786 694.7049194 1055.13835162 905 952 c 5
 1122.14317276 1061.23766973 1378.14926711 1015.1660739 1526.5 882.5 c 132
 1649.36377187 772.626230445 1746.67357855 604.543840867 1708.5 382 c 132
 1675.87890838 191.825976568 1545.3563381 40.8116087471 1384 -26 c 4
 1379.33333333 -28 1373.5 -29 1366.5 -29 c 132
 1351.96567347 -29 1335 -10.9276793457 1335 4 c 4
 1335 21.3333333333 1342.33333333 33 1357 39 c 4
 1497.93274379 98.1414192674 1610.94354026 227.036734744 1639.5 393.5 c 132
 1672.76601666 587.416536072 1588.03868344 733.813904198 1481 829.5 c 132
 1363.52308783 934.517239664 1164.67299701 981.206165506 979 909 c 5
 1117.43287012 813.529055091 1219.49841136 659.725503533 1247.5 462 c 132
 1274.45151731 271.68928588 1195.7520607 104.87630511 1072 26.5 c 132
 973.577484813 -35.8342596185 847.187082001 -37.4480769608 747 24 c 132
 621.698935496 100.851319562 540.932475301 267.358726187 566 457 c 4
 590.666666667 652.333333333 679 802.666666667 831 908 c 5
 651.754118318 976.710921312 460.876765133 936.133301178 342 835.5 c 132
 231.799546807 742.211497544 143.589500796 591.857605015 176.5 396 c 132
 204.830155444 227.401026145 323.471322713 93.6805373965 469 38 c 4
 484.333333333 32.6666666667 492 23.5 492 10.5 c 132
905 873 m 5
 769.132436462 792.588584843 660.503215078 648.320180233 635.5 451.5 c 132
 614.918775058 289.488819047 677.569139662 149.72417631 783 84.5 c 132
 861.658356184 35.8384745637 958.457966941 37.1140813726 1035.5 86.5 c 132
 1139.04432512 152.874567384 1200.3318978 293.767526684 1177 455.5 c 132
 1148.87829331 650.434557717 1042.83337554 793.641389839 905 873 c 5
EndSplineSet
EndChar

StartChar: th2
Encoding: 3365 3365 73
Width: 1625
GlyphClass: 2
Flags: HW
LayerCount: 2
Fore
SplineSet
135.002929688 1011 m 132
 154.168315001 1011 170.006835938 995.161635659 170.006835938 975.99609375 c 6
 175.440429688 71.560546875 l 5
 607.790039062 71.24609375 l 6
 607.773111979 71.5377604167 607.758789063 71.8626302083 607.747070312 72.220703125 c 6
 604.817382812 415.26953125 l 6
 603.131035973 612.710905342 621.19095042 719.962331322 708.837890625 836.487304688 c 132
 785.412742602 938.292143125 925.823856404 1020.47883552 1095.72265625 1008.22460938 c 4
 1246.93229167 997.31966146 1361.75813802 934.225911458 1440.20019531 818.943359375 c 4
 1511.64075493 713.953622335 1526.21965035 617.185210036 1525.68066406 445.0234375 c 6
 1524.40136719 35.49609375 l 6
 1524.34074426 16.4179305865 1508.52555608 0.60546875 1489.3984375 0.60546875 c 6
 140.625976562 1.5859375 l 6
 121.554436102 1.60146701656 105.768625438 17.3856059705 105.651367188 36.375 c 6
 100.006835938 975.291015625 l 6
 100.002278646 975.517578125 100 978.056640625 100 982.908203125 c 132
 100 996.145796416 119.927669078 1011 135.002929688 1011 c 132
1442.0859375 637.083007812 m 132
 1409.9826145 809.965713113 1270.86718318 925.41284008 1091.59863281 938.338867188 c 4
 879.156873369 953.657227425 724.823913328 808.061166563 690.383789062 632.693359375 c 132
 679.254882813 576.024739584 674.065429688 503.749348959 674.815429688 415.8671875 c 6
 677.745117188 72.818359375 l 5
 677.747070312 72.4599609375 l 6
 677.747070312 72.0458984375 677.739257812 71.6243489583 677.723632812 71.1953125 c 6
 1454.51074219 70.630859375 l 5
 1455.68066406 445.2421875 l 6
 1455.92350261 523.022135417 1451.39192709 586.969075521 1442.0859375 637.083007812 c 132
EndSplineSet
EndChar

StartChar: th3
Encoding: 3366 3366 74
Width: 1206
GlyphClass: 2
Flags: HW
LayerCount: 2
Fore
SplineSet
361 36 m 132
 361 16.701490262 346.029747535 0 327 0 c 132
 317.666666667 0 309.666666667 3 303 9 c 4
 158.902844881 129.080962599 44.4630518054 352.491720327 128 616.5 c 132
 163.333333333 728.166666667 228.666666667 820.333333333 324 893 c 132
 419.333333333 965.666666667 520.666666667 1005.33333333 628 1012 c 4
 794.666666667 1022 920 976.666666667 1004 876 c 4
 1119.28300882 737.415106429 1084.65745141 550.106119514 946 475 c 5
 1000 453.666666667 1039.33333333 423 1064 383 c 4
 1122 288.333333333 1121 197.333333333 1061 110 c 4
 1030.33333333 64.6666666667 991.333333333 32.3333333333 944 13 c 4
 846.666666667 -26.3333333333 755.666666667 -18.6666666667 671 36 c 4
 660.333333333 42.6666666667 655 50.8333333333 655 60.5 c 132
 655 111.443574142 694.347593222 104.732721457 726.5 83.5 c 132
 770.514553316 54.4337855466 857.289087441 54.1068295327 915.5 77.5 c 132
 973.790325509 100.925084083 1041.24826383 172.896702236 1035 251 c 4
 1026.92020062 380.276790152 934.599204458 427.695733295 782 429 c 5
 746 430 l 6
 727.753494511 430 712 446.424184286 712 464.5 c 132
 712 483.103735924 726.576570191 497.473318492 743 500 c 5
 773 502 l 5
 860.384015612 509.710354319 909.412324087 520.987709214 955 568 c 4
 1000.33333333 614 1014.16666667 671.333333333 996.5 740 c 132
 960.433958206 880.181219048 815.404099185 953.642814842 633 942 c 132
 539 936 450.166666667 901.166666667 366.5 837.5 c 132
 233.706296791 736.449811502 121.460902044 540.623076279 190 304 c 132
 218 207.333333333 270.666666667 126.666666667 348 62 c 4
 356.666666667 54.6666666667 361 46 361 36 c 132
EndSplineSet
EndChar

StartChar: n1
Encoding: 3368 3368 76
Width: 2042
GlyphClass: 2
Flags: HW
LayerCount: 2
Fore
SplineSet
1010.5 -15 m 128
 991.57667307 -15 976 0.224702378598 976 19 c 2
 973 483 l 2
 973 490.02003639 974 490.798934075 974 505.5 c 128
 974 570.712803762 971.039777497 612.391497555 945.5 676 c 128
 891.92548237 809.430874094 761.523827016 924 576 924 c 128
 447.639250671 924 337.785839922 857.957160971 273.5 784 c 128
 208.580923609 709.314336896 158.79655383 595.237907881 171 461 c 128
 182.797451495 331.228033552 257.937964884 219.887234914 343 155.5 c 128
 423.290760942 94.7243545653 547.553798569 49.3642087154 687 76 c 0
 689 76.6666666667 693 77 699 77 c 128
 712.898630078 77 729 57.8218444112 729 43 c 0
 729 22.3333333333 719.333333333 10.3333333333 700 7 c 0
 472.106280453 -36.8257152978 295.173024194 76.6583870985 202 198 c 0
 143.333333333 275.333333333 110.333333333 354.666666667 103 436 c 0
 88.3333333333 592.666666667 127.333333333 724 220 830 c 0
 296.922861293 918.403885366 422.301262144 992.736506311 575 993.5 c 128
 641.666666667 993.833333333 705.666666667 980.666666667 767 954 c 0
 883 902.666666667 964.333333333 818.333333333 1011 701 c 1
 1061.66666667 823.666666667 1148.66666667 910 1272 960 c 0
 1502.54964461 1054.18796457 1720.04008288 951.173232038 1829 818 c 0
 1903.44497411 727.763667743 1961.24090335 589.862233093 1938 429.5 c 128
 1916.47879217 281.003665946 1829.6174634 158.064886595 1725.5 85 c 128
 1629.9725907 17.9632215426 1488.97475478 -29.5043588731 1329 5 c 0
 1310.33333333 9 1301 20.6666666667 1301 40 c 0
 1301 55.6247844192 1316.5900239 75 1331 75 c 128
 1337 75 1341.33333333 74.6666666667 1344 74 c 0
 1480.57499028 44.1732779848 1604.05147343 86.4846958506 1685.5 143 c 128
 1798.14073068 221.158874348 1891.97005375 364.395261402 1869 558 c 0
 1858.33333333 640 1830.33333333 708 1785 762 c 0
 1697.66666667 868.666666667 1591 923.333333333 1465 926 c 0
 1340.56582611 928.927862914 1226.60552583 870.961286047 1163 805 c 0
 1091 729.666666667 1051.66666667 641 1045 539 c 0
 1045.87439674 520.637668591 1045 501.528495381 1045 488 c 128
 1045 487 1045 487 1045 486 c 2
 1046 19 l 2
 1046 0.229198331289 1029.39011786 -15 1010.5 -15 c 128
EndSplineSet
EndChar

StartChar: p1
Encoding: 3370 3370 77
Width: 1698
GlyphClass: 2
Flags: HW
LayerCount: 2
Fore
SplineSet
373.875976562 33.9521484375 m 132
 373.875976562 12.9429936038 361.192934451 -6.259765625 342.907226562 -6.259765625 c 132
 335.935872395 -6.259765625 322.046223958 -2.4638671875 301.23828125 5.1279296875 c 132
 246.104595656 25.2435051616 177.633742688 93.1245037461 146.716796875 146.41796875 c 4
 7.57972688093 386.255542024 194.013330251 660.361184194 440.104492188 661.9609375 c 132
 683.006005494 663.538020234 874.395780569 407.604040528 749.462890625 162.689453125 c 4
 732.065755208 128.5859375 709.330729167 98.0644531253 681.2578125 71.125 c 5
 1528.65820312 66.833984375 l 5
 1527.08398438 971.505859375 l 6
 1527.08072917 971.676432292 1527.07910156 974.186523437 1527.07910156 979.036132812 c 132
 1527.07910156 992.254024599 1547.03627648 1007.06542969 1562.08300781 1007.06542969 c 132
 1581.24839313 1007.06542969 1597.08691406 991.226363235 1597.08691406 972.061523438 c 6
 1598.71875 31.71875 l 6
 1598.71875 12.5056716079 1582.91112991 -3.3427734375 1563.71484375 -3.3427734375 c 6
 568.091796875 1.6953125 l 6
 550.440860738 1.79338654548 533.28125 17.1859772091 533.28125 34.2099609375 c 4
 533.28125 51.0621744792 540.228515625 62.5618489583 554.123046875 68.708984375 c 4
 653.92577685 112.811615265 742.132854637 230.265250765 710.873046875 376 c 132
 685.68585066 493.423937864 579.317906596 592.863315082 440.829101562 591.963867188 c 132
 242.794449835 590.677672088 97.3420471471 371.022970863 207.265625 181.54296875 c 132
 240.465494792 124.314453125 288.158203125 84.4049479167 350.34375 61.814453125 c 4
 366.031901041 56.373046875 373.875976562 47.0856119792 373.875976562 33.9521484375 c 132
EndSplineSet
EndChar

StartChar: p2
Encoding: 3371 3371 78
Width: 2217
GlyphClass: 2
Flags: HW
LayerCount: 2
Fore
SplineSet
2115 31 m 6
 2115 15.1051637463 2100.09193638 -4 2086 -4 c 6
 2067 -5 l 5
 1109 -5 l 6
 1106.33333333 -5 1104 -4.66666666667 1102 -4 c 6
 568 -2 l 6
 544.666666667 -2 533 12.3333333333 533 41 c 4
 533 51 540 59 554 65 c 4
 651.060879824 109.625691873 736.449411995 226.295461164 704 370 c 132
 678.065022269 484.854901382 572.891842536 582.411256109 436 581 c 132
 238.410568434 578.96299555 97.3209048691 357.131825219 209 171 c 132
 243 114.333333333 291.333333333 75.6666666667 354 55 c 4
 370 49.6666666667 378 40.3333333333 378 27 c 132
 378 5.82579352341 365.876534245 -14 347.5 -14 c 132
 340.5 -14 326.666666667 -10.3333333333 306 -3 c 132
 250.777924589 16.5949299841 180.699647458 82.8489670866 149 135 c 4
 7.2015390479 372.069301901 190.590516888 648.99664358 435 651 c 132
 607.404098554 652.41314835 739.816540397 530.417226538 772.5 385.5 c 132
 801.14924722 258.470318935 749.8606438 137.173485614 679 68 c 5
 1115 66 l 5
 1115 394 l 6
 1115 592.703301341 1135.88956449 702.649385463 1227.5 817 c 132
 1310.62375637 920.757312919 1449.0011027 993.499971965 1626 989 c 4
 1794 985 1923.66666667 922.666666667 2015 802 c 4
 2100.64288132 688.687880098 2119.39760522 580.267124704 2118 386 c 6
 2115 31 l 6
1281 771 m 4
 1200.58770591 671.506822556 1185 573.152801946 1185 394 c 6
 1185 65 l 5
 2046 65 l 5
 2048 387 l 6
 2049.35840177 564.950631493 2035.35056484 659.222941 1958 761 c 4
 1878 866.333333333 1765 919 1619 919 c 132
 1473 919 1360.33333333 869.666666667 1281 771 c 4
EndSplineSet
EndChar

StartChar: p3
Encoding: 3372 3372 79
Width: 2640
GlyphClass: 2
Flags: HW
LayerCount: 2
Fore
SplineSet
1147 -2 m 132
 1128.51569966 -2 1112 13.4901974637 1112 32 c 6
 1111 431 l 6
 1111 602.973672316 1096.88413563 695.763265926 1026 798 c 132
 964.116902756 887.254467178 854.209025678 958.098536529 717 964 c 4
 445.76995965 977.053852209 248.528004035 777.778627394 190 558 c 4
 178 513.333333333 171.666666667 469 171 425 c 5
 221.239690987 541.029762518 358.07632214 647.735689599 530 615.5 c 132
 655.622480567 591.945784894 758.899702618 495.378829528 786.5 364.5 c 132
 823.73212403 187.947669916 719.284700676 55.2418393948 596 7 c 4
 418.609176717 -62.6892520037 260.454136176 39.1235724562 189 140 c 4
 100.333333333 264 78 409.333333333 122 576 c 4
 187.620876979 821.780011956 412.539346336 1048.51964851 716 1034 c 4
 937.410991638 1024.11558074 1086.19350313 890.47818747 1146 714 c 5
 1182 821.333333333 1248.33333333 905.333333333 1345 966 c 132
 1441.66666667 1026.66666667 1544.5 1045.5 1653.5 1022.5 c 132
 1839.34923582 983.284106204 1972.30319847 869.643172222 2032.5 703.5 c 132
 2129.89869656 434.679597492 1993.14378286 180.098619865 1804 70 c 5
 2470 68 l 5
 2471 964 l 5
 2471 965 l 6
 2471 983.753789883 2486.57460343 1000 2505.5 1000 c 132
 2524.39592314 1000 2541 983.75061912 2541 965 c 6
 2540 32 l 6
 2540 13.5156996612 2523.48365851 -3 2505 -3 c 6
 1602 1 l 6
 1583.78871925 1 1567 16.407305207 1567 34.5 c 132
 1567 52.0496609221 1580.93300571 68.6610838092 1597 70 c 4
 1807.31757014 98.3864205095 1979.44504337 274.698711364 1993 497 c 4
 2006.63529293 711.755863849 1874.19601737 874.99479363 1716 933 c 4
 1593.33333333 978.333333333 1481 969 1379 905 c 132
 1227.51919806 809.953222312 1182 673.785458604 1182 431 c 6
 1182 33 l 6
 1182 14.5156996612 1165.48365851 -2 1147 -2 c 132
718 350 m 4
 686.301253685 503.21060719 503.711275574 612.64882534 340 516 c 132
 249.829755098 462.766963852 175.254051133 335.931301295 235 196 c 4
 235.666666667 194 238.333333333 190.333333333 243 185 c 4
 299.533676323 106.427771889 424.221555553 15.080103423 562.5 69 c 132
 658.686361414 106.506631495 747.774743352 209.633352768 718 350 c 4
EndSplineSet
EndChar

StartChar: p4
Encoding: 3373 3373 80
Width: 1315
GlyphClass: 2
Flags: HW
LayerCount: 2
Fore
SplineSet
531 36 m 132
 531 51.3617945749 545.513870427 70 559.5 70 c 132
 565.166666667 70 597.166666667 67 655.5 61 c 132
 713.833333333 55 788.5 52 879.5 52 c 132
 970.5 52 1029.66666667 57.6666666667 1057 69 c 4
 1156.81621705 110.695381804 1174.35529482 212.03470551 1074 265 c 4
 1010.36041407 299.267469347 942.680576638 292.800054399 860 285 c 4
 674.569929084 268.734204306 509.685191339 308.572434972 500 459.5 c 132
 490.164413544 612.771222273 642.991252371 685.555467216 791 660 c 4
 817.666666667 655.333333333 857 645.833333333 909 631.5 c 132
 999.76451805 606.481575153 1078.76150905 611.496118139 1122 664 c 132
 1140.66666667 686.666666667 1148.33333333 714 1145 746 c 4
 1135 838 1060.66666667 898.333333333 922 927 c 4
 706 971.666666667 522 935.666666667 370 819 c 4
 268.666666667 741 205.666666667 641.666666667 181 521 c 132
 156.333333333 400.333333333 174 286.666666667 234 180 c 4
 263.333333333 128 300.333333333 83 345 45 c 4
 353.666666667 38.3333333333 358 30.6666666667 358 22 c 4
 358 -4 347.666666667 -17 327 -17 c 4
 315.666666667 -17 306.666666667 -14 300 -8 c 4
 193.333333333 82 129.166666667 196 107.5 334 c 132
 85.8333333333 472 112.166666667 601 186.5 721 c 132
 260.833333333 841 366.5 924.5 503.5 971.5 c 132
 640.5 1018.5 782.333333333 1027 929 997 c 4
 1032.33333333 975.666666667 1108.33333333 937 1157 881 c 4
 1217.05862801 812.533164062 1242.95417394 699.85825144 1177 621 c 4
 1123.66666667 556.333333333 1041.66666667 534.333333333 931 555 c 4
 913 558.333333333 880 566.333333333 832 579 c 4
 732 605 661.666666667 601 621 567 c 4
 561.666666667 517.666666667 551.5 467 590.5 415 c 132
 629.5 363 707.666666667 342 825 352 c 4
 881 356.666666667 917.666666667 359.333333333 935 360 c 4
 1053 362.666666667 1135.66666667 329.333333333 1183 260 c 4
 1253.1388817 154.791677427 1191.74129949 49.3210595279 1087.5 6 c 132
 1010.5 -26 835.666666667 -28 563 0 c 4
 545.843595981 1.31972338602 531 17.5005078622 531 36 c 132
EndSplineSet
EndChar

StartChar: m1
Encoding: 3374 3374 81
Width: 1390
GlyphClass: 2
Flags: HW
LayerCount: 2
Fore
SplineSet
100 447 m 5
 124.850269159 789.381486189 436.363855572 1050.20986182 793 991 c 4
 935.666666667 967 1054 900 1148 790 c 132
 1242 680 1289.66666667 552.666666667 1291 408 c 4
 1291 404 1290.33333333 400.333333333 1289 397 c 5
 1289 37 l 6
 1289 17.9801763091 1273.33953537 2 1254 2 c 6
 135 2 l 6
 116.515699661 2 100 18.5163414854 100 37 c 6
 100 447 l 5
831 808 m 4
 787.29632864 892.493764629 697.8360993 940.590427196 586 917 c 4
 582 915.666666667 579 915 577 915 c 4
 421.666666667 879 306.333333333 791 231 651 c 4
 195.666666667 585 175.333333333 515.666666667 170 443 c 5
 170 72 l 5
 235 72 l 5
 491.989877924 103.236338753 706.891543122 278.559525047 806 478 c 4
 868.666666667 605.333333333 877 715.333333333 831 808 c 4
847 906 m 5
 960.156683494 783.299981753 946.105652798 603.494043659 868.5 447 c 132
 788.108292017 284.887795472 647.012656193 149.885973723 482 72 c 5
 1219 72 l 5
 1219 444 l 5
 1200.10917379 674.737948764 1038.67137413 846.426464797 847 906 c 5
EndSplineSet
EndChar

StartChar: y1
Encoding: 3375 3375 82
Width: 1958
GlyphClass: 2
Flags: HW
LayerCount: 2
Fore
SplineSet
1563 963 m 132
 1563 983.151927479 1577.63445871 1000 1596.5 1000 c 132
 1604.83333333 1000 1612 998 1618 994 c 4
 1763.77590764 896.442277195 1889.00551437 703.993946949 1852 465 c 4
 1797.95799387 106.721514943 1382.40732801 -144.425096519 996 57 c 5
 825.333333333 -18.3333333333 654.666666667 -19.3333333333 484 54 c 4
 302.423054143 132.408226619 169.363149321 279.547402721 117 489 c 4
 67.1984005253 692.633206741 136.389101504 864.194791444 256.5 952 c 132
 382.092332947 1043.81232615 554.679461596 1024.97094203 652 913 c 4
 672.666666667 889.666666667 689.333333333 863.333333333 702 834 c 5
 740.666666667 903.333333333 789.333333333 953.333333333 848 984 c 4
 991.171854611 1058.94151765 1135.72023388 1031.85674303 1232 947 c 132
 1324.16927673 865.766061176 1389.89078637 713.395913241 1365 555 c 4
 1333.66666667 351.666666667 1236.66666667 199.333333333 1074 98 c 5
 1406.04191329 -37.9366222232 1738.84584152 176.840462293 1781.5 465.5 c 132
 1813.73195382 683.627873562 1711.00860984 847.994260108 1579 936 c 4
 1568.33333333 942.666666667 1563 951.666666667 1563 963 c 132
1261 794 m 4
 1206.51729922 909.019034974 1056.64812645 1013.0050763 894 929 c 4
 787.769643743 874.001304916 736.472535205 784.465258172 718 649 c 4
 706.666666667 571.666666667 723.333333333 485.333333333 768 390 c 4
 820 281.333333333 896.666666667 196.666666667 998 136 c 5
 1126 202 1215.33333333 304 1266 442 c 4
 1313.33333333 572 1311.66666667 689.333333333 1261 794 c 4
920 103 m 5
 765.174291744 212.805466849 608.421258163 440.362330921 653 694 c 5
 669.678748334 831.599673756 565.120108471 949.271411233 413.5 940.5 c 132
 318.852959963 935.024551404 243.396592683 859.793185366 207 787 c 4
 166.333333333 705 159 611 185 505 c 4
 239.616878885 281.451844567 433.08974799 99.791025201 681 75 c 4
 761.666666667 67 841.333333333 76.3333333333 920 103 c 5
EndSplineSet
EndChar

StartChar: r3
Encoding: 3376 3376 83
Width: 1497
GlyphClass: 2
Flags: HW
LayerCount: 2
Fore
SplineSet
189.881835938 727.041992188 m 4
 299.081678395 883.018009489 503.389735739 992.870456744 744.467773438 990.263671875 c 4
 1043.90680295 987.025768236 1297.4603326 837.458437884 1373.38769531 596.720703125 c 132
 1458.20636129 327.796735633 1312.78522191 102.79666707 1117.79882812 28.193359375 c 132
 922.565893709 -46.50252928 743.832239882 40.5719425595 652.616210938 159.369140625 c 4
 523.636892661 327.347939314 548.535387862 561.759803697 687.211914062 702.990234375 c 132
 797.338594868 815.145055773 970.571110617 867.881649204 1144.83300781 795.912109375 c 5
 1039.74446614 877.061848958 912.942382812 918.439453125 764.426757812 920.044921875 c 132
 531.063817568 922.567598583 349.869457156 832.98622494 248.086914062 687.717773438 c 132
 188.940651476 603.299167651 152.263024636 502.291164477 178.813476562 370.39453125 c 132
 210.482214681 213.061126611 324.012362246 101.776905291 465.877929688 63.443359375 c 4
 483.454101563 58.9661458333 492.2421875 49.7783203125 492.2421875 35.8798828125 c 4
 492.2421875 8.30631510417 480.57421875 -5.48046875 457.23828125 -5.48046875 c 4
 412.143901478 -5.48046875 321.989651844 49.0978729614 292.349609375 70.8603515625 c 4
 194.721354166 142.540039062 133.953450521 237.769856771 110.045898438 356.549804688 c 4
 83.316731771 489.345377604 109.928710938 612.842773437 189.881835938 727.041992188 c 4
1326.58105469 474.20703125 m 4
 1296.86270274 633.619952022 1148.8130771 769.818736109 961.610351562 757.162109375 c 132
 788.358337063 745.445939329 646.722589621 603.364600803 638.055664062 427.6484375 c 4
 629.661965973 257.435140501 753.641546848 107.961052342 893.778320312 80.3935546875 c 132
 1055.32945078 48.6146226342 1174.08418462 115.967241659 1244.91894531 204.692382812 c 4
 1306.47167969 281.790690104 1333.86816407 370.842447917 1327.10839844 471.84765625 c 4
 1326.9046224 472.630859375 1326.72884115 473.417317709 1326.58105469 474.20703125 c 4
EndSplineSet
EndChar

StartChar: rh
Encoding: 3377 3377 84
Width: 1344
GlyphClass: 2
Flags: HW
LayerCount: 2
Fore
SplineSet
849 -29 m 132
 831.820611089 -29 817 -13.2683447424 817 -1 c 132
 817 22.6401107596 826.808642012 35.6823045364 843 40 c 4
 1032.78163624 91.3245934483 1196.32419702 277.926980634 1173 517 c 4
 1160.33333333 643 1104 747.666666667 1004 831 c 4
 816.140196123 987.765767374 522.913368724 985.064701758 339 828 c 4
 243.666666667 747.333333333 188.666666667 647 174 527 c 4
 160.666666667 417 184.333333333 316 245 224 c 132
 305.666666667 132 389.333333333 70.6666666667 496 40 c 4
 513.333333333 35.3333333333 522 26 522 12 c 4
 522 -15.3333333333 510.333333333 -29 487 -29 c 4
 483.666666667 -29 480 -28.6666666667 476 -28 c 4
 353.333333333 7.33333333333 256.833333333 78.5 186.5 185.5 c 132
 116.166666667 292.5 88.6666666667 409.333333333 104 536 c 4
 121.333333333 674 183.5 788.166666667 290.5 878.5 c 132
 397.5 968.833333333 523.166666667 1015.5 667.5 1018.5 c 132
 811.833333333 1021.5 939 977 1049 885 c 4
 1143.30436361 805.83090462 1226.94583408 677.530825968 1242 530 c 4
 1258.66666667 363.333333333 1209.66666667 222.666666667 1095 108 c 4
 1029 41.3333333333 951 -4 861 -28 c 4
 857.666666667 -28.6666666667 853.666666667 -29 849 -29 c 132
EndSplineSet
EndChar

StartChar: l3
Encoding: 3378 3378 85
Width: 1645
GlyphClass: 2
Flags: HW
LayerCount: 2
Fore
SplineSet
1474 971 m 2
 1474 989.484300339 1489.49019747 1006 1508 1006 c 2
 1509 1006 l 2
 1528.01982369 1006 1544 990.339535373 1544 971 c 2
 1546 35 l 2
 1546 15.6574866597 1530.02173319 0 1511 0 c 2
 135 1 l 2
 115.980176309 1 100 16.6604646284 100 36 c 2
 100 371 l 2
 100 575.280515364 117.510536444 686.947775557 205 811 c 128
 249.666666667 874.333333333 307.666666667 923 379 957 c 0
 496.62462261 1013.06407246 617.457955943 1017.89740579 741.5 971.5 c 0
 894.251378086 914.363988349 1008.61335159 790.49828598 1045.5 620 c 128
 1060.5 550.666666667 1060.33333333 482 1045 414 c 0
 1040.09090909 396 1028.75757576 387 1011 387 c 2
 171 385 l 1
 170 385 l 1
 170 71 l 1
 1476 70 l 1
 1474 971 l 2
584.011363636 931 m 128
 436.60714412 931 326.83196705 862.550690019 261 769 c 128
 197.175948597 678.302663796 174.593164931 586.150520011 171 455 c 1
 981 457 l 1
 1011.80887945 648.963018116 904.602583542 808.24827732 766.011363636 884 c 128
 708.685606061 915.333333333 648.018939394 931 584.011363636 931 c 128
EndSplineSet
EndChar

StartChar: lh
Encoding: 3379 3379 86
Width: 1262
GlyphClass: 2
Flags: HW
LayerCount: 2
Fore
SplineSet
102 515 m 4
 102 517.265987001 101 519.920871659 101 523 c 132
 101 525 101.333333333 526.666666667 102 528 c 4
 97.2523019082 686.256603061 183.668675536 808.975295066 282 883 c 4
 386 961.666666667 516 1002 672 1004 c 4
 854 1006 986 952.666666667 1068 844 c 4
 1100.66666667 800.666666667 1120 756.333333333 1126 711 c 4
 1140 605 1106.66666667 527.666666667 1026 479 c 5
 1136.02625953 424.44916544 1206.99994362 291.646952682 1136 158 c 4
 1073.37162204 41.2834774413 963.282055161 2 781 2 c 6
 376 2 l 6
 304.666666667 2 256.333333333 -7.33333333333 231 -26 c 4
 181.666666667 -61.3333333333 162.333333333 -104.333333333 173 -155 c 4
 189.513044632 -234.813049055 254.953335208 -260 361 -260 c 4
 611.666666667 -260 862.333333333 -260 1113 -260 c 4
 1136.33333333 -260 1148 -271.666666667 1148 -295 c 4
 1148 -313.484300339 1131.48365851 -330 1113 -330 c 4
 862.333333333 -330 611.666666667 -330 361 -330 c 4
 294.333333333 -330 245.333333333 -322 214 -306 c 4
 152.666666667 -274.666666667 116 -229 104 -169 c 4
 96 -131.666666667 99.3333333333 -95.6666666667 114 -61 c 4
 153.892179209 36.830820441 236.762322594 69.7898781363 376 72 c 5
 781 72 l 6
 930.289602336 72 1021.19458458 91.7899428059 1073 188 c 4
 1104.33333333 247.333333333 1101.33333333 304 1064 358 c 4
 1028 410.666666667 961.333333333 439.666666667 864 445 c 4
 857.333333333 445 849.666666667 445.333333333 841 446 c 6
 810 448 l 6
 793.35796901 449.1887165 777 463.536871728 777 480.5 c 132
 777 498.095194795 791.103693177 517 802.5 517 c 6
 813 517 l 5
 846 516 l 5
 924.99371151 512.050314424 964.051175747 516.042646455 1006 551 c 4
 1048 585 1065 632.333333333 1057 693 c 4
 1037.04635014 851.298955524 869.351542127 936.635591169 673 934 c 4
 450.806787052 931.893903195 270.000774264 833.540248302 200 672 c 5
 319.535589965 759.65943264 485.921347818 726.584805393 566 616 c 4
 630.787498831 525.567449548 626.406710837 402.406529996 559 317.5 c 132
 524.333333333 273.833333333 483.333333333 247 436 237 c 4
 344.666666667 217.666666667 268 237.333333333 206 296 c 4
 141.333333333 356.666666667 106.666666667 429.666666667 102 515 c 4
172 520 m 5
 174.52573852 396.238812494 283.178171419 276.109608161 418 305 c 4
 523.810652326 328.278343511 581.80193256 473.617322023 509 574.5 c 132
 463.95505705 636.919420945 365.80548483 681.902742416 266 632 c 4
 220 608 188.666666667 571 172 521 c 5
 172 520 l 5
EndSplineSet
EndChar

StartChar: zh
Encoding: 3380 3380 87
Width: 1128
GlyphClass: 2
Flags: HW
LayerCount: 2
Fore
SplineSet
208 1003 m 4
 232.997960731 1026.9980423 267 1007.75967504 267 978 c 132
 267 968 263 959.333333333 255 952 c 4
 194.051102077 895.114361939 142.35954224 780.453953552 185 673 c 4
 215.666666667 595.666666667 265.333333333 538.666666667 334 502 c 4
 424 454 526 435.333333333 640 446 c 5
 629.827125812 451.086437098 619.681251529 464.563718095 589 493 c 4
 464.333333333 606.333333333 421.666666667 718.666666667 461 830 c 4
 499.953295614 939.06922772 607.498405157 1016.25401856 759.5 1007.5 c 132
 948.271587594 996.628337877 1099.34247759 779.77888696 995 586 c 4
 949 498.666666667 875 437.666666667 773 403 c 4
 773 402.333333333 773.666666667 401.333333333 775 400 c 4
 848.331738188 296.792368476 842.024766485 165.699598115 754 83.5 c 132
 677.182642484 11.7661440839 551.916933499 -30.0216105337 413 9 c 132
 353.666666667 25.6666666667 301.333333333 54.3333333333 256 95 c 4
 231.910008057 115.074993287 249.283593963 156 276 156 c 132
 287.333333333 156 296.666666667 153 304 147 c 4
 364.12340221 92.4435794752 465.349622534 47.9805377788 579.5 70.5 c 132
 663.837564736 87.1380229752 751.489270863 148.785417258 756 239 c 4
 758 287.666666667 739.333333333 336 700 384 c 5
 491.830653714 344.968247572 306.266088304 406.849727261 198 520 c 4
 136.416344546 585.43263392 79.0233887999 694.193878614 109.5 831 c 132
 124.5 898.333333333 157.333333333 955.666666667 208 1003 c 4
725 461 m 5
 823 487.666666667 892 539.333333333 932 616 c 4
 982.387610509 712.051382536 957.586689108 816.390657621 887.5 878.5 c 132
 803.476328977 952.96000115 662.002333147 962.151482409 576 880 c 4
 499.755012717 806.976631898 500.750011173 698.478557704 563 622 c 132
 596.786403076 580.490990506 690.637686002 495.362313998 725 461 c 5
EndSplineSet
EndChar

StartChar: v1
Encoding: 3381 3381 88
Width: 1748
GlyphClass: 2
Flags: HW
LayerCount: 2
Fore
SplineSet
1578 983 m 2
 1578 1001.75378988 1593.57460343 1018 1612.5 1018 c 128
 1627.27390923 1018 1648 1002.94148395 1648 990 c 128
 1648 983 1648 983 1648 982 c 2
 1646 39 l 2
 1646 20.5156996612 1629.48365851 4 1611 4 c 2
 839 6 l 2
 821.057389979 6 804 22.3413391028 804 40 c 0
 804 58.6666666667 812.666666667 70.3333333333 830 75 c 0
 1001.34646906 123.786147441 1150.46032023 296.243734668 1130 514 c 0
 1109.05824452 740.432731013 908.767104486 917.649890986 667 927 c 0
 421.444814463 936.935758953 226.521018301 777.538540082 181 577 c 0
 149.642183864 440.593499803 193.295385926 316.69584729 252 237.5 c 128
 314.831471443 152.736788523 424.917896242 79.836995759 556 71 c 0
 574.009432163 69.7136119883 589 54.0255123277 589 35 c 128
 589 19.9448111186 574.56001237 1 561 1 c 0
 407.242831314 1 265.570011975 100.765343812 195.5 195.5 c 128
 127.98881855 286.775117319 75.4048405421 430.057706026 111 587 c 0
 140.333333333 716.333333333 209.666666667 819.333333333 319 896 c 0
 534.605897345 1047.61963104 837.387073554 1021.81664724 1024 859 c 0
 1128.66666667 767.666666667 1187.33333333 654.666666667 1200 520 c 0
 1217.39958649 329.692022816 1118.36172585 163.610796591 992 76 c 1
 1576 74 l 1
 1578 983 l 2
EndSplineSet
EndChar

StartChar: z1
Encoding: 3382 3382 89
Width: 1917
GlyphClass: 2
Flags: HW
LayerCount: 2
Fore
SplineSet
486.5 991 m 132
 504.430719998 991 517 971.377865529 517 951 c 132
 517 938.333333333 509.666666667 929 495 923 c 4
 344.645882324 862.352960937 214.075421122 713.645960889 181 540 c 132
 144.734302382 349.605087505 222.582799583 195.225694154 336 120 c 4
 426.666666667 60 518.333333333 49.6666666667 611 89 c 4
 667 113 708.166666667 149 734.5 197 c 132
 760.833333333 245 775.333333333 327.333333333 778 444 c 4
 781.460554412 613.567166119 815.520990698 729.795370792 906 826.5 c 132
 978.666666667 904.166666667 1060.5 955.5 1151.5 980.5 c 132
 1366.45592347 1039.55382513 1547.54549244 956.216957123 1656.5 850 c 132
 1771.26396339 738.119553274 1851.64432116 564.588143233 1802.5 335.5 c 132
 1780.83333333 234.5 1727.16666667 149 1641.5 79 c 132
 1555.83333333 9 1458.33333333 -14.6666666667 1349 8 c 4
 1227.39504545 33.9606082756 1133.70770739 124.843134362 1094 235 c 4
 1002.41686986 494.735762514 1177.5165016 713.418424925 1338 792 c 4
 1408 826 1482.33333333 841.666666667 1561 839 c 5
 1469.61031679 906.272961254 1331.66274334 956.840743954 1170 913 c 132
 987.264089136 863.444498752 858.140776528 701.637998166 850 483 c 4
 849.333333333 469.666666667 848.666666667 452 848 430 c 4
 844.666666667 310 827.666666667 222 797 166 c 4
 748.333333333 77.3333333333 674.333333333 23.6666666667 575 5 c 132
 356.765997323 -36.0104166106 187.890382744 116.574701676 132.5 274 c 132
 71.9315955171 446.14178116 110.021135727 613.63635345 180 734 c 4
 248.666666667 852.666666667 345 937.333333333 469 988 c 4
 473.666666667 990 479.5 991 486.5 991 c 132
1643 761 m 5
 1638.36058138 759.453527126 1633.48289608 760.879275982 1629 762 c 4
 1413.00992177 804.880383177 1250.21362148 681.153112608 1176 536 c 132
 1056.83747291 302.932116115 1238.73854158 12.4378305396 1482.5 79 c 132
 1572.83333333 103.666666667 1641.66666667 157.333333333 1689 240 c 4
 1753 352 1766 472 1728 600 c 4
 1710.66666667 659.333333333 1682.33333333 713 1643 761 c 5
EndSplineSet
EndChar

StartChar: sh
Encoding: 3383 3383 90
Width: 1932
GlyphClass: 2
Flags: HW
LayerCount: 2
Fore
SplineSet
835 570 m 4
 705 790 892 1035 1132 1003 c 4
 1248 988 1331 911 1352 800 c 4
 1358 765 1358 731 1358 700 c 6
 1356 495 l 5
 1561 567 1724 751 1763 974 c 4
 1766 990 1781 1003 1797 1003 c 4
 1816 1003 1832 987 1832 968 c 6
 1832 38 l 6
 1832 19 1816 3 1797 3 c 6
 517 3 l 6
 498 3 482 19 482 38 c 4
 482 51 491 65 503 70 c 4
 590 108 670 212 641 340 c 4
 618 442 522 530 401 526 c 4
 238 521 110 343 198 177 c 4
 223 130 265 91 314 70 c 4
 326 65 336 50 336 37 c 4
 336 18 320 2 301 2 c 4
 297 2 290 3 286 5 c 4
 174 53 75 184 106 346 c 4
 131 479 249 591 399 596 c 4
 618 603 797 371 683 148 c 4
 669 120 650 95 628 73 c 5
 1283 73 l 5
 1286 404 l 5
 1181 384 1068 390 971 442 c 4
 916 471 867 515 835 570 c 4
1198 909 m 4
 1123 951 1019 940 953 893 c 4
 868 832 832 712 895 606 c 4
 920 563 959 528 1004 504 c 4
 1087 460 1189 454 1286 475 c 5
 1288 701 l 6
 1289 806 1265 871 1198 909 c 4
1762 759 m 5
 1679 602 1533 476 1356 421 c 5
 1353 73 l 5
 1762 73 l 5
 1762 759 l 5
EndSplineSet
EndChar

StartChar: s1
Encoding: 3384 3384 91
Width: 2512
GlyphClass: 2
Flags: HW
LayerCount: 2
Fore
SplineSet
707.5 71 m 132
 721.227448886 71 737 51.4140643786 737 36.5 c 132
 737 18.3846660959 723.594562275 3.59909371257 708 1 c 4
 537.594577496 -28.7036975007 390.016993694 29.9048713749 294 107.5 c 132
 196.870692259 185.994033582 107.185196829 322.823780096 101 479 c 4
 94.3333333333 615 132 733.5 214 834.5 c 132
 296 935.5 404.666666667 994.333333333 540 1011 c 4
 608 1019.66666667 676.333333333 1010.66666667 745 984 c 4
 854.333333333 942 932.333333333 864.333333333 979 751 c 5
 1015.21991754 875.182574436 1112.73046206 1004.8631821 1248 1010 c 4
 1471.16888926 1017.69547893 1578.85737875 818.807840954 1580 580 c 4
 1580 561 1580 561 1580 527 c 4
 1578.66666667 419.666666667 1586.33333333 342.333333333 1603 295 c 4
 1628.33333333 221 1674.33333333 162.666666667 1741 120 c 4
 1843 54.6666666667 1952.33333333 43 2069 85 c 4
 2141 111 2197.33333333 149.666666667 2238 201 c 4
 2399.05479574 401.303443451 2363.65381957 671.882226201 2188.5 827 c 132
 2098.16666667 907 1992.66666667 945 1872 941 c 4
 1871 941 1871 941 1863.5 941 c 132
 1850.15008889 941 1835 961.431622178 1835 976.5 c 132
 1835 995.953338719 1850.3976734 1011 1870 1011 c 4
 2009.33333333 1015 2131 971 2235 879 c 132
 2339 787 2397.5 672 2410.5 534 c 132
 2423.5 396 2387.66666667 274.333333333 2303 169 c 4
 2230.27631256 78.6818720491 2110.94265592 0.446053874047 1965 -7 c 4
 1756.26071463 -18.6777222587 1590.84675687 111.656323986 1537 272 c 4
 1518.33333333 327.333333333 1509.33333333 399.833333333 1510 489.5 c 132
 1510.66666667 579.166666667 1509 640 1505 672 c 4
 1489.66666667 794.666666667 1440 877.333333333 1356 920 c 4
 1219.55135335 988.224323337 1099.78683598 874.950692747 1061 775 c 132
 1033.20772346 703.381441202 1021 614.508135799 1021 527 c 132
 1021 360.666666667 1021 194.333333333 1021 28 c 4
 1021 9.22919833133 1004.39011786 -6 985.5 -6 c 132
 966.576673073 -6 951 9.22470237867 951 28 c 6
 951 456 l 6
 951 628.383357486 937.606837779 719.057463152 861 815.5 c 132
 798.877822693 893.707383932 682.377566338 958.315735229 547 941 c 4
 431.666666667 926.333333333 338.666666667 875.833333333 268 789.5 c 132
 159.590401706 657.056198311 136.25187899 469.399124185 219 308.5 c 132
 276.397521975 196.893707272 375.53752927 112.403479294 507 78.5 c 132
 570.333333333 62.1666666667 633.333333333 59.3333333333 696 70 c 4
 698 70.6666666667 701.833333333 71 707.5 71 c 132
EndSplineSet
EndChar

StartChar: h1
Encoding: 3385 3385 92
Width: 2333
GlyphClass: 2
Flags: HW
LayerCount: 2
Fore
SplineSet
378 34 m 132
 378 12.9447641689 365.084715404 -6 347 -6 c 132
 340.333333333 -6 335 -5.33333333333 331 -4 c 4
 243.666666667 27.3333333333 179.166666667 84.5 137.5 167.5 c 132
 95.8333333333 250.5 88.8333333333 336.5 116.5 425.5 c 132
 144.166666667 514.5 198.5 581.5 279.5 626.5 c 132
 444.903161149 718.390645083 623.485843165 654.198647986 714.5 546 c 132
 762.166666667 489.333333333 789 424 795 350 c 4
 803.666666667 240 768 147 688 71 c 5
 1440 69 l 5
 1346 129 1281.16666667 205 1245.5 297 c 132
 1100.68569929 670.539691512 1369.06282521 1024.49877079 1741.5 1010 c 132
 1878.5 1004.66666667 1995.33333333 950.166666667 2092 846.5 c 132
 2188.66666667 742.833333333 2235.66666667 619.666666667 2233 477 c 4
 2228.63639479 245.728923894 2079.89173256 68.8733147537 1905 -3 c 4
 1900.33333333 -5 1895.33333333 -6 1890 -6 c 132
 1871.43397168 -6 1856 7.13232717144 1856 30 c 132
 1856 44.6666666667 1863.33333333 55 1878 61 c 4
 2029.46278887 124.20888039 2160.07834182 277.40558479 2163 479 c 4
 2166.09775371 670.028145334 2051.94706871 830.469328338 1901 899.5 c 132
 1736.45458884 974.74942583 1556.29349468 942.847340302 1429.5 835 c 132
 1342.5 761 1292 667.166666667 1278 553.5 c 132
 1264 439.833333333 1290.16666667 336.333333333 1356.5 243 c 132
 1422.83333333 149.666666667 1512 91.3333333333 1624 68 c 4
 1642.66666667 64 1652 52.6666666667 1652 34 c 4
 1652 15.5156996612 1635.48365851 -1 1617 -1 c 6
 574 2 l 6
 553.143344587 2 539 18.2852299318 539 40.5 c 132
 539 52.8333333333 546 62.3333333333 560 69 c 4
 654.224242198 110.877440977 735.448736527 212.398116769 725 344.5 c 132
 716.126920229 456.681079957 629.440690287 562.26569963 536 587 c 4
 357.099749784 634.229666057 222.858381937 533.029954102 183 405 c 132
 161 334.333333333 166.666666667 265.666666667 200 199 c 132
 233.333333333 132.333333333 284.666666667 86.6666666667 354 62 c 4
 370 56.6666666667 378 47.3333333333 378 34 c 132
EndSplineSet
EndChar

StartChar: avagraha
Encoding: 3389 3389 93
Width: 1421
GlyphClass: 2
Flags: HW
LayerCount: 2
Fore
SplineSet
119.935725518 -179.2500065 m 4
 119.935725518 -303.838190882 218.83465368 -397.710564711 339.657397789 -397.710564711 c 4
 377.737598523 -397.710564711 416.343005784 -387.883060618 451 -367 c 4
 557 -304 591 -171 613 -25 c 6
 700 552 l 5
 438 552 l 6
 419 552 403 568 403 587 c 4
 403 606 419 622 438 622 c 6
 711 622 l 5
 764 973 l 6
 777 1058 791 1147 832 1230 c 4
 882.335154028 1331.55338093 979.459370495 1434.66639728 1122.68401353 1434.66639728 c 4
 1263.06569265 1434.66639728 1360.53402594 1350.05536188 1401 1246 c 4
 1409.48085219 1223.737763 1421.61413837 1175.34657518 1421.61413837 1134.78062707 c 4
 1421.61413837 1098.81474145 1412.07659124 1069 1382 1069 c 4
 1363 1069 1347 1085 1347 1104 c 4
 1347 1105 1348 1109 1348 1110 c 4
 1349.72103801 1121.86610417 1350.54774103 1133.46144638 1350.54774103 1144.75332545 c 4
 1350.54774103 1269.8973705 1250.89747589 1364.35965436 1123.56966388 1364.35965436 c 4
 1010.82049269 1364.35965436 934.862306021 1280.61044107 895 1200 c 4
 860 1129 846 1046 833 962 c 6
 782 622 l 5
 1039 622 l 6
 1058 622 1074 606 1074 587 c 4
 1074 568 1058 552 1039 552 c 6
 771 552 l 5
 682 -35 l 6
 657 -202 615 -351 487 -427 c 4
 441.094824561 -454.186560212 390.025221425 -467.07162834 339.633939407 -467.07162834 c 4
 276.959494124 -467.07162834 215.33436297 -447.139351899 166 -410 c 4
 104.537433609 -363.903075207 50.2691396803 -281.834788103 50.2691396803 -180.720629554 c 4
 50.2691396803 -144.263826884 53.2409745345 -80 94 -80 c 4
 113 -80 129 -96 129 -115 c 4
 129 -118 128 -121 127 -124 c 4
 122.140294879 -143.064997011 119.935725518 -161.536082076 119.935725518 -179.2500065 c 4
EndSplineSet
EndChar

StartChar: a2
Encoding: 3390 3390 94
Width: 977
GlyphClass: 2
Flags: HW
LayerCount: 2
Fore
SplineSet
144.5 657 m 132
 129.874640123 657 110 672.675753428 110 686 c 132
 110 776.112731648 166.33078685 866.830952925 220 917 c 4
 284 977 354 1008.66666667 430 1012 c 4
 574.666666667 1017.33333333 690.333333333 961.666666667 777 845 c 4
 849.666666667 747.666666667 883 630.333333333 877 493 c 4
 867.704625464 281.27202446 759.595146392 111.096263272 594.5 41 c 132
 354.089434768 -61.0737595392 117.893317584 109.544198448 100 335 c 4
 100 337 100 337 100 344.5 c 132
 100 357.617095612 120.316861136 373 135 373 c 132
 154.039056563 373 168.714116095 358.002374655 170 340 c 4
 180.171569661 212.855379227 285.248933633 98.7217120872 406 85 c 4
 520.666666667 72.3333333333 617.333333333 110.333333333 696 199 c 4
 764.666666667 277 801.666666667 376 807 496 c 4
 815.265710998 683.011711344 731.81612231 839.307091189 600 908 c 132
 484.98386303 967.937986873 355.198338848 948.602332032 268 866.5 c 132
 216.666666667 818.166666667 187.333333333 759 180 689 c 4
 178.699955658 672.099423558 162.583495236 657 144.5 657 c 132
EndSplineSet
EndChar

StartChar: i1
Encoding: 3391 3391 95
Width: 340
GlyphClass: 2
Flags: HW
LayerCount: 2
Fore
SplineSet
207 -9 m 132
 183.281929762 -9 170 5.06198828258 170 26 c 4
 170 153.333333333 169.333333333 369.333333333 168 674 c 5
 168 879 l 6
 168 1029.12808804 161.152467274 1108.19178867 107 1204 c 132
 46.2571505999 1311.46811817 -97.6887959423 1407.50896592 -257 1343.5 c 132
 -361.618598778 1301.46574156 -440.326440341 1193.01521619 -430 1066 c 4
 -430 1064 -430 1064 -430 1058.5 c 132
 -430 1026.5853128 -469.50291131 1021.40232903 -489 1037 c 4
 -495.666666667 1043.66666667 -499.333333333 1051.33333333 -500 1060 c 4
 -508 1164 -476 1253.33333333 -404 1328 c 132
 -290.526250536 1445.67648093 -103.907162031 1471.27144135 39 1376 c 4
 143 1307.33333333 206 1201.33333333 228 1058 c 4
 234 1016.66666667 237.333333333 957 238 879 c 6
 238 675 l 6
 238.666666667 386.333333333 239.333333333 170 240 26 c 4
 240 7.75328283039 224.360784454 -9 207 -9 c 132
EndSplineSet
EndChar

StartChar: i2
Encoding: 3392 3392 96
Width: 398
GlyphClass: 2
Flags: HW
LayerCount: 2
Fore
SplineSet
262 -6 m 132
 244.063553243 -6 225 7.85310602315 225 19.5 c 6
 225 30 l 5
 227 1051 l 6
 227 1148.40694596 216.963886873 1200.66571636 169 1250 c 4
 120.333333333 1299.33333333 47.3333333333 1319 -50 1309 c 5
 11.8242472029 1268.81423932 53.7644190183 1179.63911423 12 1093.5 c 132
 -15.322927448 1037.14646214 -77.0425856326 989.098758886 -158 997.5 c 132
 -230.683521982 1005.04262965 -286.691483606 1058.66309562 -302 1125 c 4
 -319.333333333 1201.66666667 -288 1270 -208 1330 c 4
 -168 1359.33333333 -116 1375.66666667 -52 1379 c 132
 78.2741510413 1385.78511203 154.886901865 1363.11309813 219.5 1298.5 c 132
 281.16869013 1236.83130988 298.442828199 1169.31191226 297 1051 c 5
 295 30 l 5
 295 29 l 6
 295 11.6133821053 278.827480454 -6 262 -6 c 132
-51.5 1123 m 132
 -7.45422355365 1211.09155288 -108.803155152 1303.33379864 -195 1251 c 5
 -264.074937502 1184.58179087 -238.919435235 1075.69699363 -150.5 1067 c 132
 -103.448445653 1062.37197826 -67.8418206015 1090.3163588 -51.5 1123 c 132
EndSplineSet
EndChar

StartChar: u1
Encoding: 3393 3393 97
Width: 733
GlyphClass: 2
Flags: HW
LayerCount: 2
Fore
SplineSet
181.922851562 952.670898438 m 0
 137.671721549 961.054401301 149.100573485 1030.41504326 195.387695312 1021.36425781 c 0
 349.206583071 998.018061056 447.723083243 916.9331825 497.588867188 789.145507812 c 0
 523.058919271 725.048502604 535.379231771 659.510742187 534.549804688 592.532226562 c 0
 532.712565104 442.177408854 466.364257812 241.808919271 335.504882812 -8.5732421875 c 1
 475.652972456 8.26596829365 596.568836858 -87.7831240724 625.446289062 -209.834960938 c 0
 654.448928222 -328.505410338 598.231571055 -426.946907299 534.897460938 -478.491210938 c 0
 468.334386564 -532.48434982 367.987553499 -558.802703967 268.069335938 -519.067382812 c 0
 223.219075521 -501.022460937 187.332356771 -474.571289063 160.409179688 -439.713867188 c 0
 48.2522209189 -294.440182264 108.288015596 -111.092852967 239.799804688 -38.9306640625 c 1
 289.795898437 52.3564453125 339.460611979 155.333333333 388.793945312 270 c 0
 471.460611979 463.333333333 486.803710937 625.838867187 434.823242188 757.516601562 c 0
 388.814872889 873.092065217 321.65601686 926.208513151 181.922851562 952.670898438 c 0
557.409179688 -226.290039062 m 128
 533.608078017 -127.8792835 412.108225872 -34.0788859408 290.471679688 -91.8828125 c 0
 229.094726563 -121.049479167 191.133138021 -165.989257813 176.586914062 -226.702148438 c 128
 151.992947081 -329.365997627 214.306694391 -422.077736819 294.131835938 -454.100585938 c 128
 413.864821933 -502.131550884 519.014372834 -425.826302803 551.788085938 -337.434570312 c 128
 564.902669271 -302.064127604 566.776367188 -265.015950521 557.409179688 -226.290039062 c 128
EndSplineSet
EndChar

StartChar: u2
Encoding: 3394 3394 98
Width: 1029
GlyphClass: 2
Flags: HW
LayerCount: 2
Fore
SplineSet
522 -57 m 5
 638.571982195 -114.708902077 739.057182777 -279.756113299 651 -450 c 4
 608.279192778 -533.068236266 518.103202065 -602.81836936 402.5 -606.5 c 132
 209.768003882 -612.637961661 54.2482910853 -429.10991052 112 -235 c 132
 136 -154.333333333 184 -94.6666666667 256 -56 c 5
 281.070083322 -0.0101472480909 363.520245095 174.448588231 385 226 c 4
 478.333333333 438.666666667 499 611 447 743 c 4
 407.396678092 840.843501182 331.353469607 914.309579787 226 936 c 4
 206.666666667 939.333333333 197 951 197 971 c 4
 197 990.124588348 217.035826834 1008.88092738 239 1004 c 4
 424.856159478 966.828768106 550.216442228 797.579659269 546 572 c 4
 544.666666667 467.333333333 512.666666667 342.666666667 450 198 c 4
 436.796684966 167.992465831 369.220040294 23.2175856241 355 -7 c 5
 474.333333333 33.6666666667 589.333333333 21.3333333333 700 -44 c 4
 823.690197546 -116.464964219 933.161900421 -263.971630403 929 -457.5 c 132
 925.047991837 -641.268379567 823.012100135 -777.381178952 711.5 -851.5 c 132
 616.143091707 -914.880939045 488.532348296 -953.804569111 337.5 -920.5 c 132
 272.5 -906.166666667 213.333333333 -880 160 -842 c 4
 150 -835.333333333 145 -826.5 145 -815.5 c 132
 145 -795.535655106 160.065129722 -778 179 -778 c 132
 187.666666667 -778 195 -780.333333333 201 -785 c 4
 277.001686722 -838.648249451 390.987741521 -879.697439102 519 -855.5 c 132
 645.786541582 -831.534251287 735.782516914 -758.908523585 801 -660.5 c 132
 838.333333333 -604.166666667 857.666666667 -536 859 -456 c 4
 861.666666667 -340 822.333333333 -242 741 -162 c 4
 678.333333333 -100 605.333333333 -65 522 -57 c 5
269 -136 m 5
 227.666666667 -172.666666667 197.666666667 -216.666666667 179 -268 c 4
 136.968253106 -373.079367251 225.769253789 -476.989023486 287.5 -510.5 c 132
 358.743976925 -549.175301759 445.373267946 -544.268424271 510.5 -503 c 132
 544.166666667 -481.666666667 569.333333333 -455.333333333 586 -424 c 4
 696.330452447 -207.936197291 451.904497634 -8.163523159 269 -136 c 5
EndSplineSet
EndChar

StartChar: r1
Encoding: 3395 3395 99
Width: 430
GlyphClass: 2
Flags: HW
LayerCount: 2
Fore
SplineSet
33 1044 m 0
 9 1084 72 1119 94 1079 c 0
 221 859 300 611 324 358 c 0
 355 36 277 -227 93 -381 c 0
 36 -429 -31 -465 -111 -496 c 0
 -191 -527 -266 -529 -335 -528 c 0
 -468 -525 -568 -498 -632 -425 c 0
 -686 -364 -703 -270 -655 -188 c 0
 -632 -149 -599 -119 -562 -97 c 0
 -488 -54 -403 -45 -325 -46 c 0
 -247 -47 -163 -57 -90 -101 c 0
 -21 -143 54 -235 22 -347 c 1
 206 -213 285 39 255 351 c 0
 232 594 155 833 33 1044 c 0
-333 -116 m 0
 -446 -116 -550 -146 -595 -223 c 0
 -649 -316 -579 -397 -512 -427 c 0
 -406 -475 -240 -460 -128 -423 c 1
 -65 -389 -12 -311 -60 -227 c 0
 -106 -147 -216 -116 -333 -116 c 0
EndSplineSet
EndChar

StartChar: e1
Encoding: 3398 3398 100
Width: 1419
GlyphClass: 2
Flags: HW
LayerCount: 2
Fore
SplineSet
178 525 m 1
 235.505317719 620.145162044 345.930231695 697 478.5 697 c 128
 709.105123343 697 869.41472046 506.733246287 839 295 c 0
 829.666666667 225.666666667 806.333333333 169.333333333 769 126 c 0
 661.642905554 2.28372925773 494.563332247 -52.8575818441 328 35 c 128
 214.488402352 94.8742493085 132.051362869 208.899215805 108 352.5 c 128
 96.6666666667 420.166666667 97.6666666667 486 111 550 c 0
 139 684.666666667 205 796.666666667 309 886 c 0
 413 976 530.5 1024.66666667 661.5 1032 c 128
 948.764667997 1048.08097377 1163.71688446 884.895197633 1259.5 685 c 128
 1377.18753801 439.391225045 1309.91512907 174.593623535 1161 9 c 0
 1154.33333333 1 1146 -3 1136 -3 c 128
 1116.69382307 -3 1100 12.9858547804 1100 32 c 128
 1100 41.3333333333 1103 49.3333333333 1109 56 c 0
 1241.49232424 202.815818754 1299.82718735 437.109142026 1196 655 c 128
 1113.38412649 828.376973997 922.539980318 976.94181699 676 962 c 0
 423.924431274 948.225378757 217.109171632 756.384724072 179 529 c 0
 178.333333333 527 178 525.666666667 178 525 c 1
745 463 m 0
 701.239085342 556.903629372 613.286424359 627 480 627 c 128
 388.287944916 627 305.662388413 575.711425806 261 521 c 128
 216.415547657 466.38404588 181.292746238 379.213082251 200 281 c 0
 203.333333333 264.333333333 218.333333333 236.166666667 245 196.5 c 128
 271.666666667 156.833333333 310 123.666666667 360 97 c 0
 447.333333333 51 533.666666667 49.6666666667 619 93 c 0
 686.333333333 127 732.333333333 180 757 252 c 0
 781 324 777 394.333333333 745 463 c 0
EndSplineSet
EndChar

StartChar: e2
Encoding: 3399 3399 101
Width: 1010
GlyphClass: 2
Flags: HW
LayerCount: 2
Fore
SplineSet
910.413085938 225.243164062 m 0
 910.413085938 75.166015625 772.689453125 -15.951171875 623.046875 -15.951171875 c 0
 581.344726562 -15.951171875 536.708984375 -9.3310546875 490.248046875 5 c 0
 308.661132812 61.0078125 168.615234375 198.776367188 118.224609375 385.416015625 c 128
 105.690429688 431.841796875 100.032226562 477.162109375 100.032226562 520.734375 c 0
 100.032226562 678.419921875 174.131835938 813.205078125 264.58203125 894.572265625 c 0
 338.063476562 960.674804688 456.470703125 1018.22949219 583.655273438 1018.22949219 c 0
 625.567382812 1018.22949219 668.432617188 1011.97949219 710.95703125 997.725585938 c 0
 719.888671875 997.240234375 727.02734375 994.743164062 733.361328125 989.322265625 c 0
 816.744140625 954.4921875 894.141601562 881.07421875 894.141601562 769.012695312 c 0
 894.141601562 659.80078125 805.963867188 574.583984375 691.529296875 574.583984375 c 0
 576.124023438 574.583984375 487.203125 670.146484375 487.203125 785.813476562 c 0
 487.203125 853.870117188 520.706054688 912.037109375 561.17578125 946.828125 c 1
 393.392578125 937.002929688 276.03125 837.083984375 215.90234375 715.86328125 c 128
 186.94140625 657.4765625 169.947265625 592.01171875 169.947265625 521.967773438 c 0
 169.947265625 483.708984375 175.017578125 444.083984375 185.9765625 403.5 c 128
 232.643554688 230.670898438 368.943359375 99.5986328125 549.9453125 61.841796875 c 1
 512.982421875 98.4677734375 485.665039062 155.139648438 485.665039062 217.260742188 c 0
 485.665039062 245.701171875 491.390625 275.283203125 504.537109375 304.606445312 c 128
 535.581054688 373.852539062 603.810546875 432.384765625 701.2265625 432.384765625 c 0
 824.241210938 432.384765625 910.413085938 334.5078125 910.413085938 225.243164062 c 0
823.85546875 769.89453125 m 0
 823.85546875 853.043945312 761.517578125 904.005859375 697.244140625 928.060546875 c 1
 620.176757812 926.798828125 557.021484375 867.356445312 557.021484375 788.084960938 c 0
 557.021484375 712.072265625 613.202148438 644.74609375 692.696289062 644.74609375 c 0
 766.33203125 644.74609375 823.85546875 698.458984375 823.85546875 769.89453125 c 0
701.8359375 69.1552734375 m 0
 707.370117188 69.1552734375 713.125 69.9267578125 718.75 69.9267578125 c 0
 719.174804688 69.9267578125 719.611328125 69.91796875 720.05859375 69.9013671875 c 0
 783.432617188 93.884765625 840.495117188 160.893554688 840.495117188 229.958007812 c 0
 840.495117188 297.6015625 778.391601562 361.499023438 699.166015625 361.499023438 c 0
 618.502929688 361.499023438 555.271484375 297.553710938 555.271484375 217.104492188 c 0
 555.271484375 133.911132812 619.923828125 69.1552734375 701.8359375 69.1552734375 c 0
EndSplineSet
EndChar

StartChar: xx
Encoding: 3405 3405 106
Width: 142
GlyphClass: 4
Flags: HW
LayerCount: 2
Fore
SplineSet
-229.883789062 1429.96679688 m 0
 -210.787952604 1429.96679688 -194.879882812 1414.00147509 -194.879882812 1394.96289062 c 0
 -194.879882812 1391.90169271 -195.275065104 1388.89127604 -196.065429688 1385.93164062 c 0
 -224.663987114 1272.42556489 -161.945415911 1183.37610217 -90 1144 c 128
 -33.1549181495 1112.88838958 33.2921135267 1107.26035705 98.1962890625 1135.00488281 c 128
 176.95966317 1168.67219583 253.023693362 1258.43660325 223.920898438 1382.49023438 c 0
 223.217773438 1385.28971354 222.866210938 1388.13248698 222.866210938 1391.01855469 c 0
 222.866210938 1410.18383999 238.705096767 1426.02148438 257.870117188 1426.02148438 c 0
 314.659431795 1426.02148438 301.765691868 1310.20798058 291.444335938 1266.48632812 c 128
 269.343615888 1172.87606913 206.46490524 1104.77743731 125.84765625 1070.31738281 c 128
 -15.1583920326 1010.04616447 -155.28943216 1079.17292894 -217.504882812 1164.31054688 c 128
 -259.60531435 1221.92062009 -287.89073255 1307.99255121 -263.944335938 1403.03515625 c 0
 -260.724903336 1416.61959137 -246.135867621 1429.96679688 -229.883789062 1429.96679688 c 0
EndSplineSet
EndChar

StartChar: dotreph
Encoding: 3406 3406 107
Width: 0
GlyphClass: 4
Flags: HW
LayerCount: 2
Fore
SplineSet
0 1284.4140625 m 4
 0 1322.84472656 31.1552734375 1354 69.5859375 1354 c 4
 108.017578125 1354 139.172851562 1322.84472656 139.172851562 1284.4140625 c 4
 139.172851562 1245.98242188 108.017578125 1214.82714844 69.5859375 1214.82714844 c 4
 31.1552734375 1214.82714844 0 1245.98242188 0 1284.4140625 c 4
EndSplineSet
EndChar

StartChar: au2
Encoding: 3415 3415 108
Width: 1584
GlyphClass: 2
Flags: HW
LayerCount: 2
Fore
SplineSet
754 535 m 132
 705.920110578 535 716 580.603005077 716 634 c 4
 717.444466082 823.225056674 604.365005488 959.124897081 427 942 c 4
 330.775412798 931.946684919 249.041008984 871.190403615 208.5 801 c 132
 166.399936602 728.110337996 156.61937242 625.452528978 194 541 c 4
 203.801241086 518.130437464 188.254686756 491 165 491 c 4
 147.666666667 491 136.333333333 498.333333333 131 513 c 4
 82.8208625761 618.994102333 93.5915265975 743.404269213 147.5 836 c 132
 219.45232312 959.588696184 398.302789801 1063.77321443 583 988 c 4
 671.666666667 951.333333333 731.666666667 884.333333333 763 787 c 5
 811 882.333333333 884.333333333 947.666666667 983 983 c 4
 1175.86051349 1051.87875481 1343.44665453 943.329855164 1418 826 c 4
 1543.94388635 627.065906802 1472.81934678 383.513086029 1341.5 242 c 132
 1210.95782299 101.324411989 999.906484993 -4.6487085084 741 0.5 c 132
 623.666666667 2.83333333333 512.666666667 27.6666666667 408 75 c 4
 394 81 387 90.3333333333 387 103 c 132
 387 124.125176825 399.60272041 142 418.5 142 c 132
 426.166666667 142 432.333333333 141 437 139 c 4
 855.484326112 -51.220148233 1347.56710436 172.285177668 1408 527 c 4
 1433.44342907 681.780860182 1365.65677945 816.768938969 1264.5 884.5 c 132
 1193.50288575 932.03719824 1104.35979393 951.424854365 1006 916.5 c 132
 878.29882485 871.156829114 793.709878406 757.327203321 787 603 c 4
 787 601 787 601 787 595 c 132
 787 566.305985664 782.665045555 535 754 535 c 132
EndSplineSet
EndChar

StartChar: datemark
Encoding: 3449 3449 109
Width: 2465
GlyphClass: 2
Flags: HW
LayerCount: 2
Fore
SplineSet
745.5 87 m 132
 763.671411054 87 776 67.5491904367 776 46 c 132
 776 32 767 22.6666666667 749 18 c 4
 584.670012658 -26.1256447492 429.425322089 18.8065729169 324 91 c 132
 167.251694313 198.338513677 41.1328520712 427.441838481 128 681 c 132
 177.870088506 826.566744826 281.236488443 931.958495047 419 991 c 132
 489 1021 562 1033.66666667 638 1029 c 4
 841.069340116 1017.81397702 993.252349633 901.242951102 1054 719 c 5
 1123.36928642 908.087248485 1313.23432108 1046.80771882 1577.5 1023 c 132
 1808.30762641 1002.20652014 1984.02256118 831.186776049 2048 638 c 5
 2330 633 l 6
 2348.75378989 633 2365 617.425396571 2365 598.5 c 132
 2365 583.471914717 2350.80531761 563 2337.5 563 c 132
 2330 563 2330 563 2329 563 c 6
 2067 567 l 5
 2103.09905061 384.175775958 2042.47803455 214.988980206 1948.5 116.5 c 132
 1880.9955711 45.75535852 1762.10446982 -20.669283649 1626.5 5.5 c 132
 1511.54864519 27.6835947875 1424.09069069 101.579915532 1385.5 201 c 132
 1365.83333333 251.666666667 1360 304 1368 358 c 4
 1384.66666667 464.666666667 1447.33333333 542.333333333 1556 591 c 4
 1644.66666667 631 1783.66666667 647 1973 639 c 5
 1914.51344832 789.571760714 1794.85167985 900.931213488 1634 941.5 c 132
 1558.66666667 960.5 1489.66666667 963 1427 949 c 4
 1240.33333333 907 1130.66666667 795.333333333 1098 614 c 4
 1091.33333333 575.333333333 1087.66666667 518.666666667 1087 444 c 6
 1084 34 l 5
 1084 33 l 6
 1084 14.2291983313 1067.39011786 -1 1048.5 -1 c 132
 1029.57667307 -1 1014 14.2247023787 1014 33 c 6
 1016 443 l 6
 1017.35218066 609.318220193 1006.18460112 697.36598826 938.5 796.5 c 132
 849.025752394 927.548140432 649.090677868 1007.03627115 451.5 928 c 132
 329.526118893 879.210447557 238.023247391 785.052211642 194.5 658.5 c 132
 119.115788927 439.305909345 229.760351866 240.418491433 363 148.5 c 132
 453.237274538 86.2477030093 590.404568734 47.7947197643 731 86 c 4
 734.333333333 86.6666666667 739.166666667 87 745.5 87 c 132
1974 569 m 5
 1847.33333333 571 1759.66666667 568.333333333 1711 561 c 4
 1565.78018673 540.11871966 1459.24629207 478.727010793 1438 347 c 132
 1422.42465677 250.432872026 1468.63948786 171.375928271 1523 127 c 132
 1584.22147182 77.0232883145 1678.22828632 52.1518745827 1776.5 87 c 132
 1946.22441516 147.185962824 2042.88639455 346.670310943 1995 569 c 5
 1974 569 l 5
EndSplineSet
EndChar

StartChar: ZWNJ
Encoding: 8204 8204 110
Width: 321
GlyphClass: 2
Flags: HW
LayerCount: 2
Fore
SplineSet
66 1032 m 1
 225 1032 l 1
 225 43 l 1
 66 43 l 1
 66 1032 l 1
EndSplineSet
EndChar

StartChar: ZWJ
Encoding: 8205 8205 111
Width: 321
GlyphClass: 2
Flags: HW
LayerCount: 2
Fore
SplineSet
148 1012 m 1
 14 804 l 1
 -90 804 l 1
 96 1076 l 1
 -76 1324 l 1
 33 1324 l 1
 111 1203 l 2
 117 1193.66666667 128.333333333 1174 145 1144 c 1
 270 1324 l 1
 377 1324 l 1
 199 1080 l 1
 387 804 l 1
 283 804 l 1
 148 1012 l 1
70 888 m 1
 224 888 l 1
 224 13 l 1
 70 13 l 1
 70 888 l 1
EndSplineSet
EndChar

StartChar: rupee
Encoding: 8377 8377 112
Width: 1231
GlyphClass: 2
Flags: HW
LayerCount: 2
Fore
SplineSet
100 1245.5 m 128
 100 1280.23993121 130.405443994 1311 165 1311 c 0
 266.333333333 1310.33333333 368 1310 470 1310 c 2
 1059 1308 l 2
 1094.44898207 1308 1124 1277.77579624 1124 1242.5 c 128
 1124 1207.96715079 1093.79662442 1176.66166828 1059 1178 c 0
 957 1178 855.333333333 1178.33333333 754 1179 c 1
 803.333333333 1108.33333333 821.333333333 1027.33333333 808 936 c 1
 894 936 980.333333333 935.666666667 1067 935 c 0
 1102.44694088 935 1132 905.79911905 1132 870.5 c 128
 1132 835.760068793 1101.594556 805 1067 805 c 0
 967.666666667 805.666666667 868 806 768 806 c 1
 698.258860537 660.258900865 565.017263633 535.885327135 399 473 c 1
 891 82 l 2
 956.13262556 29.2735888323 874.687881671 -72.3663804003 810 -20 c 2
 218 450 l 2
 174.607956029 484.256876818 196.033933775 557.301323521 248 565 c 0
 407.462022977 592.295301231 541.108075067 690.162112601 619 807 c 1
 470.333333333 807.666666667 321.666666667 808 173 808 c 0
 137.551017933 808 108 838.224203763 108 873.5 c 128
 108 908.580495196 137.352990793 939.320259601 173 938 c 1
 676 937 l 1
 703.687284226 1067.5257685 627.981327892 1164.00266746 523 1179 c 1
 477 1180 l 2
 465.871589728 1180 454.879511488 1175.72938108 441 1180 c 1
 349 1180 257 1180.33333333 165 1181 c 0
 129.553059123 1181 100 1210.20088095 100 1245.5 c 128
EndSplineSet
EndChar

StartChar: uni25CC
Encoding: 9676 9676 113
Width: 1131
GlyphClass: 2
Flags: HW
LayerCount: 2
Fore
SplineSet
930 710 m 1
 887.333333333 781.333333333 842 825.666666667 794 843 c 1
 868 944 l 1
 921.333333333 909.333333333 958.666666667 881.333333333 980 860 c 1
 984 858 l 1
 1009.33333333 826.666666667 1027.33333333 802 1038 784 c 1
 930 710 l 1
686 1017 m 1
 666 897 l 1
 623.333333333 903.666666667 590.666666667 907 568 907 c 128
 545.333333333 907 512.666666667 903.666666667 470 897 c 1
 450 1017 l 1
 497.333333333 1027.66666667 537.333333333 1033 570 1033 c 128
 602.666666667 1033 641.333333333 1027.66666667 686 1017 c 1
1098 630 m 1
 1107.33333333 592 1112 554.5 1112 517.5 c 128
 1112 480.5 1107.33333333 443 1098 405 c 1
 972 426 l 1
 978 466 981 495.5 981 514.5 c 128
 981 533.5 978 565 972 609 c 1
 1098 630 l 1
1038 250 m 1
 999.333333333 196.666666667 971.333333333 160.666666667 954 142 c 1
 952 142 l 1
 950.666666667 140.666666667 922.666666667 123.666666667 868 91 c 1
 794 192 l 1
 842 221.333333333 873.333333333 244 888 260 c 1
 912 294.666666667 926 316.333333333 930 325 c 1
 1038 250 l 1
348 843 m 1
 292 811.666666667 260 787.666666667 252 771 c 1
 212 710 l 1
 104 784 l 1
 138.666666667 834.666666667 166 869.333333333 186 888 c 0
 194 894 222 912.666666667 270 944 c 1
 348 843 l 1
170 426 m 1
 42 405 l 1
 34 442.333333333 30 479.666666667 30 517 c 128
 30 554.333333333 34 592 42 630 c 1
 170 609 l 1
 162 587 158 556.5 158 517.5 c 128
 158 478.5 162 448 170 426 c 1
686 18 m 1
 655.333333333 8.66666666667 617 4 571 4 c 128
 525 4 484.666666667 8.66666666667 450 18 c 1
 470 138 l 1
 513.333333333 131.333333333 546.166666667 128 568.5 128 c 128
 590.833333333 128 623.333333333 131.333333333 666 138 c 1
 686 18 l 1
212 325 m 1
 277.523568096 224.093705132 259.20038921 247.910866054 348 192 c 1
 270 91 l 1
 208.666666667 130.333333333 171.333333333 158.333333333 158 175 c 1
 156 175 l 1
 104 250 l 1
 212 325 l 1
EndSplineSet
EndChar

StartChar: r4
Encoding: 65539 -1 114
Width: 623
GlyphClass: 2
LigCaretCntFixed: 1
Flags: HW
LayerCount: 2
Fore
SplineSet
490 -265 m 4
 535.516405177 -265 532.348800867 -338.023253393 487 -335 c 4
 371.453469179 -331.312344761 227.348697366 -294.36947576 175 -231 c 4
 95 -134.333333333 79 56.6666666667 127 342 c 4
 152.916815198 494.724089555 212.871903598 803.359517988 239 934 c 4
 242.333333333 952.666666667 254.333333333 962.333333333 275 963 c 4
 302.305962789 963 311.369669635 938.848348177 304.5 904.5 c 132
 281.250560097 788.252800473 219.857817395 472.969587729 196 329 c 132
 176.666666667 212.333333333 167.666666667 108.833333333 169 18.5 c 132
 170.333333333 -71.8333333333 190.333333333 -140 229 -186 c 4
 270.630537438 -236.551366889 395.656200976 -261.589983168 490 -265 c 4
EndSplineSet
LCarets2: 1 0
EndChar

StartChar: y2
Encoding: 65540 -1 115
Width: 618
GlyphClass: 2
LigCaretCntFixed: 1
Flags: HW
LayerCount: 2
Fore
SplineSet
70.0166015625 20.99609375 m 132
 88.771606259 20.99609375 102.809570312 3.39314655858 102.809570312 -16.767578125 c 132
 102.809570312 -28.2688802083 95.778645833 -38.23828125 81.716796875 -46.67578125 c 132
 -4.99472302982 -98.7091165661 -65.820934235 -229.973460364 0.005859375 -354.44140625 c 4
 45.6196199634 -440.684718385 163.436883956 -517.547275658 302.724609375 -468.55859375 c 132
 360.854166666 -448.11328125 406.720703125 -411.9609375 440.32421875 -360.1015625 c 4
 500.212239583 -267.677734375 502.337890625 -161.024739583 446.701171875 -40.142578125 c 4
 429.6015625 -2.98763020833 403.086588541 42.9951171875 367.15625 97.8056640625 c 132
 294.500145104 208.638840222 279.392144989 226.062442783 217.62890625 338.626953125 c 132
 159.131888414 445.238722578 112.125409097 559.896980971 109.71875 731.12109375 c 132
 108.5859375 811.716145833 119.344401042 890.173177083 141.994140625 966.4921875 c 4
 146.782552083 983.505859375 156.010416666 992.012695312 169.677734375 992.012695312 c 4
 197.01953125 992.012695312 210.690429688 980.344726562 210.690429688 957.008789062 c 4
 210.690429688 953.447591146 210.16015625 949.970052084 209.099609375 946.576171875 c 4
 160.723958333 783.573567708 169.045247395 623.986653646 234.063476562 467.815429688 c 4
 305.902755905 295.269482857 452.743037458 114.151739327 517.624023438 -26.8115234375 c 132
 573.007971692 -147.146049848 572.081204332 -285.48756129 498.688476562 -398.750976562 c 132
 432.246999447 -501.286865918 280.729022541 -598.06912466 105.44140625 -533.052734375 c 4
 -19.8442881812 -486.58246892 -135.537612217 -342.433422913 -86.2578125 -163.72265625 c 132
 -64.828125 -86.0143229167 -19.673828125 -26.2252604167 49.205078125 15.64453125 c 4
 54.8919270833 19.2122395833 61.8291015625 20.99609375 70.0166015625 20.99609375 c 132
EndSplineSet
LCarets2: 1 3
EndChar

StartChar: v2
Encoding: 65543 -1 118
Width: 399
GlyphClass: 3
LigCaretCntFixed: 1
Flags: HW
LayerCount: 2
Fore
SplineSet
224.895507812 1013.99609375 m 4
 225.117294047 1033.10701958 239.724897322 1049.00650528 259.254882812 1048.99414062 c 4
 259.751627604 1048.99804687 259.899414062 1049 259.899414062 1049 c 6
 278.746479376 1049 295.032989764 1032.77851735 294.903320312 1013.99609375 c 6
 299.155273438 -250.544921875 l 6
 298.830674352 -270.310760575 285.129866306 -285.6640625 264.155273438 -285.6640625 c 6
 -267.500976562 -285.6640625 l 6
 -286.610840441 -286.106831623 -303 -269.864427282 -303 -250.6640625 c 4
 -303 -231.129630939 -286.803797019 -216.116242509 -267.99609375 -215.661132812 c 6
 229.036132812 -220.6640625 l 5
 224.901367188 1008.3828125 l 6
 224.967122396 1010.12760417 224.965169271 1011.99869792 224.895507812 1013.99609375 c 4
EndSplineSet
LCarets2: 1 0
EndChar

StartChar: k1cil
Encoding: 3455 3455 119
Width: 1998
GlyphClass: 3
Flags: HW
LayerCount: 2
Fore
SplineSet
1493 1417 m 4
 1469.30642298 1437.0484113 1483.21383582 1479 1515 1479 c 4
 1539 1479 1570 1450 1608 1392 c 4
 1676.66666667 1288 1689.66666667 1173.66666667 1647 1049 c 4
 1596.75199554 901.978061028 1487.6285815 768.300880085 1450 620 c 5
 1608.66666667 606.666666667 1728.33333333 556.333333333 1809 469 c 4
 1899.4962321 371.166235565 1934.85436425 218.205060752 1847.5 92.5 c 132
 1806.5 33.5 1753.5 0.5 1688.5 -6.5 c 132
 1623.5 -13.5 1566.33333333 -0.333333333333 1517 33 c 4
 1445 81.6666666667 1397.33333333 153.333333333 1374 248 c 5
 1330 158 1266.66666667 91 1184 47 c 4
 1061.1948557 -18.4070877275 923.386455376 -11.5592520882 810 57 c 132
 752.666666667 91.6666666667 705 138.666666667 667 198 c 5
 639.666666667 118 587.666666667 60.3333333333 511 25 c 4
 369.373166457 -39.8412008998 225.772981973 20.9805600068 156 113 c 132
 64.9330263762 233.102820287 95.3944093382 388.558217965 187 479.5 c 132
 283.558682962 575.358982361 406.000395754 613.537428428 596 620 c 5
 613.333333333 713.333333333 644.333333333 788.333333333 689 845 c 4
 778.333333333 957 883 1013.66666667 1003 1015 c 4
 1063 1015.66666667 1119.66666667 1002.33333333 1173 975 c 4
 1283 919 1358.66666667 826 1400 696 c 5
 1415.33333333 738.666666667 1437.33333333 785.666666667 1466 837 c 132
 1494.66666667 888.333333333 1512.33333333 920 1519 932 c 4
 1574.33333333 1035.33333333 1601.33333333 1122 1600 1192 c 4
 1598.49636289 1288.23277467 1549.79453484 1369.47804229 1493 1417 c 4
1347 625 m 5
 1317.45948643 759.704741863 1245.05229304 860.696528146 1144 912 c 4
 1050.66666667 959.333333333 958 958.333333333 866 909 c 4
 768.192870811 856.215200119 695.415106978 755.787795354 667 622 c 5
 681 622 681 622 703 622 c 6
 1272 625 l 6
 1314 625 1314 625 1347 625 c 5
1358 554 m 5
 1335.33333333 554.666666667 1306.66666667 555 1272 555 c 6
 704 552 l 6
 678 552 678 552 657 552 c 5
 640.492079977 355.968449729 718.931142948 194.83054009 847.5 116 c 132
 937.720579533 60.6822724036 1051.5042982 56.0022806792 1149.5 108 c 132
 1290.61754736 182.878698601 1375.19299947 353.752123732 1358 554 c 5
1437 551 m 5
 1405.66666667 319.666666667 1443.66666667 167.666666667 1551 95 c 4
 1700.70132149 -6.36026975683 1845.39389117 135.446252567 1826.5 278.5 c 132
 1819.5 331.5 1797.33333333 378.333333333 1760 419 c 4
 1689.33333333 495.666666667 1581.66666667 539.666666667 1437 551 c 5
613 314 m 4
 589.666666667 387.333333333 581 466 587 550 c 5
 427.666666667 543.333333333 314.666666667 507 248 441 c 132
 181.333333333 375 158 303.333333333 178 226 c 4
 204.004853434 124.457238971 316.507579228 39.6881005826 455.5 79.5 c 132
 521.833333333 98.5 568.666666667 141.666666667 596 209 c 4
 614.674012643 254.751330977 613 273.827798292 613 312 c 132
 613 313 613 313 613 314 c 4
EndSplineSet
EndChar

StartChar: nhcil
Encoding: 3450 3450 120
Width: 2862
GlyphClass: 2
Flags: HW
LayerCount: 2
Fore
SplineSet
1078 -1 m 128
 1059.51569966 -1 1043 14.4901974637 1043 33 c 2
 1040 422 l 2
 1038.6654446 595.492201678 1026.79224181 682.017917571 952.5 782 c 128
 890.354769847 865.634702261 780.414132435 932.020090822 643 929 c 0
 518.333333333 927 412 882.666666667 324 796 c 0
 211.333333333 685.333333333 160.666666667 550 172 390 c 1
 216.598063466 510.220866734 334.844569917 607.933190963 506.5 583 c 128
 681.484931863 557.583194254 823.019119279 352.787804031 724 157 c 128
 671.737806287 53.6633897018 546.848632869 -29.5996612421 383 11 c 128
 307.666666667 29.6666666667 243.666666667 73 191 141 c 0
 187 144.333333333 184 148.333333333 182 153 c 0
 116.666666667 245.666666667 90.6666666667 359.5 104 494.5 c 128
 117.333333333 629.5 174.333333333 746.666666667 275 846 c 128
 415.8195324 984.954373029 639.565110281 1051.25071467 847 956 c 0
 952.333333333 907.333333333 1027 825.666666667 1071 711 c 1
 1103 812.333333333 1158.66666667 888.666666667 1238 940 c 0
 1297.33333333 978.666666667 1360.83333333 998 1428.5 998 c 128
 1496.16666667 998 1558 979.333333333 1614 942 c 0
 1694.66666667 889.333333333 1751.33333333 813 1784 713 c 1
 1849.66249003 890.288723086 2037.28941144 1051.49904851 2319 979 c 1
 2332.823747 1133.82596632 2248.12610561 1250.42367292 2153 1308 c 0
 2141.66666667 1314.66666667 2136 1322.66666667 2136 1332 c 0
 2136 1358.66666667 2145.66666667 1372.33333333 2165 1373 c 0
 2175 1373 2183 1371.33333333 2189 1368 c 0
 2305.40753244 1297.64379907 2411.43550972 1151.12654946 2387 957 c 1
 2575.81655029 880.86429424 2721.03275285 700.115822097 2755 480.5 c 128
 2786.54085402 276.572064469 2715.70101406 114.828353627 2589 33.5 c 128
 2496.16700951 -26.0887438981 2378.89636737 -26.0970683522 2286 29.5 c 128
 2242 55.8333333333 2206 91 2178 135 c 0
 2108 244.333333333 2097 370 2145 512 c 0
 2177.57799552 607.227986937 2222.17077861 694.836019939 2261.5 778.5 c 128
 2279.83333333 817.5 2295 861.333333333 2307 910 c 1
 2227.66666667 932 2154 932.666666667 2086 912 c 0
 1950.66666667 871.333333333 1866.66666667 779.333333333 1834 636 c 0
 1823.33333333 590 1818.33333333 522.333333333 1819 433 c 2
 1821 34 l 2
 1821 15.5156996612 1804.48365851 -1 1786 -1 c 128
 1767.51569966 -1 1751 14.4901974637 1751 33 c 2
 1751 34 l 1
 1748 429 l 2
 1746.66444116 583.924824473 1740.64316259 665.485880844 1685.5 766 c 128
 1639.86046947 849.191042996 1548.93996063 928 1428 928 c 128
 1374 928 1324 913 1278 883 c 0
 1143.42603272 794.623066258 1108.06970858 655.634969342 1110 424 c 2
 1113 34 l 2
 1113 15.5156996612 1096.48365851 -1 1078 -1 c 128
2374 886 m 1
 2333.67786903 726.833693591 2247.27336867 626.275132329 2208 479 c 0
 2175.33333333 356.333333333 2184 255.833333333 2234 177.5 c 128
 2303.75858956 68.2115430256 2432.85080398 16.9139886095 2553.5 93.5 c 128
 2658.90216799 160.407463161 2712.00885491 300.617052575 2685 471.5 c 128
 2655.5051754 658.111486472 2533.46089215 816.531888564 2374 886 c 1
243 189 m 1
 286.333333333 130.333333333 338 93.6666666667 398 79 c 128
 526.264823349 47.6463765146 620.798658253 109.020924846 662 189 c 128
 756.226620308 371.910498241 570.586146073 583.53547191 366.5 499.5 c 128
 264.268480409 457.404668405 182.352309334 324.850827087 243 189 c 1
EndSplineSet
LCarets2: 2 0 0
EndChar

StartChar: n1cil
Encoding: 3451 3451 121
Width: 2199
GlyphClass: 2
Flags: HW
LayerCount: 2
Fore
SplineSet
1487 1375.5 m 132
 1487 1394.93246115 1502.39388934 1411 1522 1411 c 132
 1532 1411 1540.33333333 1407.33333333 1547 1400 c 4
 1641.59654825 1304.34056918 1706.75691192 1163.86412854 1681 987 c 5
 1852.75954442 943.195552429 1989.40294178 820.74530667 2055 663 c 132
 2131.004941 480.226213314 2105.36740163 268.871570491 1995 135 c 4
 1931.72965311 58.639236516 1823.27597007 -13.5323880535 1693 -4 c 4
 1584.33333333 4 1499 49.6666666667 1437 133 c 4
 1326.33333333 281.666666667 1332.33333333 458.666666667 1455 664 c 4
 1499.54395271 737.668844878 1516.58843935 764.159622253 1557.5 838 c 132
 1571.16666667 862.666666667 1584 894 1596 932 c 5
 1421.45999019 951.090313573 1262.73590948 859.806330842 1185.5 767.5 c 132
 1122.70611962 692.453655155 1088.09738916 625.966846563 1086 519 c 132
 1085.33333333 485 1085 457.333333333 1085 436 c 6
 1082 34 l 6
 1082 15.4896473287 1065.48365851 0 1047 0 c 132
 1028.51569966 0 1012 15.4901974637 1012 34 c 6
 1013 453 l 6
 1013 593.919351541 1002.56537533 657.881177049 945 747.5 c 132
 915.666666667 793.166666667 875.333333333 832 824 864 c 4
 735.333333333 919.333333333 643.833333333 939.5 549.5 924.5 c 132
 376.181117063 896.94046031 265.154924826 801.782685315 207.5 670 c 132
 155.777266588 551.776609346 159.131463975 425.149472348 213 311.5 c 132
 265.827858993 200.046102367 361.803780992 116.42706578 488.5 81.5 c 132
 550.166666667 64.5 611.333333333 61.3333333333 672 72 c 4
 692.315078322 78.771692774 713 55.8204493677 713 38 c 4
 713 16.6666666667 703 4.66666666667 683 2 c 4
 516.50220699 -26.0089745252 372.740593876 34.9023978617 280 112 c 132
 183.42293858 192.286954675 103.010478786 326.434145508 100 489 c 132
 96.9573181799 653.304818291 175.073502238 788.398668656 268 871 c 132
 322 919 384 953.666666667 454 975 c 4
 598.666666667 1019 734.333333333 1002 861 924 c 4
 952.333333333 867.333333333 1016 788.666666667 1052 688 c 5
 1103.33333333 804.666666667 1196.66666667 895 1332 959 c 4
 1416.66666667 999 1510 1012.66666667 1612 1000 c 5
 1632.68687404 1149.97983681 1577.52737095 1269.41305839 1497 1351 c 4
 1490.33333333 1357.66666667 1487 1365.83333333 1487 1375.5 c 132
1666 919 m 5
 1649.33333333 863 1616.5 794.5 1567.5 713.5 c 132
 1472.68400507 556.763355319 1352.51923724 362.713231662 1490 179 c 4
 1563.59393174 79.6004038748 1693.39297977 29.757361865 1827 91.5 c 132
 1950.90675084 148.759937886 2032.04919049 287.343713708 2029 452 c 4
 2026.33333333 585.333333333 1974.66666667 703 1874 805 c 4
 1821.33333333 858.333333333 1752 896.333333333 1666 919 c 5
EndSplineSet
LCarets2: 2 0 0
EndChar

StartChar: l3cil
Encoding: 3453 3453 122
Width: 2082
GlyphClass: 3
Flags: HW
LayerCount: 2
Fore
SplineSet
907 934 m 5
 1110.30437236 1040.36453918 1372.66023739 1048.67167409 1591 946 c 5
 1627.66666667 1082.66666667 1602.66666667 1190.33333333 1516 1269 c 4
 1478 1303 1434.33333333 1324.66666667 1385 1334 c 4
 1365.66666667 1337.33333333 1356 1349.33333333 1356 1370 c 4
 1356 1389.12458835 1376.03582683 1407.88092738 1398 1403 c 4
 1460.66666667 1391 1515.66666667 1363.66666667 1563 1321 c 4
 1674.33333333 1220.33333333 1704.66666667 1084 1654 912 c 5
 1811.40943807 817.784131955 1934.21602376 659.642878219 1972 466 c 4
 2008.20185997 275.117465588 1942.46921301 118.19405426 1825 41 c 132
 1732.40705607 -19.8467917243 1612.0438878 -18.0741291612 1522 43.5 c 132
 1476.66666667 74.5 1441.33333333 114.666666667 1416 164 c 4
 1350.66666667 290 1358.33333333 439 1439 611 c 4
 1469.20433686 677.161880731 1548.77664932 827.960114949 1569 879 c 5
 1382.12524564 970.041546998 1160.48685001 971.215490991 977 890 c 5
 1113.42198666 787.990766733 1201.82732115 632.445632342 1218.5 421.5 c 132
 1231.32065218 259.290879063 1153.08462244 110.476756682 1044.5 40.5 c 132
 955.766102464 -16.6840673009 839.162051213 -22.6640565483 742.5 32 c 132
 616.324521485 103.35440854 538.667638273 257.728247258 559 445 c 4
 580.397342649 642.513932141 698.90393521 798.109035144 835 891 c 5
 520.558990087 1028.7113912 226.17767994 820.536202747 178 550 c 132
 137.970738971 325.220303449 261.646773754 144.876083923 405 62 c 4
 417 55.3333333333 423 46.1666666667 423 34.5 c 132
 423 14.2707615208 409.644486478 -3 391 -3 c 132
 383 -3 376 -1.66666666667 370 1 c 4
 204.352550396 96.1353595694 62.6442044044 303.680141257 109 562.5 c 132
 168.072350175 892.320621814 548.864520256 1129.72520405 907 934 c 5
906 853 m 5
 793.333333333 785.666666667 712.666666667 692.666666667 664 574 c 4
 613.458180359 448.581410521 610.390250235 290.437621072 682 182 c 4
 706.666666667 144.666666667 738 115 776 93 c 4
 854.666666667 48.3333333333 932.333333333 51 1009 101 c 4
 1098.32548594 158.798843845 1158.56363568 285.046474303 1149 420 c 4
 1133 614.666666667 1052 759 906 853 c 5
1630 845 m 5
 1615.33333333 809 1592 759.666666667 1560 697 c 4
 1503.33333333 587.666666667 1468.33333333 504.666666667 1455 448 c 4
 1418.96574202 295.384319159 1467.65350383 165.544242575 1560 102.5 c 132
 1628.97121556 55.4138816877 1716.63278763 53.4759618894 1787.5 100.5 c 132
 1877.61561588 160.296343242 1934.12375589 293.041419649 1907 433 c 4
 1872.33333333 613 1780 750.333333333 1630 845 c 5
EndSplineSet
LCarets2: 2 0 0
EndChar

StartChar: lhcil
Encoding: 3454 3454 123
Width: 1957
GlyphClass: 3
Flags: HW
LayerCount: 2
Fore
SplineSet
1244 1391.5 m 132
 1244 1409.57125283 1260.78681217 1426 1279 1426 c 4
 1290.33333333 1426 1299.33333333 1421.66666667 1306 1413 c 4
 1407.33333333 1291.66666667 1439 1150.33333333 1401 989 c 5
 1639.65458017 954.906488548 1823.48852897 748.639735246 1853 501 c 132
 1877.6257492 294.357843654 1793.60580319 124.562396752 1657 44 c 132
 1552.75748365 -17.4763557959 1423.14023985 -14.7956308721 1321.5 47.5 c 132
 1226.11282327 105.963108314 1158.70341627 206.734172682 1140 335.5 c 132
 1123.17912597 451.305248066 1145.72805144 535.838544014 1174 615 c 132
 1196.56271897 678.175613121 1284.71276165 861.288818362 1308 923 c 5
 1175.33333333 914.333333333 1068.33333333 855.666666667 987 747 c 4
 925.828839516 664.879811954 899.007166734 561.258767227 883 430 c 132
 879.666666667 402.666666667 876.666666667 381 874 365 c 4
 836.666666667 131 726.666666667 6.33333333333 544 -9 c 4
 344.969506504 -24.9805505726 193.945293956 109.49843582 136.5 254 c 132
 51.983270889 466.598782507 120.721072471 681.251654261 243.5 817.5 c 132
 322.5 905.166666667 419.333333333 962.333333333 534 989 c 4
 536.666666667 989.666666667 541.166666667 990 547.5 990 c 132
 561.843590427 990 578 972.18625259 578 957 c 4
 578 937 568.666666667 925 550 921 c 4
 449.333333333 897.666666667 364.5 847.5 295.5 770.5 c 132
 226.5 693.5 186.666666667 610.166666667 176 520.5 c 132
 153.158338133 328.487279939 220.553394403 192.686262529 334 115 c 4
 420 56.3333333333 509.666666667 43 603 75 c 4
 649.666666667 91 691.833333333 121.166666667 729.5 165.5 c 132
 767.166666667 209.833333333 793.666666667 289.333333333 809 404 c 132
 824.333333333 518.666666667 840 600 856 648 c 4
 891.333333333 754 953.833333333 838 1043.5 900 c 132
 1133.16666667 962 1228.66666667 993.333333333 1330 994 c 5
 1366.66666667 1136.66666667 1340.66666667 1261.33333333 1252 1368 c 4
 1246.66666667 1374.66666667 1244 1382.5 1244 1391.5 c 132
1382 921 m 5
 1353.46633163 835.39899488 1298.16734534 727.105608851 1260 646 c 4
 1212 542 1195.5 439 1210.5 337 c 132
 1225.5 235 1274 158.666666667 1356 108 c 4
 1438.27262271 57.069328796 1538.32025496 55.1655909376 1622.5 105 c 132
 1737.78209656 173.247001158 1803.82500472 318.028710051 1783 494 c 132
 1757.3557945 710.693536511 1594.73101763 895.090452981 1382 921 c 5
EndSplineSet
LCarets2: 2 0 0
EndChar

StartChar: r3cil
Encoding: 3452 3452 124
Width: 1423
GlyphClass: 3
Flags: HW
LayerCount: 2
Fore
SplineSet
840 1374 m 4
 823.520945071 1398.71858239 844.089931543 1427 872 1427 c 132
 883.333333333 1427 892.666666667 1421.66666667 900 1411 c 4
 985.333333333 1273.66666667 989.666666667 1124.66666667 913 964 c 5
 1132.06168626 892.176496309 1340.69314921 676.148976233 1322 390 c 132
 1309.58002773 199.878886031 1181.30074108 33.1231909343 992 4 c 132
 851.732425326 -17.5796268728 735.643788294 42.9247075275 666 116.5 c 132
 594.481400184 192.05594013 542.989508185 306.870762561 560.5 450 c 132
 568.166666667 512.666666667 587.5 571.666666667 618.5 627 c 132
 666.19898772 712.140128617 762.569477759 844.612233302 808 918 c 5
 702.666666667 936.666666667 595.833333333 926.666666667 487.5 888 c 132
 336.498320575 834.104015958 203.236077303 699.448499492 175 517 c 4
 143.341536997 301.420942408 273.423686371 129.453408158 425 64 c 4
 457.640380741 50.0112653968 450.454088992 -4 415 -4 c 132
 407.666666667 -4 401.666666667 -2.66666666667 397 -0 c 4
 220.715462936 76.6952206705 68.1735348852 275.832271638 106 527 c 4
 126 662.333333333 190.166666667 772.833333333 298.5 858.5 c 132
 406.833333333 944.166666667 531.333333333 990.333333333 672 997 c 4
 730 999.666666667 787.333333333 994.666666667 844 982 c 5
 915.333333333 1124 914 1254.66666667 840 1374 c 4
880 901 m 5
 861.333333333 869 829.5 821.333333333 784.5 758 c 132
 739.5 694.666666667 704 638.166666667 678 588.5 c 132
 632.269470664 501.14296319 609.186556468 401.494842518 644 291 c 132
 674.316954099 194.776623945 744.753033596 119.362218132 837.5 86 c 132
 1008.90339525 24.3441024268 1155.12871104 132.584737129 1212 248 c 4
 1260 343.333333333 1267 447.5 1233 560.5 c 132
 1185.53774756 718.242191945 1052.13753578 847.346742093 880 901 c 5
EndSplineSet
LCarets2: 2 0 0
EndChar

StartChar: k1u1
Encoding: 65544 -1 125
Width: 1908
GlyphClass: 3
LigCaretCntFixed: 1
Flags: HW
LayerCount: 2
Fore
SplineSet
1519.36132812 274.055664062 m 132
 1519.36132812 300.173343741 1541.56954109 310.838716084 1571.33105469 309.71484375 c 4
 1621.77897136 307.809895833 1660.62434896 315.978841146 1687.8671875 334.221679688 c 4
 1736.88151042 367.043945313 1750.09863282 407.134765625 1727.51855469 454.494140625 c 4
 1684.10467537 545.535545743 1550.32233254 553.933989697 1394.84667969 548.470703125 c 5
 1414.11008254 320.803047496 1313.6101905 131.935685503 1154.59277344 47.1328125 c 132
 1038.53729086 -14.7600629607 901.48973923 -7.8671992688 794.459960938 56.7451171875 c 4
 734.305676768 93.0591268523 689.530557255 138.728047498 653.704101562 194.5859375 c 5
 611.444075863 74.099605523 493.089070943 -21.6180506878 321.427734375 7.66796875 c 132
 255.05859375 18.9908854167 199.856445313 53.728515625 155.821289062 111.880859375 c 4
 66.5412007737 229.778083431 94.8591533835 381.947808548 185.061523438 471.361328125 c 132
 278.990664807 564.469015219 398.684969762 602.867070704 583.053710938 609.181640625 c 5
 612.772560209 770.415964078 698.767538115 888.918709576 814.360351562 950.681640625 c 4
 925.349283854 1009.98632813 1036.87207031 1011.04882813 1148.92871094 953.869140625 c 4
 1265.97451508 894.143687468 1353.59740961 776.456321692 1385.03417969 618.345703125 c 5
 1519.96653378 623.396080317 1644.9880185 621.667460424 1718.59863281 566.159179688 c 4
 1788.66894531 513.319986979 1817.31803385 453.175130208 1804.54589844 385.724609375 c 4
 1795.18610163 336.293586521 1768.11495385 301.974477767 1724.75683594 274.99609375 c 5
 1775.12176774 246.575736358 1814.74760692 198.310336862 1807.16894531 124.6171875 c 132
 1800.28878522 57.7023108426 1734.55164898 13.1839450857 1674.59277344 -4.1875 c 4
 1611.81152344 -22.376953125 1549.51595052 -20.8450520833 1487.70605469 0.408203125 c 4
 1471.61751302 5.66536458333 1463.57324219 14.9401041667 1463.57324219 28.232421875 c 132
 1463.57324219 49.3358376499 1476.13875318 68.68359375 1494.39550781 68.68359375 c 132
 1501.26855468 68.68359375 1506.62532552 67.990234375 1510.46582031 66.603515625 c 4
 1558.30566406 50.154296875 1600.36816406 47.1858723958 1636.65332031 57.6982421875 c 4
 1700.7405599 76.2652994792 1734.59537761 103.165364583 1738.21777344 138.3984375 c 4
 1744.23705256 196.905013007 1670.31595058 233.636962384 1617.3515625 235.635742188 c 132
 1570.95699977 237.386588714 1546.37460235 231.106170174 1528.8125 250.10546875 c 132
 1522.51171875 256.921875 1519.36132812 264.905273437 1519.36132812 274.055664062 c 132
1314.01269531 615.548828125 m 5
 1285.33023768 745.01691869 1214.52913273 841.807076205 1117.11230469 891.517578125 c 4
 1026.76464844 937.619791667 936.843424479 936.761067709 847.348632812 888.94140625 c 4
 751.83918049 837.90903825 682.45306466 740.826000372 654.754882812 610.603515625 c 5
 663.555013021 610.666015625 674.823242187 610.733723958 688.559570312 610.806640625 c 6
 1242.48730469 613.724609375 l 6
 1261.34798177 613.823567708 1285.18977864 614.431640625 1314.01269531 615.548828125 c 5
1324.85644531 545.765625 m 5
 1292.29654948 544.522135417 1264.96321614 543.842447917 1242.85644531 543.7265625 c 6
 688.926757812 540.806640625 l 6
 671.349283854 540.712890625 656.515299479 540.598307292 644.424804688 540.462890625 c 5
 628.446610118 351.044894607 704.270935631 192.95426163 829.502929688 117.354492188 c 132
 917.714649527 64.1030388973 1027.28189441 58.5713063949 1122.85253906 109.537109375 c 132
 1260.51319562 182.949625318 1342.57684964 350.366286693 1324.85644531 545.765625 c 5
599.635742188 309.947265625 m 4
 576.730794271 381.3125 568.209309895 457.541015625 574.071289062 538.6328125 c 5
 419.485351562 531.914713541 308.136393229 494.797526041 240.024414062 427.28125 c 4
 166.002929687 353.90625 149.777994792 273.964192708 191.349609375 187.455078125 c 4
 221.568359375 124.56640625 272.331054687 86.8619791667 343.637695312 74.341796875 c 4
 485.482082144 49.4343782384 609.355120961 167.27725502 599.670898438 305.11328125 c 4
 599.602539063 306.000651042 599.568359375 306.84765625 599.568359375 307.654296875 c 132
 599.568359375 308.4609375 599.590820313 309.225260416 599.635742188 309.947265625 c 4
EndSplineSet
LCarets2: 1 0
EndChar

StartChar: k1u2
Encoding: 65545 -1 126
Width: 1951
GlyphClass: 3
LigCaretCntFixed: 1
Flags: HW
LayerCount: 2
Fore
SplineSet
1600 237 m 5
 1549.33942085 234.236695683 1522 239.160399024 1522 273 c 4
 1522 301 1548.33333333 312.333333333 1601 307 c 5
 1664.29340951 311.441642773 1728.49402502 341.717137617 1738 394 c 4
 1755.57149912 487.714661994 1653.19836227 537.944997006 1570.5 546.5 c 132
 1522.16666667 551.5 1464.33333333 553 1397 551 c 5
 1416.86877737 319.894747537 1316.99752186 131.084369015 1157.5 44.5 c 132
 1038.90411004 -19.8806259838 902.131113149 -11.2264979666 792 55.5 c 132
 735.333333333 89.8333333333 690.333333333 134.333333333 657 189 c 4
 656.333333333 190.333333333 655.666666667 191 655 191 c 4
 612.098455495 65.8704951932 478.187391289 -25.1048913017 332 1 c 4
 258.666666667 14.3333333333 199.666666667 50.8333333333 155 110.5 c 132
 66.8103839481 228.30553189 95.8088012589 381.808801259 185 471 c 4
 271.666666667 557.666666667 404.666666667 604.333333333 584 611 c 5
 600.666666667 702.333333333 631 776 675 832 c 4
 761.666666667 942.666666667 864.5 998.833333333 983.5 1000.5 c 132
 1102.5 1002.16666667 1206.33333333 947.666666667 1295 837 c 4
 1339.66666667 781.666666667 1370.66666667 709.666666667 1388 621 c 5
 1523.45636283 625.925685922 1648.00805536 622.493958471 1722 567 c 4
 1792 513.666666667 1820.66666667 453.333333333 1808 386 c 4
 1798.66666667 335.333333333 1768.66666667 296 1718 268 c 5
 1790.96118575 221.385909103 1841.92768702 133.132244232 1833 26 c 132
 1821.2301423 -115.23829238 1697.9691974 -187.661775404 1524 -189 c 6
 498 -198 l 6
 396 -198.666666667 325.333333333 -208.333333333 286 -227 c 132
 228.202530983 -254.429307331 166.405104393 -305.069914815 177 -381 c 4
 190.333333333 -475.666666667 275 -523.333333333 431 -524 c 4
 464 -524 464 -524 503 -524 c 6
 1816 -504 l 6
 1834.50661232 -504 1852 -517.026529231 1852 -538.5 c 132
 1852 -557.427161652 1835.75446268 -573 1817 -573 c 6
 504 -594 l 6
 465 -594 465 -594 429 -594 c 4
 265.339081832 -594.951516967 126.937992708 -530.181210204 107.5 -389 c 132
 101.166666667 -343 111.666666667 -300 139 -260 c 4
 209.302539965 -156.743144427 321.397579607 -129.714586607 498 -128 c 6
 1523 -119 l 6
 1597 -118.333333333 1648.33333333 -109 1677 -91 c 4
 1730.33333333 -57.6666666667 1759.33333333 -15.5 1764 35.5 c 132
 1773.87511669 143.420918085 1696.71039214 225.841108599 1600 237 c 5
1317 618 m 5
 1288.5173912 749.732065707 1217.68912949 846.829503602 1120 898 c 4
 1029.33333333 944.666666667 938.666666667 943.666666667 848 895 c 4
 751.975524131 843.890198327 683.197245995 744.256274151 656 613 c 5
 671 613 671 613 690 613 c 6
 1245 616 l 6
 1263.66666667 616 1287.66666667 616.666666667 1317 618 c 5
1327 548 m 5
 1294.33333333 546.666666667 1267 546 1245 546 c 6
 690 543 l 6
 664 543 664 543 646 543 c 5
 629.563053803 350.893191325 704.195225406 190.718455678 830.5 114 c 132
 919.343270185 60.0359395912 1029.87409316 53.9318004622 1126 106 c 132
 1263.87147937 180.680384657 1345.04462905 350.51155983 1327 548 c 5
601 308 m 4
 577.666666667 380 569 457.666666667 575 541 c 5
 420.333333333 534.333333333 310.666666667 498.5 246 433.5 c 132
 161.961070109 349.027879749 145.580869294 237.791377163 212 152 c 4
 245.333333333 108 293.333333333 80.1666666667 356 68.5 c 132
 454.165687242 50.2244731199 552.493704257 119.970771397 586 205.5 c 132
 598.666666667 237.833333333 604.333333333 262.5 603 279.5 c 132
 601.666666667 296.5 601 305.333333333 601 306 c 132
 601 307 601 307 601 308 c 4
EndSplineSet
LCarets2: 1 0
EndChar

StartChar: k1r1
Encoding: 65546 -1 127
Width: 1912
GlyphClass: 3
LigCaretCntFixed: 1
Flags: HW
LayerCount: 2
Fore
SplineSet
823 952 m 0
 928 1008 1054 1010 1162 955 c 0
 1288 891 1375 757 1403 606 c 1
 1545 597 1646 542 1716 452 c 0
 1795 351 1823 219 1808 94 c 0
 1793 -30 1737 -146 1660 -242 c 0
 1563 -364 1433 -457 1287 -511 c 0
 1196 -545 1096 -565 998 -565 c 0
 979 -565 963 -549 963 -530 c 0
 963 -511 979 -495 998 -495 c 0
 1088 -493 1178 -476 1263 -445 c 0
 1397 -395 1516 -309 1605 -198 c 0
 1732 -39 1810 218 1660 409 c 0
 1603 482 1526 526 1412 535 c 1
 1421 405 1393 273 1316 166 c 0
 1249 74 1131 -13 980 -7 c 0
 833 -2 722 89 659 187 c 1
 643 141 616 98 579 65 c 0
 448 -53 248 -22 154 102 c 0
 62 224 97 380 189 472 c 0
 280 563 426 601 588 606 c 1
 615 754 701 887 823 952 c 0
992 926 m 0
 884 925 799 864 746 798 c 0
 703 744 675 677 660 607 c 1
 672 607 683 607 695 607 c 2
 1328 608 l 2
 1329 608 1330 608 1331 608 c 1
 1305 732 1233 840 1130 893 c 0
 1087 915 1039 927 992 926 c 0
1328 538 m 2
 695 537 l 2
 680 537 664 537 649 537 c 1
 639 422 662 307 723 216 c 0
 775 138 866 67 983 63 c 0
 1107 58 1203 130 1259 207 c 0
 1326 299 1352 419 1342 538 c 1
 1338 538 1332 538 1328 538 c 2
605 303 m 0
 581 378 573 458 579 536 c 1
 439 530 315 499 238 423 c 0
 168 353 140 237 210 144 c 0
 281 51 433 28 532 117 c 0
 585 165 605 231 605 301 c 0
 605 302 605 302 605 303 c 0
976 -146 m 0
 1043 -147 1117 -153 1182 -191 c 0
 1240 -225 1302 -295 1289 -387 c 0
 1278 -463 1219 -516 1156 -541 c 0
 1093 -566 1028 -567 968 -566 c 0
 910 -565 846 -562 786 -536 c 0
 726 -510 670 -458 659 -384 c 0
 646 -292 709 -221 768 -188 c 0
 834 -151 908 -145 976 -146 c 0
976 -216 m 0
 877 -215 784 -237 744 -303 c 0
 697 -380 758 -448 814 -472 c 0
 859 -491 913 -495 969 -496 c 0
 1061 -498 1144 -487 1190 -437 c 0
 1222 -403 1232 -354 1204 -307 c 0
 1165 -241 1074 -217 976 -216 c 0
EndSplineSet
LCarets2: 1 0
EndChar

StartChar: k1k1
Encoding: 65548 -1 129
Width: 2517
GlyphClass: 3
LigCaretCntFixed: 1
Flags: HW
LayerCount: 2
Fore
SplineSet
2079 1 m 132
 2060.34511114 1 2048 19.3072357131 2048 40.5 c 132
 2048 53.5 2055.33333333 63 2070 69 c 4
 2231.20033428 132.784304931 2370.92031135 307.40743139 2344 529.5 c 132
 2320.04575386 727.122530665 2163.58979952 884.389285204 1969 912 c 4
 1903.66666667 921.333333333 1838 915.666666667 1772 895 c 4
 1627.33333333 850.333333333 1522.33333333 755 1457 609 c 5
 1612.33333333 596.333333333 1730 552 1810 476 c 4
 1912.96066924 378.001290716 1952.7957124 213.994820344 1848.5 88 c 132
 1767.52179557 -9.82601876566 1623.57724453 -40.3607778305 1503 35 c 4
 1429 81.6666666667 1379 150 1353 240 c 5
 1289.03927804 111.09454497 1161.37851099 -6.0445854479 980 0.5 c 132
 836.652345518 5.6723380483 721.975510126 92.8463109557 661 189 c 4
 659.666666667 191 659 192.333333333 659 193 c 5
 614.5368384 66.7246210594 482.002172017 -25.4188248258 333 1 c 4
 203.761882957 24.286147215 80.6408103361 149.712203964 103 302.5 c 132
 123.627265311 443.452979622 226.880900026 530.837802628 348.5 573.5 c 132
 412.166666667 595.833333333 492 608.666666667 588 612 c 5
 617.686757879 774.683433172 704.43238868 894.830607295 821 957 c 4
 933 1017 1045.66666667 1018 1159 960 c 4
 1273.76384832 901.872856042 1359.06325717 788.079263134 1393 639 c 5
 1463.0008896 793.7388086 1588.00160703 911.204037573 1752 962 c 132
 1827.33333333 985.333333333 1897.66666667 992.333333333 1963 983 c 4
 2201.24026574 949.875684979 2385.22410966 775.241616475 2413.5 538 c 132
 2444.15147311 280.826664698 2282.56245476 78.1614727004 2096 4 c 4
 2092 2 2086.33333333 1 2079 1 c 132
1327 614 m 5
 1298.55988856 747.905524679 1226.43651695 846.728045953 1127 898 c 4
 1035.66666667 944.666666667 944.666666667 943.666666667 854 895 c 4
 757.890534026 843.844961659 687.216123367 744.34737799 660 613 c 5
 674 613 674 613 694 613 c 6
 1254 614 l 6
 1294 614 1294 614 1327 614 c 5
1338 544 m 5
 1310 544 1310 544 1254 544 c 6
 694 543 l 6
 668 543 668 543 649 543 c 5
 632.551092969 350.753399078 709.763003979 190.980990175 836.5 114 c 132
 925.530179169 59.92240969 1036.93517277 54.0547825922 1133.5 106 c 132
 1271.20950386 180.078215877 1354.16072134 348.05125378 1338 544 c 5
605 304 m 5
 605 309 l 5
 581.666666667 381 573 458.333333333 579 541 c 5
 422.333333333 535 311.333333333 499.333333333 246 434 c 132
 161.296737394 349.296737394 145.2293639 237.245404964 212 151 c 4
 245.333333333 107 293.666666667 79.5 357 68.5 c 132
 420.333333333 57.5 478.833333333 76 532.5 124 c 132
 586.166666667 172 610.333333333 232 605 304 c 5
1431 540 m 5
 1370.72408544 345.045088857 1416.1137653 171.351045512 1538.5 95 c 132
 1682.9350628 4.8937222794 1859.94125004 124.892499596 1839 281 c 132
 1831.66666667 335.666666667 1807.33333333 382.666666667 1766 422 c 4
 1692.66666667 491.333333333 1581 530.666666667 1431 540 c 5
EndSplineSet
LCarets2: 2 0 0
EndChar

StartChar: k1k1u1
Encoding: 65549 -1 130
Width: 2561
GlyphClass: 3
LigCaretCntFixed: 1
Flags: HW
LayerCount: 2
Fore
SplineSet
2169 988 m 4
 2229.66666667 969.333333333 2285.83333333 934.333333333 2337.5 883 c 132
 2389.16666667 831.666666667 2418 767.833333333 2424 691.5 c 132
 2432.10277277 588.414724152 2371.3051317 492.868671954 2289 444 c 5
 2377 412 2431.66666667 357 2453 279 c 4
 2487.06734309 154.580138271 2406.81475755 45.6269571273 2327 8 c 4
 2235 -36.6666666667 2147.33333333 -35.6666666667 2064 11 c 4
 2033.88954283 27.7280317633 2044.26488923 77 2078 77 c 132
 2086 77 2098.33333333 72.1666666667 2115 62.5 c 132
 2161.74441439 35.3882396571 2243.82579709 44.9154857178 2294.5 69.5 c 132
 2345.0159896 94.007757327 2410.55520547 172.72773451 2389 249 c 4
 2357.91341671 358.478836827 2274.12662154 389.840127635 2132 403 c 6
 2111 405 l 6
 2089.66666667 407 2079 418.666666667 2079 440 c 4
 2079 457.165822865 2093.17926622 472.681605518 2109 474 c 6
 2137 478 l 5
 2170.62992183 478 2187.69591686 476.66182121 2227 492 c 132
 2302.2566814 521.36846104 2360.18897725 600.499685512 2353.5 689 c 132
 2343.79361332 817.422962344 2238.4674112 893.343993564 2125 927.5 c 132
 1983.25848168 970.167089701 1827.64148956 938.481778941 1725 880 c 4
 1613.66666667 816.666666667 1528.33333333 726.666666667 1469 610 c 5
 1619 596.666666667 1733 552.666666667 1811 478 c 4
 1915.04547937 380.147703924 1952.84349651 215.094499166 1849 89.5 c 132
 1756.78972114 -22.0245940301 1592.83686296 -38.1365840847 1470.5 54.5 c 132
 1412.83333333 98.1666666667 1372.66666667 158.333333333 1350 235 c 5
 1285.69013515 110.337800441 1157.79343645 -6.33168810068 980 1 c 132
 836.38124706 6.92242280164 721.998036026 93.63775019 661 191 c 4
 660.333333333 192.333333333 659.666666667 193.333333333 659 194 c 5
 614.651790359 68.0510846216 481.195532005 -23.275803547 333 3 c 4
 203.35838281 26.3588499441 80.9501340226 149.921641678 102.5 303 c 132
 122.435633849 444.611743887 226.940776878 531.85880655 348.5 574.5 c 132
 412.166666667 596.833333333 492 609.666666667 588 613 c 5
 604.666666667 704.333333333 635.333333333 778 680 834 c 4
 855.032061501 1054.11607734 1124.61829416 1059.57306052 1304 839 c 4
 1348.66666667 783.666666667 1380 711.666666667 1398 623 c 5
 1463.33333333 761 1558.33333333 865.666666667 1683 937 c 4
 1835 1023.66666667 1997 1040.66666667 2169 988 c 4
1328 615 m 5
 1299.55988856 748.905524679 1227.43651695 847.728045953 1128 899 c 4
 1036.66666667 945.666666667 945.333333333 944.666666667 854 896 c 4
 757.461655906 844.616687821 687.189761603 746.402317375 660 614 c 5
 674 614 674 614 694 614 c 6
 1254 615 l 6
 1294 615 1294 615 1328 615 c 5
1254 545 m 6
 694 544 l 6
 668 544 668 544 649 544 c 5
 632.551092969 351.753399078 709.763003979 191.980990175 836.5 115 c 132
 925.530179169 60.92240969 1036.93517277 55.0547825922 1133.5 107 c 132
 1271.20950386 181.078215877 1354.16072134 349.05125378 1338 545 c 5
 1307 545 1307 545 1254 545 c 6
605 305 m 5
 605 310 l 5
 581.666666667 382.666666667 573 460 579 542 c 5
 422.333333333 536 311.333333333 500.333333333 246 435 c 132
 160.284275241 349.284275241 146.347972744 239.53603634 212 152 c 4
 245.333333333 108 293.666666667 80.5 357 69.5 c 132
 420.333333333 58.5 478.666666667 77 532 125 c 132
 585.333333333 173 609.666666667 233 605 305 c 5
1439 541 m 5
 1369.3889282 356.798394615 1405.4038746 192.263714594 1516 108 c 132
 1605.78820632 39.589938045 1728.2046934 53.5047663062 1795.5 135 c 132
 1871.99273065 227.633398591 1843.6686535 351.27771124 1767 423 c 4
 1695 491.666666667 1585.66666667 531 1439 541 c 5
EndSplineSet
LCarets2: 1 0
EndChar

StartChar: k1k1u2
Encoding: 65550 -1 131
Width: 2610
GlyphClass: 3
LigCaretCntFixed: 1
Flags: HW
LayerCount: 2
Fore
SplineSet
2497.30273438 -516.5 m 132
 2497.30273438 -531.382423554 2482.30651823 -551 2469.30273438 -551 c 6
 2461.30273438 -551 l 5
 437.302734375 -547 l 6
 419.552734375 -547 419.552734375 -547 401.802734375 -547 c 6
 365.802734375 -546 l 5
 226.040127989 -546 125.950304137 -486.004373793 104.302734375 -393 c 4
 90.302734375 -332.333333333 110.469401042 -275.666666667 164.802734375 -223 c 132
 219.136067708 -170.333333333 315.302734375 -142.666666667 453.302734375 -140 c 5
 602.302734375 -141 l 5
 1939.30273438 -132 l 6
 2069.96940105 -131.333333333 2162.96940105 -120.333333333 2218.30273438 -99 c 4
 2326.96940105 -58.3333333333 2396.30273438 4.33333333333 2426.30273438 89 c 4
 2474.73207351 227.36954037 2390.88832778 340.6273984 2288.30273438 374.5 c 132
 2252.96940105 386.166666667 2206.30273438 394.666666667 2148.30273438 400 c 6
 2127.30273438 402 l 6
 2110.66527655 403.279804448 2095.30273438 418.318828337 2095.30273438 436 c 4
 2095.30273438 456.256510417 2105.30273438 467.923177083 2125.30273438 471 c 6
 2152.30273438 475 l 6
 2153.30273438 475 2153.30273438 475 2154.30273438 475 c 4
 2262.16111402 484.91801192 2362.26603759 577.042208621 2369.30273438 684 c 4
 2375.96940105 780.666666667 2339.96940105 863.333333333 2261.30273438 932 c 4
 2121.87314154 1051.97430082 1903.84100315 1059.94745438 1729.30273438 951 c 4
 1607.30273438 874.333333333 1519.30273438 760 1465.30273438 608 c 5
 1623.96940105 596 1743.46940105 551.833333333 1823.80273438 475.5 c 132
 1904.13606771 399.166666667 1936.96940105 312 1922.30273438 214 c 4
 1901.65193835 76.3280264499 1782.15680227 -20.3263841851 1649.30273438 -14 c 4
 1505.03453367 -7.65854062824 1402.01612855 107.538946115 1366.30273438 237 c 5
 1322.96940105 149.666666667 1260.96940105 84.6666666667 1180.30273438 42 c 4
 1058.56109574 -23.5531900328 921.215551831 -15.2106444322 808.802734375 52.5 c 132
 751.802734375 86.8333333333 705.969401042 132 671.302734375 188 c 4
 670.636067708 189.333333333 669.969401042 190.333333333 669.302734375 191 c 5
 641.969401042 111.666666667 590.636067708 55 515.302734375 21 c 4
 374.714740244 -42.4360461318 233.657292189 16.2171628764 164.302734375 107.5 c 132
 74.6504070241 225.498283794 103.976858835 380.838285309 194.302734375 470.5 c 132
 289.489340827 564.986704935 411.020305716 603.541985219 598.302734375 610 c 5
 614.969401042 702 645.636067708 776 690.302734375 832 c 4
 778.302734375 942.666666667 882.13606771 998.666666667 1001.80273438 1000 c 132
 1121.46940105 1001.33333333 1224.96940105 948.666666667 1312.30273438 842 c 4
 1354.96940105 790 1385.63606771 724.666666667 1404.30273438 646 c 5
 1480.21854623 846.465190644 1622.89530787 1000.71495615 1813.30273438 1068.5 c 132
 2125.95345029 1179.80365488 2458.87839493 976.160128439 2439.30273438 676 c 4
 2432.84542431 585.597659069 2368.17066694 491.49596147 2290.30273438 447 c 5
 2435.07826707 403.733748852 2560.87044333 258.458893079 2492.30273438 65 c 132
 2442.94616259 -74.256041813 2307.7758237 -161.942305667 2148.30273438 -188 c 4
 2094.96940105 -196.666666667 2025.30273438 -201.333333333 1939.30273438 -202 c 6
 602.302734375 -211 l 6
 579.3249611 -211 478.577988689 -210.068989827 455.302734375 -211 c 4
 296.636067708 -213.666666667 203.636067708 -252 176.302734375 -326 c 4
 149.993155932 -398.949285682 212.632502016 -446.060278059 276.802734375 -464.5 c 132
 305.802734375 -472.833333333 359.636067708 -477 438.302734375 -477 c 6
 2462.30273438 -481 l 6
 2481.05269892 -481 2497.30273438 -497.606008228 2497.30273438 -516.5 c 132
1340.30273438 612 m 5
 1311.90248354 746.901191467 1239.16194571 845.510094164 1139.30273438 897 c 4
 1047.30273438 943.666666667 955.969401045 942.666666667 865.302734375 894 c 4
 768.777119897 842.623463261 697.479719073 743.340099403 670.302734375 611 c 5
 705.302734375 611 l 5
 1266.30273438 612 l 5
 1340.30273438 612 l 5
1351.30273438 542 m 5
 1267.30273438 542 l 5
 705.302734375 541 l 5
 659.302734375 541 l 5
 642.848890063 348.695694613 719.839830563 187.85263318 847.302734375 111 c 132
 937.025625873 56.9023742433 1048.04420096 51.0399616037 1145.30273438 103 c 132
 1284.23198381 177.222475716 1367.54389562 344.060847487 1351.30273438 542 c 5
615.302734375 302 m 4
 615.302734375 304.5 615.302734375 304.5 615.302734375 307 c 4
 591.969401042 379.666666667 583.302734375 457 589.302734375 539 c 5
 431.969401042 533 317.136067708 494 244.802734375 422 c 132
 172.469401042 350 157.636067708 270 200.302734375 182 c 4
 230.969401042 118 282.136067708 79.6666666667 353.802734375 67 c 132
 498.639167074 41.4010025928 624.38875788 161.815637354 615.302734375 302 c 4
1443.30273438 539 m 5
 1391.43615524 342.944330813 1425.81743386 187.501595016 1528.80273438 104 c 132
 1565.80273438 74 1602.63606771 58.3333333333 1639.30273438 57 c 4
 1709.30273438 53.6666666667 1764.63606771 75 1805.30273438 121 c 132
 1888.57223354 215.190089208 1859.32605183 344.800391451 1780.30273438 420 c 4
 1706.30273438 490 1593.96940105 529.666666667 1443.30273438 539 c 5
EndSplineSet
LCarets2: 1 3
EndChar

StartChar: k1k1r1
Encoding: 65551 -1 132
Width: 2481
GlyphClass: 3
LigCaretCntFixed: 1
Flags: HW
LayerCount: 2
Fore
SplineSet
1375 634 m 5
 1453 816 1623 1005 1867 1003 c 4
 2084 1002 2242 850 2316 696 c 4
 2400 520 2397 317 2347 134 c 4
 2267 -160 2068 -412 1795 -519 c 4
 1696 -558 1599 -576 1473 -574 c 4
 1415 -573 1351 -570 1291 -544 c 4
 1231 -518 1174 -466 1163 -392 c 4
 1150 -299 1213 -228 1273 -195 c 4
 1339 -158 1414 -152 1482 -153 c 4
 1550 -154 1624 -160 1689 -198 c 4
 1762 -240 1834 -345 1779 -450 c 5
 2026 -349 2206 -118 2279 152 c 4
 2325 323 2327 510 2253 666 c 4
 2187 803 2044 940 1851 933 c 4
 1648 925 1503 760 1436 600 c 5
 1579 589 1700 550 1785 469 c 4
 1883 376 1925 211 1823 87 c 4
 1733 -21 1569 -38 1451 53 c 4
 1392 98 1353 160 1331 233 c 5
 1269 110 1144 -10 964 -3 c 4
 819 2 710 92 649 189 c 5
 633 144 607 103 571 70 c 4
 442 -46 245 -15 153 107 c 4
 62 227 97 381 188 471 c 4
 277 560 418 597 577 602 c 5
 601 753 684 889 805 956 c 4
 910 1014 1039 1016 1147 959 c 4
 1263 897 1345 774 1375 634 c 5
1225 802 m 4
 1173 870 1087 933 975 932 c 4
 866 931 782 867 731 799 c 4
 689 743 661 674 648 603 c 5
 660 603 672 603 684 603 c 6
 1236 604 l 6
 1260 604 1284 604 1309 604 c 5
 1296 676 1269 745 1225 802 c 4
1262 534 m 4
 1253 534 1245 534 1236 534 c 6
 684 533 l 6
 669 533 655 533 640 533 c 5
 628 353 700 188 824 112 c 4
 912 58 1022 52 1117 104 c 4
 1251 176 1330 348 1318 534 c 5
 1299 534 1281 534 1262 534 c 4
598 299 m 5
 573 374 566 453 570 532 c 5
 433 526 312 495 237 421 c 4
 168 352 140 240 209 149 c 4
 278 58 427 35 524 122 c 4
 572 166 600 234 595 299 c 5
 598 299 l 5
1411 531 m 5
 1380 431 1370 324 1405 231 c 4
 1437 145 1519 58 1631 63 c 4
 1737 68 1826 166 1811 280 c 4
 1796 394 1693 469 1591 501 c 4
 1534 519 1473 527 1411 531 c 5
1248 -310 m 4
 1201 -388 1261 -456 1318 -480 c 4
 1378 -506 1495 -507 1565 -501 c 4
 1642 -493 1717 -458 1727 -385 c 4
 1735 -326 1693 -282 1654 -259 c 4
 1606 -231 1544 -224 1481 -223 c 4
 1380 -222 1288 -244 1248 -310 c 4
EndSplineSet
LCarets2: 1 0
EndChar

StartChar: k1k1r3
Encoding: 65552 -1 133
Width: 2898
GlyphClass: 3
LigCaretCntFixed: 1
Flags: HW
LayerCount: 2
Fore
SplineSet
476.5 988 m 132
 494.933411441 988 509 969.273375227 509 949 c 132
 509 937 502.666666667 928 490 922 c 4
 308.275617734 825.861939704 156.16359576 621.29709652 171 353.5 c 132
 177.666666667 233.166666667 218.333333333 121.666666667 293 19 c 4
 435.666666667 -176.333333333 654 -290.666666667 948 -324 c 4
 1036 -334 1165 -337 1335 -333 c 6
 1804 -322 l 6
 2103.67325399 -315.220062128 2264.22695051 -293.794060506 2446.5 -167.5 c 132
 2602.34790102 -59.515499292 2732.48160497 135.523989869 2728 385 c 4
 2723.91380038 613.827178396 2601.62096247 802.884813446 2424.5 881.5 c 132
 2232.23720274 966.835893978 2046.42991249 896.350216425 1928 763 c 4
 1887.33333333 717 1855 663 1831 601 c 5
 1989 589 2108 545 2188 469 c 4
 2290.82168107 371.133580657 2330.76513927 209.200845069 2227 83 c 132
 2146.33242224 -15.1092161983 2003.01495125 -43.4320113618 1884 32 c 4
 1810.66666667 78.6666666667 1761.33333333 147.333333333 1736 238 c 5
 1692.66666667 150 1630.66666667 84.3333333333 1550 41 c 4
 1429.63734725 -23.1934147977 1294.69662656 -16.1127568597 1183.5 51 c 132
 1125.1464981 86.2192733405 1082.04740831 131.428887533 1045 187 c 5
 1028.33333333 139.666666667 1002.66666667 100.666666667 968 70 c 4
 896 5.33333333333 818.666666667 -19.6666666667 736 -5 c 132
 653.333333333 9.66666666667 589.5 46.6666666667 544.5 106 c 132
 455.485016678 223.367903935 484.813134328 375.97748148 574.5 465 c 132
 668.489393641 558.293175911 788.421419512 597.808990755 974 603 c 5
 1003.74187574 764.795804018 1089.79835358 884.025788575 1206 946 c 4
 1317.33333333 1005.33333333 1429.33333333 1006.33333333 1542 949 c 4
 1652.82097839 892.131340039 1736.35998122 783.102142827 1772 643 c 5
 1828 775 1915.66666667 871.666666667 2035 933 c 4
 2172.33333333 1003.66666667 2312.33333333 1007.66666667 2455 945 c 4
 2525.66666667 913.666666667 2582.66666667 873.666666667 2626 825 c 4
 2806.82860047 621.432473718 2856.81571476 309.289171136 2717.5 39 c 132
 2609.97474009 -169.611881494 2411.29343437 -310.791752626 2153 -363 c 4
 2072.33333333 -379 1956.33333333 -388.666666667 1805 -392 c 6
 1336 -403 l 6
 1162.66666667 -407 1030.66666667 -403.666666667 940 -393 c 4
 625.333333333 -357 392 -235 240 -27 c 4
 84.4986105401 185.599555903 46.3383854001 474.254584647 187 721.5 c 132
 251.666666667 835.166666667 341.666666667 922.666666667 457 984 c 4
 462.333333333 986.666666667 468.833333333 988 476.5 988 c 132
1708 605 m 5
 1679.73513097 736.902722152 1608.37397166 837.032268365 1510 887 c 4
 1419.33333333 933 1329 932 1239 884 c 4
 1143.19360563 833.006273962 1073.30095543 735.569786891 1046 605 c 5
 1061 605 1061 605 1080 605 c 6
 1636 606 l 6
 1662 606 1686 605.666666667 1708 605 c 5
1719 535 m 5
 1700.33333333 535 1672.66666667 535.333333333 1636 536 c 6
 1080 535 l 6
 1054 535 1054 535 1035 535 c 5
 1018.58309447 345.179529914 1095.66879628 186.69521421 1221 110 c 132
 1309.16868879 56.0460262673 1419.89293096 50.1094144721 1516 101.5 c 132
 1653.00412799 174.759151773 1735.20512641 340.538483114 1719 535 c 5
991 298 m 5
 991 303 l 5
 967.666666667 375 959 451.666666667 965 533 c 5
 809.666666667 527 696.333333333 488.333333333 625 417 c 132
 553.666666667 345.666666667 539 266.666666667 581 180 c 4
 611.666666667 116.666666667 662.166666667 78.6666666667 732.5 66 c 132
 875.219081947 40.2970373744 1000.04757711 159.701321325 991 298 c 5
1808 532 m 5
 1757.22841346 336.435370359 1800.02416624 167.540339778 1920 92 c 4
 1974 57.3333333333 2031.33333333 50.1666666667 2092 70.5 c 132
 2152.66666667 90.8333333333 2192 133.666666667 2210 199 c 4
 2232.66666667 279.666666667 2209 353.166666667 2139 419.5 c 132
 2069 485.833333333 1958.66666667 523.333333333 1808 532 c 5
EndSplineSet
LCarets2: 1 0
EndChar

